<?xml version="1.0" encoding="UTF-8" standalone="no"?>
<!-- Generator: Adobe Illustrator 16.0.0, SVG Export Plug-In . SVG Version: 6.00 Build 0)  -->

<svg
   xmlns:dc="http://purl.org/dc/elements/1.1/"
   xmlns:cc="http://creativecommons.org/ns#"
   xmlns:rdf="http://www.w3.org/1999/02/22-rdf-syntax-ns#"
   xmlns:svg="http://www.w3.org/2000/svg"
   xmlns="http://www.w3.org/2000/svg"
   xmlns:xlink="http://www.w3.org/1999/xlink"
   xmlns:sodipodi="http://sodipodi.sourceforge.net/DTD/sodipodi-0.dtd"
   xmlns:inkscape="http://www.inkscape.org/namespaces/inkscape"
   version="1.1"
   id="Layer_1"
   x="0px"
   y="0px"
   width="16px"
   height="16px"
   viewBox="0 0 16 16"
   enable-background="new 0 0 16 16"
   xml:space="preserve"
   inkscape:version="0.48.4 r9939"
   sodipodi:docname="budget-16.svg"><metadata
     id="metadata3459"><rdf:RDF><cc:Work
         rdf:about=""><dc:format>image/svg+xml</dc:format><dc:type
           rdf:resource="http://purl.org/dc/dcmitype/StillImage" /></cc:Work></rdf:RDF></metadata><defs
     id="defs3457" /><sodipodi:namedview
     pagecolor="#ffffff"
     bordercolor="#666666"
     borderopacity="1"
     objecttolerance="10"
     gridtolerance="10"
     guidetolerance="10"
     inkscape:pageopacity="0"
     inkscape:pageshadow="2"
     inkscape:window-width="2181"
     inkscape:window-height="1176"
     id="namedview3455"
     showgrid="true"
     inkscape:zoom="62.75"
     inkscape:cx="8"
     inkscape:cy="8"
     inkscape:window-x="0"
     inkscape:window-y="30"
     inkscape:window-maximized="0"
     inkscape:current-layer="Layer_1"><inkscape:grid
       type="xygrid"
       id="grid3461" /></sodipodi:namedview><g
     id="g3382"
     transform="translate(-0.03847558,0)"><path
       stroke-miterlimit="10"
       d="m 14.897,7.63 c -0.089,0 -0.297,-0.099 -0.517,-0.236 0.021,-0.146 0.033,-0.308 0.033,-0.489 0,-0.986 -0.702,-0.989 -0.967,-0.725 -0.282,0.283 -0.282,1.019 0.353,1.421 -0.183,0.29 -0.52,0.476 -1.077,0.271 v 0.483 c 0,0 0.045,0.242 0.483,0.242 0.327,0 0.841,-0.115 1.079,-0.795 0.177,0.044 0.379,0.07 0.612,0.07 0.583,0 0.243,-0.242 10e-4,-0.242 z M 13.689,6.664 c 0.19,-0.283 0.325,0.04 0.279,0.435 C 13.765,6.926 13.627,6.756 13.689,6.664 z"
       id="path3384"
       inkscape:connector-curvature="0"
       style="fill:#ff5662;stroke:#ef2929;stroke-miterlimit:10;stroke-opacity:0.5" /><radialGradient
       id="SVGID_1_"
       cx="6.7519999"
       cy="8.5116997"
       r="5.5862999"
       gradientTransform="matrix(-4.371139e-8,1,-1.8,-7.86805e-8,22.073,1.7598)"
       gradientUnits="userSpaceOnUse"><stop
         offset="0.26"
         style="stop-color:#FF7D96"
         id="stop3387" /><stop
         offset="0.66"
         style="stop-color:#FF667C"
         id="stop3389" /><stop
         offset="1"
         style="stop-color:#FF5662"
         id="stop3391" /></radialGradient><path
       stroke-miterlimit="10"
       d="m 4.507,4.247 c 0,0 -1.259,-1.398 -1.933,-0.725 0,0 1.004,1.379 0.241,1.933 C 2.052,6.009 1.85,7.388 1.85,7.388 c 0,0 -0.718,0.235 -0.967,0.484 -0.249,0.248 0.014,1.706 0.241,1.933 0.227,0.227 1.208,0 1.208,0 0,0.585 0.771,1.227 1.209,1.45 v 2.175 c 0,0 0.258,0.299 0.725,0.241 L 5.474,11.98 c 1.058,0.378 3.048,0.32 3.866,0 l 1.208,1.691 c 0,0 0.375,0.104 0.725,-0.241 v -2.176 c 0,0 1.45,-0.771 1.45,-3.141 0,-5.801 -8.216,-3.866 -8.216,-3.866 z"
       id="path3393"
       style="fill:url(#SVGID_1_);stroke:#ef2929;stroke-miterlimit:10;stroke-opacity:0.5"
       inkscape:connector-curvature="0" /><g
       id="g3395"><defs
         id="defs3397"><path
           id="SVGID_2_"
           d="m 9.521,11.372 1.252,1.753 v -2.171 l 0.265,-0.142 c 0.044,-0.023 1.186,-0.688 1.186,-2.699 0,-2.439 -1.622,-3.676 -4.822,-3.676 -1.496,0 -2.767,0.294 -2.779,0.297 L 4.334,4.801 4.136,4.582 C 3.957,4.385 3.662,4.126 3.395,3.972 3.537,4.305 3.644,4.706 3.584,5.081 3.533,5.402 3.369,5.671 3.109,5.86 2.626,6.211 2.389,7.157 2.345,7.461 L 2.299,7.767 2.005,7.863 C 1.756,7.945 1.431,8.086 1.287,8.185 1.246,8.447 1.358,9.124 1.468,9.403 1.647,9.411 2.101,9.343 2.22,9.317 l 0.612,-0.14 v 0.627 c 0,0.279 0.523,0.795 0.937,1.005 l 0.272,0.14 v 2.176 l 1.245,-1.743 0.355,0.127 c 0.415,0.147 1.059,0.233 1.766,0.233 0.71,0 1.397,-0.09 1.75,-0.229 l 0.364,-0.141 z"
           inkscape:connector-curvature="0" /></defs><clipPath
         id="SVGID_3_"><use
           xlink:href="#SVGID_2_"
           overflow="visible"
           id="use3401"
           style="overflow:visible"
           x="0"
           y="0"
           width="16"
           height="16" /></clipPath><linearGradient
         id="SVGID_4_"
         gradientUnits="userSpaceOnUse"
         x1="6.75"
         y1="1.6069"
         x2="6.75"
         y2="16.2456"><stop
           offset="0"
           style="stop-color:#FFFFFF"
           id="stop3404" /><stop
           offset="0.3333"
           style="stop-color:#FFFFFF;stop-opacity:0.2353"
           id="stop3406" /><stop
           offset="0.9506"
           style="stop-color:#FFFFFF;stop-opacity:0.1569"
           id="stop3408" /><stop
           offset="1"
           style="stop-color:#FFFFFF;stop-opacity:0.3922"
           id="stop3410" /></linearGradient><path
         clip-path="url(#SVGID_3_)"
         stroke-miterlimit="10"
         d="m 9.521,11.372 1.252,1.753 v -2.171 l 0.265,-0.142 c 0.044,-0.023 1.186,-0.688 1.186,-2.699 0,-2.439 -1.622,-3.676 -4.822,-3.676 -1.496,0 -2.767,0.294 -2.779,0.297 L 4.334,4.801 4.136,4.582 C 3.957,4.385 3.662,4.126 3.395,3.972 3.537,4.305 3.644,4.706 3.584,5.081 3.533,5.402 3.369,5.671 3.109,5.86 2.626,6.211 2.389,7.157 2.345,7.461 L 2.299,7.767 2.005,7.863 C 1.756,7.945 1.431,8.086 1.287,8.185 1.246,8.447 1.358,9.124 1.468,9.403 1.647,9.411 2.101,9.343 2.22,9.317 l 0.612,-0.14 v 0.627 c 0,0.279 0.523,0.795 0.937,1.005 l 0.272,0.14 v 2.176 l 1.245,-1.743 0.355,0.127 c 0.415,0.147 1.059,0.233 1.766,0.233 0.71,0 1.397,-0.09 1.75,-0.229 l 0.364,-0.141 z"
         id="path3412"
         style="opacity:0.5;fill:none;stroke:url(#SVGID_4_);stroke-width:2;stroke-miterlimit:10;stroke-opacity:0.8"
         inkscape:connector-curvature="0" /></g><radialGradient
       id="SVGID_5_"
       cx="7.6483998"
       cy="3.6229999"
       r="1.5122"
       gradientUnits="userSpaceOnUse"><stop
         offset="0"
         style="stop-color:#EDD400"
         id="stop3415" /><stop
         offset="0.703"
         style="stop-color:#DBBA16"
         id="stop3417" /><stop
         offset="1"
         style="stop-color:#CCAB09"
         id="stop3419" /></radialGradient><path
       stroke-miterlimit="10"
       d="m 7.648,4.73 c 0.658,0 1.111,0.095 1.414,0.201 C 9.237,4.666 9.34,4.348 9.34,4.006 9.34,3.071 8.583,2.314 7.649,2.314 c -0.934,0 -1.692,0.757 -1.692,1.692 0,0.342 0.102,0.66 0.276,0.926 C 6.536,4.826 6.989,4.73 7.648,4.73 z"
       id="path3421"
       style="fill:url(#SVGID_5_);stroke:#c4a000;stroke-miterlimit:10;stroke-opacity:0.5"
       inkscape:connector-curvature="0" /><path
       stroke-miterlimit="10"
       d="m 9.581,5.214 c 0,0 -0.449,-0.483 -1.933,-0.483 -1.484,0 -1.933,0.483 -1.933,0.483"
       id="path3423"
       inkscape:connector-curvature="0"
       style="fill:none;stroke:#ef2929;stroke-miterlimit:10;stroke-opacity:0.8" /><linearGradient
       id="SVGID_6_"
       gradientUnits="userSpaceOnUse"
       x1="7.6483998"
       y1="5.2305002"
       x2="7.6483998"
       y2="6.3452001"><stop
         offset="0"
         style="stop-color:#FFFFFF"
         id="stop3426" /><stop
         offset="0.3333"
         style="stop-color:#FFFFFF;stop-opacity:0.2353"
         id="stop3428" /><stop
         offset="0.9506"
         style="stop-color:#FFFFFF;stop-opacity:0.1569"
         id="stop3430" /><stop
         offset="1"
         style="stop-color:#FFFFFF;stop-opacity:0.3922"
         id="stop3432" /></linearGradient><path
       stroke-miterlimit="10"
       d="m 8.869,5.949 c 0,0 -0.284,-0.218 -1.221,-0.218 -0.938,0 -1.222,0.218 -1.222,0.218"
       id="path3434"
       style="opacity:0.4;fill:none;stroke:url(#SVGID_6_);stroke-miterlimit:10;stroke-opacity:0.8"
       inkscape:connector-curvature="0" /><g
       id="g3436"><defs
         id="defs3438"><path
           id="SVGID_7_"
           d="M 7.648,4.23 C 8.07,4.23 8.453,4.267 8.792,4.338 8.823,4.231 8.84,4.12 8.84,4.006 8.84,3.349 8.306,2.814 7.649,2.814 6.992,2.814 6.457,3.349 6.457,4.006 6.457,4.12 6.473,4.232 6.504,4.339 6.844,4.267 7.227,4.23 7.648,4.23 z"
           inkscape:connector-curvature="0" /></defs><clipPath
         id="SVGID_8_"><use
           xlink:href="#SVGID_7_"
           overflow="visible"
           id="use3442"
           style="overflow:visible"
           x="0"
           y="0"
           width="16"
           height="16" /></clipPath><linearGradient
         id="SVGID_9_"
         gradientUnits="userSpaceOnUse"
         x1="7.6479001"
         y1="1.814"
         x2="7.6479001"
         y2="5.5098"><stop
           offset="0"
           style="stop-color:#FFFFFF"
           id="stop3445" /><stop
           offset="0.3333"
           style="stop-color:#FFFFFF;stop-opacity:0.2353"
           id="stop3447" /><stop
           offset="0.9506"
           style="stop-color:#FFFFFF;stop-opacity:0.1569"
           id="stop3449" /><stop
           offset="1"
           style="stop-color:#FFFFFF;stop-opacity:0.3922"
           id="stop3451" /></linearGradient><path
         clip-path="url(#SVGID_8_)"
         stroke-miterlimit="10"
         d="M 7.648,4.23 C 8.07,4.23 8.453,4.267 8.792,4.338 8.823,4.231 8.84,4.12 8.84,4.006 8.84,3.349 8.306,2.814 7.649,2.814 6.992,2.814 6.457,3.349 6.457,4.006 6.457,4.12 6.473,4.232 6.504,4.339 6.844,4.267 7.227,4.23 7.648,4.23 z"
         id="path3453"
         style="opacity:0.4;fill:none;stroke:url(#SVGID_9_);stroke-width:2;stroke-miterlimit:10;stroke-opacity:0.8"
         inkscape:connector-curvature="0" /></g></g></svg>