<?xml version="1.0" encoding="UTF-8" standalone="no"?>
<!-- Created with Inkscape (http://www.inkscape.org/) -->

<svg
   xmlns:dc="http://purl.org/dc/elements/1.1/"
   xmlns:cc="http://creativecommons.org/ns#"
   xmlns:rdf="http://www.w3.org/1999/02/22-rdf-syntax-ns#"
   xmlns:svg="http://www.w3.org/2000/svg"
   xmlns="http://www.w3.org/2000/svg"
   xmlns:sodipodi="http://sodipodi.sourceforge.net/DTD/sodipodi-0.dtd"
   xmlns:inkscape="http://www.inkscape.org/namespaces/inkscape"
   width="744.09448819"
   height="1052.3622047"
   id="svg2"
   version="1.1"
   inkscape:version="0.91 r13725"
   sodipodi:docname="budget.svg"
   inkscape:export-filename="/home/mat/Pictures/Budget/budget48.png"
   inkscape:export-xdpi="7.1999998"
   inkscape:export-ydpi="7.1999998">
  <defs
     id="defs4" />
  <sodipodi:namedview
     id="base"
     pagecolor="#ffffff"
     bordercolor="#666666"
     borderopacity="1.0"
     inkscape:pageopacity="0.0"
     inkscape:pageshadow="2"
     inkscape:zoom="1.4142136"
     inkscape:cx="406.31034"
     inkscape:cy="608.42337"
     inkscape:document-units="px"
     inkscape:current-layer="layer1"
     showgrid="false"
     inkscape:window-width="1920"
     inkscape:window-height="1016"
     inkscape:window-x="0"
     inkscape:window-y="27"
     inkscape:window-maximized="1" />
  <metadata
     id="metadata7">
    <rdf:RDF>
      <cc:Work
         rdf:about="">
        <dc:format>image/svg+xml</dc:format>
        <dc:type
           rdf:resource="http://purl.org/dc/dcmitype/StillImage" />
        <dc:title />
      </cc:Work>
    </rdf:RDF>
  </metadata>
  <g
     inkscape:label="Layer 1"
     inkscape:groupmode="layer"
     id="layer1">
    <path
       style="fill:#d45400;fill-opacity:1;stroke:#ff6e0b;stroke-width:0;stroke-linecap:butt;stroke-linejoin:round;stroke-miterlimit:4;stroke-opacity:1;stroke-dasharray:none;stroke-dashoffset:0"
       d=""
       id="path4421"
       inkscape:connector-curvature="0" />
    <path
       style="fill:#d45400;fill-opacity:1;stroke:#ff6e0b;stroke-width:0;stroke-linecap:butt;stroke-linejoin:round;stroke-miterlimit:4;stroke-opacity:1;stroke-dasharray:none;stroke-dashoffset:0"
       d=""
       id="path4457"
       inkscape:connector-curvature="0" />
    <path
       style="fill:#628fca;fill-opacity:1;stroke:#ff6e0b;stroke-width:0;stroke-linecap:butt;stroke-linejoin:round;stroke-miterlimit:4;stroke-opacity:1;stroke-dasharray:none;stroke-dashoffset:0"
       d=""
       id="path4503"
       inkscape:connector-curvature="0" />
    <path
       style="fill:#628fca;fill-opacity:1;stroke:#ff6e0b;stroke-width:0;stroke-linecap:butt;stroke-linejoin:round;stroke-miterlimit:4;stroke-opacity:1;stroke-dasharray:none;stroke-dashoffset:0"
       d=""
       id="path4511"
       inkscape:connector-curvature="0" />
    <g
       id="g3464"
       transform="matrix(1.2345238,0,0,1.2345238,1.2634525,-408.64769)">
      <circle
         id="path2988"
         style="fill:none;fill-opacity:1;fill-rule:evenodd;stroke:#000000;stroke-width:1px;stroke-linecap:butt;stroke-linejoin:miter;stroke-opacity:1"
         transform="matrix(0.91165614,0,0,0.91165614,-40.577023,266.67401)"
         cx="374.28571"
         cy="532.36218"
         r="328.57144" />
      <path
         inkscape:connector-curvature="0"
         id="path3764"
         d="m 299.98684,452.71031 c 0,300.05128 0,300.05128 0,300.05128"
         style="fill:none;stroke:#000000;stroke-width:0.61535072px;stroke-linecap:butt;stroke-linejoin:miter;stroke-opacity:1" />
      <path
         inkscape:connector-curvature="0"
         id="path3766"
         d="M 300,752.36218 58.392857,928.07647"
         style="fill:none;stroke:#000000;stroke-width:1px;stroke-linecap:butt;stroke-linejoin:miter;stroke-opacity:1" />
      <path
         inkscape:connector-curvature="0"
         id="path4249"
         d="M 52.573087,917.82426 C 44.141638,905.15327 36.932787,892.61418 31.688491,881.49756 -2.1408707,809.78759 -7.0868708,732.11057 17.460781,658.05111 54.459162,546.42821 154.72925,466.11898 270.80518,455.14021 c 5.775,-0.54622 14.4375,-1.18992 19.25,-1.43045 l 8.75,-0.43733 0,149.2985 0,149.2985 -119.21744,86.70567 c -65.5696,47.68812 -119.725678,86.90069 -120.346842,87.13905 -0.621164,0.23837 -3.621679,-3.31209 -6.667811,-7.88989 l 0,0 z"
         style="fill:#515000;fill-opacity:1;stroke:#b64200;stroke-width:0;stroke-linecap:butt;stroke-linejoin:round;stroke-miterlimit:4;stroke-dasharray:none;stroke-dashoffset:0;stroke-opacity:1" />
      <path
         inkscape:connector-curvature="0"
         id="path4251"
         d="m 56.826497,922.97292 c -4.437005,-5.13503 -15.566519,-23.26269 -21.718552,-35.375 -17.788513,-35.02256 -28.5040019,-73.09649 -31.8026063,-113 -1.1407884,-13.80021 -0.7793313,-40.55732 0.7227223,-53.5 4.2727946,-36.8172 13.750268,-69.28023 29.559601,-101.25 35.768905,-72.33219 99.855458,-127.50304 176.497058,-151.94285 17.69881,-5.64388 33.60838,-9.10716 54.25,-11.80945 4.32688,-0.56645 29.3075,-2.49201 32.375,-2.49554 l 1.875,-0.002 -0.0276,149.125 -0.0276,149.125 -46.82601,34 c -25.75429,18.7 -69.56062,50.51401 -97.34739,70.69779 -66.476818,48.2875 -94.622323,68.55221 -95.211633,68.55221 -0.265015,0 -1.30811,-0.95625 -2.31799,-2.125 z"
         style="fill:#515000;fill-opacity:1;stroke:#b64200;stroke-width:0;stroke-linecap:butt;stroke-linejoin:round;stroke-miterlimit:4;stroke-dasharray:none;stroke-dashoffset:0;stroke-opacity:1" />
      <path
         inkscape:connector-curvature="0"
         id="path4253"
         d="m 57.012387,922.91042 c -1.010765,-1.16875 -3.47725,-4.6 -5.481077,-7.625 -24.051028,-36.30772 -40.202936,-79.54455 -46.2290737,-123.75 -2.0233718,-14.84268 -2.2802531,-19.37446 -2.2673779,-40 0.013177,-21.10977 0.3845235,-26.81965 2.7802773,-42.75 C 14.986342,647.80231 42.623573,590.99863 84.467027,547.12971 133.29052,495.94288 195.07346,464.64632 264.27222,456.0482 c 4.7193,-0.58639 29.68035,-2.50724 32.625,-2.51062 l 1.875,-0.002 -0.0172,149.125 -0.0172,149.125 -55.0814,40 c -30.29473,22 -75.34325,54.71369 -100.10778,72.69709 -60.297338,43.78646 -83.612923,60.55291 -84.205428,60.55291 -0.27119,0 -1.32006,-0.95625 -2.330825,-2.125 l 0,0 z"
         style="fill:#515000;fill-opacity:1;stroke:#b64200;stroke-width:0;stroke-linecap:butt;stroke-linejoin:round;stroke-miterlimit:4;stroke-dasharray:none;stroke-dashoffset:0;stroke-opacity:1" />
      <path
         inkscape:connector-curvature="0"
         id="path4255"
         d="m 129.59729,507.06218 0,-0.39877 1.67188,-1.14996 c 14.25596,-9.80565 29.24724,-18.32234 44.82812,-25.46728 28.00666,-12.84304 57.90019,-21.27137 88.4375,-24.93451 1.49637,-0.17949 5.79303,-0.65809 5.90814,-0.65809 0.0161,0 0.0294,0.15297 0.0294,0.33992 l 0,0.33992 -0.26562,0.0363 c -0.14609,0.02 -1.34844,0.148 -2.67188,0.2845 -3.10362,0.32013 -7.17613,0.82882 -10.71875,1.33887 -40.48518,5.82891 -79.31877,20.14503 -114.42284,42.18233 -3.73727,2.34614 -8.47921,5.47724 -11.51466,7.60311 -0.61875,0.43334 -1.16015,0.80916 -1.20312,0.83515 -0.0593,0.0359 -0.0781,-0.049 -0.0781,-0.35151 z"
         style="fill:#515000;fill-opacity:1;stroke:#b64200;stroke-width:0;stroke-linecap:butt;stroke-linejoin:round;stroke-miterlimit:4;stroke-dasharray:none;stroke-dashoffset:0;stroke-opacity:1" />
      <path
         inkscape:connector-curvature="0"
         id="path4257"
         d="m 55.052804,582.77675 c 14.511566,-21.16591 33.000024,-41.56146 53.236626,-58.72802 15.84789,-13.44365 33.85403,-25.66479 52.4375,-35.59043 26.52665,-14.16819 55.55817,-24.34533 84.7659,-29.71512 12.31696,-2.26445 23.57754,-3.5938 39.1716,-4.62436 3.93999,-0.26038 12.74034,-0.74379 13.59375,-0.74672 l 0.46875,-0.002 0,65.5 0,65.5 -122.38341,0 -122.383407,0 1.092691,-1.59375 0,0 z"
         style="fill:#515000;fill-opacity:1;stroke:#b64200;stroke-width:0;stroke-linecap:butt;stroke-linejoin:round;stroke-miterlimit:4;stroke-dasharray:none;stroke-dashoffset:0;stroke-opacity:1" />
      <path
         inkscape:connector-curvature="0"
         id="path4259"
         d="m 92.521625,537.22581 c 0.06077,-0.0573 0.503261,-0.48285 0.98332,-0.94579 6.392462,-6.16448 13.858015,-12.69306 21.113765,-18.46386 4.12577,-3.28139 8.95591,-6.91631 12.98025,-9.76827 l 0.27443,-0.19448 0.60586,0 0.60586,0 -1.04111,0.74095 c -11.44909,8.14831 -22.40078,17.16865 -32.593795,26.84582 -0.576892,0.54769 -1.257615,1.19717 -1.512719,1.44328 l -0.463824,0.44746 -0.531261,-5.1e-4 -0.531262,-5.1e-4 0.110486,-0.10409 0,0 z"
         style="fill:#515000;fill-opacity:1;stroke:#b64200;stroke-width:0;stroke-linecap:butt;stroke-linejoin:round;stroke-miterlimit:4;stroke-dasharray:none;stroke-dashoffset:0;stroke-opacity:1" />
      <path
         inkscape:connector-curvature="0"
         id="path4261"
         d="m 128.00631,507.77751 c 0.0829,-0.0732 1.52019,-1.06774 1.54318,-1.06774 0.0129,0 0.0235,0.14517 0.0235,0.32261 0,0.17744 0.0194,0.34201 0.0431,0.36571 0.028,0.028 -0.0534,0.10852 -0.23227,0.22981 l -0.27535,0.18672 -0.57207,0 c -0.31464,0 -0.55318,-0.0167 -0.53008,-0.0371 z"
         style="fill:#515000;fill-opacity:1;stroke:#b64200;stroke-width:0;stroke-linecap:butt;stroke-linejoin:round;stroke-miterlimit:4;stroke-dasharray:none;stroke-dashoffset:0;stroke-opacity:1" />
      <path
         inkscape:connector-curvature="0"
         id="path4267"
         d="m 35.318202,613.91195 c 0.191288,-0.36953 0.783171,-1.4875 1.315296,-2.48437 14.285626,-26.76248 32.514876,-51.14939 54.207038,-72.51764 l 1.600003,-1.57611 0.483947,0 0.483947,0 -3.0527,3.04732 c -3.376069,3.37013 -6.241304,6.34201 -8.99294,9.32768 -17.127929,18.58466 -31.751708,39.10714 -43.667401,61.28125 -0.775827,1.44375 -1.518128,2.84297 -1.649557,3.10937 l -0.238962,0.48438 -0.418234,0 -0.418233,0 0.347796,-0.67188 0,0 z"
         style="fill:#515000;fill-opacity:1;stroke:#b64200;stroke-width:0;stroke-linecap:butt;stroke-linejoin:round;stroke-miterlimit:4;stroke-dasharray:none;stroke-dashoffset:0;stroke-opacity:1" />
      <path
         inkscape:connector-curvature="0"
         id="path4269"
         d="m 18.728004,651.97445 c 0.02365,-0.0602 0.290994,-0.79844 0.594106,-1.64062 3.848493,-10.69291 8.478983,-21.47283 13.718678,-31.9375 0.938036,-1.87344 1.758019,-3.49748 1.822183,-3.60898 0.112177,-0.19494 0.131883,-0.20275 0.512496,-0.20313 0.217709,-2.2e-4 0.386459,0.0222 0.375,0.0497 -0.01146,0.0276 -0.894899,1.79239 -1.963201,3.92187 -5.154057,10.27373 -9.804047,21.06531 -13.564932,31.48115 l -0.739073,2.04688 -0.399125,0 c -0.354832,0 -0.394354,-0.0121 -0.356132,-0.10938 z"
         style="fill:#515000;fill-opacity:1;stroke:#b64200;stroke-width:0;stroke-linecap:butt;stroke-linejoin:round;stroke-miterlimit:4;stroke-dasharray:none;stroke-dashoffset:0;stroke-opacity:1" />
      <path
         inkscape:connector-curvature="0"
         id="path4271"
         d="m 4.6020055,709.3807 c 0.018857,-0.11172 0.1763081,-1.15937 0.349891,-2.32812 2.2479708,-15.13581 5.8922295,-30.79019 10.6643425,-45.81008 0.588157,-1.85119 2.637139,-7.97784 2.92153,-8.73567 l 0.147017,-0.39175 0.381799,-0.0186 c 0.209989,-0.0102 0.381799,-0.002 0.381799,0.019 0,0.0207 -0.31262,0.94314 -0.694711,2.04985 -5.178519,14.99945 -9.0474901,29.66338 -11.8366417,44.8625 -0.4844411,2.6399 -1.2738264,7.35877 -1.5697952,9.38409 l -0.1712515,1.17188 -0.3041325,0 -0.3041324,0 0.034286,-0.20313 0,0 z"
         style="fill:#515000;fill-opacity:1;stroke:#b64200;stroke-width:0;stroke-linecap:butt;stroke-linejoin:round;stroke-miterlimit:4;stroke-dasharray:none;stroke-dashoffset:0;stroke-opacity:1" />
      <path
         inkscape:connector-curvature="0"
         id="path4273"
         d="m 2.4227553,774.4432 c -0.031534,-0.15832 -0.1107851,-1.33709 -0.286786,-4.26562 -1.17301018,-19.51808 -0.4442412,-39.29038 2.1585008,-58.5625 0.3070173,-2.27333 0.2359406,-2.03125 0.5964078,-2.03125 0.215928,0 0.2956092,0.0225 0.275967,0.0781 -0.015189,0.043 -0.1680281,1.10469 -0.3396431,2.35938 -1.341881,9.81057 -2.1348892,18.77288 -2.5328127,28.625 -0.3129609,7.74854 -0.2772931,17.4861 0.092031,25.125 0.1382919,2.86035 0.4468024,7.85005 0.5284496,8.54687 l 0.031123,0.26563 -0.2476136,0 c -0.2068185,0 -0.2522283,-0.0232 -0.2756236,-0.14063 l 0,0 z"
         style="fill:#515000;fill-opacity:1;stroke:#b64200;stroke-width:0;stroke-linecap:butt;stroke-linejoin:round;stroke-miterlimit:4;stroke-dasharray:none;stroke-dashoffset:0;stroke-opacity:1" />
      <path
         inkscape:connector-curvature="0"
         id="path4275"
         d="m 9.2365994,819.47445 c -0.01799,-0.0602 -0.1872781,-0.79844 -0.3761975,-1.64062 -3.0297879,-13.50659 -5.1153373,-27.18165 -6.2542396,-41.00939 -0.2033171,-2.46853 -0.2126978,-2.24061 0.092222,-2.24061 0.205223,0 0.25,0.0216 0.25,0.1205 0,0.19413 0.2401988,3.02124 0.4092656,4.817 1.1995226,12.74082 3.2209559,25.31454 6.1292244,38.125 0.2224119,0.97968 0.416355,1.8164 0.4309856,1.85937 0.019116,0.0561 -0.068394,0.0781 -0.3109756,0.0781 -0.2673744,0 -0.3443787,-0.0228 -0.3702844,-0.10938 l 0,0 z"
         style="fill:#515000;fill-opacity:1;stroke:#b64200;stroke-width:0;stroke-linecap:butt;stroke-linejoin:round;stroke-miterlimit:4;stroke-dasharray:none;stroke-dashoffset:0;stroke-opacity:1" />
      <path
         inkscape:connector-curvature="0"
         id="path4277"
         d="m 20.542334,857.0057 c -0.01492,-0.043 -0.199676,-0.54219 -0.41057,-1.10937 -3.654596,-9.82888 -6.965131,-20.52171 -9.558992,-30.875 -0.398872,-1.59209 -1.3118882,-5.36148 -1.3118882,-5.41614 0,-0.0118 0.1504077,-0.0214 0.3342393,-0.0214 l 0.3342393,0 0.3272186,1.35937 c 2.807413,11.66292 6.50254,23.81113 10.592468,34.82412 0.260884,0.70249 0.474335,1.28608 0.474335,1.29688 0,0.0108 -0.169633,0.0196 -0.376961,0.0196 -0.245435,0 -0.386427,-0.0273 -0.404089,-0.0781 z"
         style="fill:#515000;fill-opacity:1;stroke:#b64200;stroke-width:0;stroke-linecap:butt;stroke-linejoin:round;stroke-miterlimit:4;stroke-dasharray:none;stroke-dashoffset:0;stroke-opacity:1" />
      <path
         inkscape:connector-curvature="0"
         id="path4279"
         d="M 42.959579,903.84945 C 36.806484,893.36716 31.86649,883.77167 27.136764,873.11508 24.935782,868.15602 22.238895,861.58549 20.754303,857.56523 l -0.179965,-0.48734 0.385946,0.0186 0.385947,0.0186 0.582452,1.53125 c 3.885972,10.21611 8.641548,20.99797 12.972467,29.41123 2.278068,4.42538 4.913476,9.19602 7.607661,13.77145 0.797971,1.35516 1.49374,2.52938 1.546153,2.60938 l 0.0953,0.14544 -0.379801,0 -0.379802,0 -0.431078,-0.73438 0,0 z"
         style="fill:#515000;fill-opacity:1;stroke:#b64200;stroke-width:0;stroke-linecap:butt;stroke-linejoin:round;stroke-miterlimit:4;stroke-dasharray:none;stroke-dashoffset:0;stroke-opacity:1" />
      <path
         inkscape:connector-curvature="0"
         id="path4281"
         d="m 58.351275,927.364 c -0.239025,-0.31597 -1.83949,-2.56016 -2.6816,-3.76017 -4.033163,-5.7473 -8.003707,-11.85141 -11.491628,-17.66662 l -0.801847,-1.33688 0.392008,-0.011 0.392008,-0.011 0.394508,0.65186 c 2.91318,4.81358 7.18852,11.47763 9.214692,14.36311 2.262288,3.22173 4.363568,5.68033 5.195848,6.07938 0.205196,0.0984 0.230455,0.0922 0.57835,-0.1424 0.667775,-0.45024 6.847266,-4.86503 10.613825,-7.58279 0.540826,-0.39024 0.99575,-0.71712 1.010941,-0.7264 0.02176,-0.0133 0.02762,0.0815 0.02762,0.44645 l 0,0.46333 -6.395903,4.65159 -6.395903,4.65158 -0.05292,-0.0699 0,0 z"
         style="fill:#515000;fill-opacity:1;stroke:#b64200;stroke-width:0;stroke-linecap:butt;stroke-linejoin:round;stroke-miterlimit:4;stroke-dasharray:none;stroke-dashoffset:0;stroke-opacity:1" />
      <path
         inkscape:connector-curvature="0"
         id="path4287"
         d="m 71.218999,917.72477 c -2.35e-4,-0.21122 -0.0082,-0.41283 -0.01761,-0.44802 -0.0148,-0.0551 0.582101,-0.4963 4.289489,-3.17074 6.125025,-4.41847 19.027458,-13.7538 27.166052,-19.65553 3.82421,-2.77314 7.15351,-5.18734 7.39843,-5.36488 l 0.44532,-0.3228 0,0.38769 0,0.38769 -19.414063,14.11855 c -10.677734,7.7652 -19.516015,14.1936 -19.640625,14.28532 l -0.226562,0.16676 -4.27e-4,-0.38404 z"
         style="fill:#515000;fill-opacity:1;stroke:#b64200;stroke-width:0;stroke-linecap:butt;stroke-linejoin:round;stroke-miterlimit:4;stroke-dasharray:none;stroke-dashoffset:0;stroke-opacity:1" />
      <path
         inkscape:connector-curvature="0"
         id="path4289"
         d="m 110.51904,889.13164 5.3e-4,-0.38466 9.25729,-6.71148 9.25728,-6.71148 0.009,0.3641 c 0.005,0.20025 0.005,0.36692 0,0.37036 -0.005,0.003 -4.15728,3.02222 -9.22759,6.70839 -5.07031,3.68616 -9.23633,6.71275 -9.25781,6.72577 -0.0304,0.0184 -0.0389,-0.0614 -0.0385,-0.361 z"
         style="fill:#515000;fill-opacity:1;stroke:#b64200;stroke-width:0;stroke-linecap:butt;stroke-linejoin:round;stroke-miterlimit:4;stroke-dasharray:none;stroke-dashoffset:0;stroke-opacity:1" />
      <path
         inkscape:connector-curvature="0"
         id="path4291"
         d="m 129.05045,875.68038 6.2e-4,-0.3709 1.78844,-1.29546 c 0.98364,-0.71251 8.08462,-5.8703 15.77994,-11.46176 l 13.99151,-10.16629 0.47637,0.009 0.47636,0.009 -16.15537,11.74795 c -8.88545,6.46138 -16.20107,11.78218 -16.25693,11.82402 l -0.10157,0.0761 6.3e-4,-0.37089 z"
         style="fill:#515000;fill-opacity:1;stroke:#b64200;stroke-width:0;stroke-linecap:butt;stroke-linejoin:round;stroke-miterlimit:4;stroke-dasharray:none;stroke-dashoffset:0;stroke-opacity:1" />
      <path
         inkscape:connector-curvature="0"
         id="path4293"
         d="m 160.66602,852.36498 c 6e-4,-0.0133 2.91505,-2.14045 6.47656,-4.72691 3.56152,-2.58647 10.51395,-7.63879 15.44987,-11.22739 l 8.97438,-6.52473 0.46618,0.009 0.46618,0.009 -15.44735,11.23437 -15.44736,11.23438 -0.46977,0.009 c -0.25838,0.005 -0.46929,-0.002 -0.46869,-0.0156 l 0,0 z"
         style="fill:#515000;fill-opacity:1;stroke:#b64200;stroke-width:0;stroke-linecap:butt;stroke-linejoin:round;stroke-miterlimit:4;stroke-dasharray:none;stroke-dashoffset:0;stroke-opacity:1" />
      <path
         inkscape:connector-curvature="0"
         id="path4295"
         d="m 191.63443,829.85844 c 0.006,-0.017 10.82087,-7.89273 24.0333,-17.50167 l 24.02259,-17.4708 0.46676,0.009 0.46676,0.009 -24.04101,17.48437 -24.04102,17.48438 -0.45904,0.009 c -0.2924,0.006 -0.45516,-0.003 -0.44834,-0.0222 l 0,0 z"
         style="fill:#515000;fill-opacity:1;stroke:#b64200;stroke-width:0;stroke-linecap:butt;stroke-linejoin:round;stroke-miterlimit:4;stroke-dasharray:none;stroke-dashoffset:0;stroke-opacity:1" />
      <path
         inkscape:connector-curvature="0"
         id="path4297"
         d="m 239.75218,794.86042 c 0.006,-0.0167 10.04855,-7.3303 22.31674,-16.25241 l 22.30579,-16.22202 0.46873,0.009 0.46873,0.009 -22.32139,16.23437 -22.3214,16.23438 -0.46408,0.009 c -0.29131,0.006 -0.46,-0.002 -0.45312,-0.021 z"
         style="fill:#515000;fill-opacity:1;stroke:#b64200;stroke-width:0;stroke-linecap:butt;stroke-linejoin:round;stroke-miterlimit:4;stroke-dasharray:none;stroke-dashoffset:0;stroke-opacity:1" />
      <path
         inkscape:connector-curvature="0"
         id="path4299"
         d="m 293.5534,755.70866 c 0.11353,-0.082 1.34743,-0.97887 2.74201,-1.99293 l 2.5356,-1.84375 1.9e-4,-1.86719 1.6e-4,-1.86719 0.42188,0 0.42187,0 -0.001,1.91407 -10e-4,1.91406 -2.66772,1.9375 -2.66773,1.9375 -0.49512,0.009 -0.49512,0.009 0.20641,-0.14919 z"
         style="fill:#515000;fill-opacity:1;stroke:#b64200;stroke-width:0;stroke-linecap:butt;stroke-linejoin:round;stroke-miterlimit:4;stroke-dasharray:none;stroke-dashoffset:0;stroke-opacity:1" />
      <path
         inkscape:connector-curvature="0"
         id="path4301"
         d="m 284.42635,762.36417 c 10e-4,-0.0201 8.74095,-6.38691 8.85954,-6.45397 0.0236,-0.0134 0.25054,-0.0204 0.50428,-0.0156 l 0.46134,0.009 -4.45806,3.24219 -4.45806,3.24218 -0.45514,0 c -0.25032,0 -0.45458,-0.0105 -0.4539,-0.0234 z"
         style="fill:#515000;fill-opacity:1;stroke:#b64200;stroke-width:0;stroke-linecap:butt;stroke-linejoin:round;stroke-miterlimit:4;stroke-dasharray:none;stroke-dashoffset:0;stroke-opacity:1" />
      <path
         inkscape:connector-curvature="0"
         id="path4303"
         d="m 298.83136,735.24698 0,-12.85938 0.42188,0 0.42187,0 0,12.85938 0,12.85937 -0.42187,0 -0.42188,0 0,-12.85937 z"
         style="fill:#515000;fill-opacity:1;stroke:#b64200;stroke-width:0;stroke-linecap:butt;stroke-linejoin:round;stroke-miterlimit:4;stroke-dasharray:none;stroke-dashoffset:0;stroke-opacity:1" />
      <path
         inkscape:connector-curvature="0"
         id="path4305"
         d="m 298.83136,706.1376 0,-16.25 0.42188,0 0.42187,0 0,16.25 0,16.25 -0.42187,0 -0.42188,0 0,-16.25 z"
         style="fill:#515000;fill-opacity:1;stroke:#b64200;stroke-width:0;stroke-linecap:butt;stroke-linejoin:round;stroke-miterlimit:4;stroke-dasharray:none;stroke-dashoffset:0;stroke-opacity:1" />
      <path
         inkscape:connector-curvature="0"
         id="path4307"
         d="m 298.83136,676.1376 0,-13.75 0.42188,0 0.42187,0 0,13.75 0,13.75 -0.42187,0 -0.42188,0 0,-13.75 z"
         style="fill:#515000;fill-opacity:1;stroke:#b64200;stroke-width:0;stroke-linecap:butt;stroke-linejoin:round;stroke-miterlimit:4;stroke-dasharray:none;stroke-dashoffset:0;stroke-opacity:1" />
      <path
         inkscape:connector-curvature="0"
         id="path4309"
         d="m 298.83136,647.3876 0,-15 0.42188,0 0.42187,0 0,15 0,15 -0.42187,0 -0.42188,0 0,-15 z"
         style="fill:#515000;fill-opacity:1;stroke:#b64200;stroke-width:0;stroke-linecap:butt;stroke-linejoin:round;stroke-miterlimit:4;stroke-dasharray:none;stroke-dashoffset:0;stroke-opacity:1" />
      <path
         inkscape:connector-curvature="0"
         id="path4311"
         d="m 298.83136,616.1376 0,-16.25 0.42188,0 0.42187,0 0,16.25 0,16.25 -0.42187,0 -0.42188,0 0,-16.25 z"
         style="fill:#515000;fill-opacity:1;stroke:#b64200;stroke-width:0;stroke-linecap:butt;stroke-linejoin:round;stroke-miterlimit:4;stroke-dasharray:none;stroke-dashoffset:0;stroke-opacity:1" />
      <path
         inkscape:connector-curvature="0"
         id="path4313"
         d="m 298.83136,582.3876 0,-17.5 0.42188,0 0.42187,0 0,17.5 0,17.5 -0.42187,0 -0.42188,0 0,-17.5 z"
         style="fill:#515000;fill-opacity:1;stroke:#b64200;stroke-width:0;stroke-linecap:butt;stroke-linejoin:round;stroke-miterlimit:4;stroke-dasharray:none;stroke-dashoffset:0;stroke-opacity:1" />
      <path
         inkscape:connector-curvature="0"
         id="path4315"
         d="m 298.83136,549.8876 0,-15 0.42188,0 0.42187,0 0,15 0,15 -0.42187,0 -0.42188,0 0,-15 z"
         style="fill:#515000;fill-opacity:1;stroke:#b64200;stroke-width:0;stroke-linecap:butt;stroke-linejoin:round;stroke-miterlimit:4;stroke-dasharray:none;stroke-dashoffset:0;stroke-opacity:1" />
      <path
         inkscape:connector-curvature="0"
         id="path4317"
         d="m 298.83136,518.6376 0,-16.25 0.42188,0 0.42187,0 0,16.25 0,16.25 -0.42187,0 -0.42188,0 0,-16.25 z"
         style="fill:#515000;fill-opacity:1;stroke:#b64200;stroke-width:0;stroke-linecap:butt;stroke-linejoin:round;stroke-miterlimit:4;stroke-dasharray:none;stroke-dashoffset:0;stroke-opacity:1" />
      <path
         inkscape:connector-curvature="0"
         id="path4319"
         d="m 298.83136,488.6376 0,-13.75 0.42188,0 0.42187,0 0,13.75 0,13.75 -0.42187,0 -0.42188,0 0,-13.75 z"
         style="fill:#515000;fill-opacity:1;stroke:#b64200;stroke-width:0;stroke-linecap:butt;stroke-linejoin:round;stroke-miterlimit:4;stroke-dasharray:none;stroke-dashoffset:0;stroke-opacity:1" />
      <path
         inkscape:export-filename="/home/mat/Pictures/Budget.png"
         inkscape:export-ydpi="90"
         inkscape:export-xdpi="90"
         inkscape:connector-curvature="0"
         id="path4321"
         d="m 298.83136,464.0751 0,-10.8125 -0.0677,0 c -0.1093,0 -8.74221,0.43292 -9.66665,0.48476 -2.85507,0.1601 -7.25346,0.46369 -11.07813,0.76466 -2.23419,0.17582 -7.29448,0.60846 -7.46875,0.63856 l -0.0781,0.0135 0,-0.35838 c 0,-0.33321 0.004,-0.35929 0.0625,-0.37137 0.32766,-0.0681 6.07875,-0.55689 8.8125,-0.74894 6.25293,-0.43928 13.81623,-0.73285 18.92969,-0.73476 l 1.39843,-5.3e-4 0,10.96875 0,10.96875 -0.42187,0 -0.42188,0 0,-10.8125 z"
         style="fill:#515000;fill-opacity:1;stroke:#b64200;stroke-width:0;stroke-linecap:butt;stroke-linejoin:round;stroke-miterlimit:4;stroke-dasharray:none;stroke-dashoffset:0;stroke-opacity:1" />
      <path
         inkscape:connector-curvature="0"
         id="path4323"
         d="m 299.80895,752.09245 77.67782,289.50475"
         style="fill:none;stroke:#000000;stroke-width:1.00176895px;stroke-linecap:butt;stroke-linejoin:miter;stroke-opacity:1" />
      <path
         inkscape:connector-curvature="0"
         id="path4341"
         d="M 291.26212,1050.669 C 208.12267,1047.7426 131.12878,1011.4492 76.583302,949.4737 69.719706,941.67516 59.233274,928.5845 59.57722,928.24428 c 0.101697,-0.10059 54.06731,-39.36919 119.9236,-87.26355 102.11049,-74.26044 119.796,-86.94639 120.12794,-86.16867 0.53628,1.25644 76.40589,284.17404 76.53199,285.38754 0.0892,0.8581 -0.74155,1.1742 -6.89863,2.6251 -14.20329,3.3469 -32.07277,6.0799 -46.5,7.1118 -8.02401,0.5739 -24.87341,0.9658 -31.5,0.7325 z"
         style="fill:#d45400;fill-opacity:1;stroke:#ff6e0b;stroke-width:0;stroke-linecap:butt;stroke-linejoin:round;stroke-miterlimit:4;stroke-dasharray:none;stroke-dashoffset:0;stroke-opacity:1" />
      <path
         inkscape:connector-curvature="0"
         id="path4417"
         d="m 65.961424,937.41259 c -1.672824,-2.10608 -4.135845,-5.32698 -5.923903,-7.74671 l -1.034302,-1.39969 11.026383,-8.01919 c 6.06451,-4.41056 11.031356,-8.0192 11.037435,-8.0192 0.0061,0 0.01076,0.0771 0.01039,0.17126 l -6.63e-4,0.17125 -5.725179,4.1653 c -9.206967,6.69845 -15.758003,11.4793 -15.782145,11.51757 -0.07226,0.11456 0.568733,1.06809 1.927694,2.86763 1.195308,1.58283 2.890545,3.73906 4.629859,5.88888 0.412975,0.51044 0.785022,0.97034 0.826771,1.02199 l 0.07591,0.0939 -0.251254,-3.7e-4 -0.251254,-3.8e-4 -0.565737,-0.71226 0,1e-5 z"
         style="fill:#d45400;fill-opacity:1;stroke:#ff6e0b;stroke-width:0;stroke-linecap:butt;stroke-linejoin:round;stroke-miterlimit:4;stroke-dasharray:none;stroke-dashoffset:0;stroke-opacity:1" />
      <path
         inkscape:connector-curvature="0"
         id="path4419"
         d="m 81.078093,912.387 0,-0.17528 12.589815,-9.15473 c 6.924402,-5.0351 12.601212,-9.16345 12.615142,-9.1741 0.0139,-0.0106 0.12802,-0.0165 0.25355,-0.013 l 0.22823,0.006 -3.88852,2.8277 c -2.13869,1.55523 -7.885892,5.73676 -12.771557,9.29229 -4.885666,3.55553 -8.915346,6.48744 -8.954845,6.51535 l -0.07182,0.0508 0,-0.17527 z"
         style="fill:#d45400;fill-opacity:1;stroke:#ff6e0b;stroke-width:0;stroke-linecap:butt;stroke-linejoin:round;stroke-miterlimit:4;stroke-dasharray:none;stroke-dashoffset:0;stroke-opacity:1" />
      <path
         inkscape:connector-curvature="0"
         id="path4423"
         d="m 106.34672,893.83429 c 0.024,-0.017 5.76618,-4.19312 12.76046,-9.28037 l 12.71687,-9.24955 0.23092,-4e-4 c 0.13641,-2.3e-4 0.22232,0.008 0.20992,0.0193 -0.0115,0.0109 -5.75075,4.18721 -12.75378,9.28078 l -12.73279,9.26105 -0.23759,0 c -0.20937,0 -0.23242,-0.004 -0.19401,-0.0308 l 0,0 z"
         style="fill:#d45400;fill-opacity:1;stroke:#ff6e0b;stroke-width:0;stroke-linecap:butt;stroke-linejoin:round;stroke-miterlimit:4;stroke-dasharray:none;stroke-dashoffset:0;stroke-opacity:1" />
      <path
         inkscape:connector-curvature="0"
         id="path4425"
         d="m 131.86885,875.27274 c 0.024,-0.017 4.83645,-3.51696 10.69439,-7.77777 l 10.65079,-7.74695 0.23018,-4e-4 c 0.1266,-2.2e-4 0.22604,0.004 0.22097,0.009 -0.005,0.005 -4.81543,3.50514 -10.68969,7.77817 l -10.68049,7.76915 -0.23487,0 c -0.20703,0 -0.2297,-0.004 -0.19128,-0.0308 l 0,0 z"
         style="fill:#d45400;fill-opacity:1;stroke:#ff6e0b;stroke-width:0;stroke-linecap:butt;stroke-linejoin:round;stroke-miterlimit:4;stroke-dasharray:none;stroke-dashoffset:0;stroke-opacity:1" />
      <path
         inkscape:connector-curvature="0"
         id="path4427"
         d="m 153.22545,859.74073 c 0.006,-0.005 5.01236,-3.64773 11.12551,-8.09453 l 11.11484,-8.08509 0.2429,-0.007 0.24289,-0.007 -0.0993,0.0718 c -0.0546,0.0395 -5.06117,3.68205 -11.12572,8.09454 l -11.02644,8.0227 -0.2427,0.007 c -0.13348,0.004 -0.23789,0.003 -0.23202,-0.002 l 0,0 z"
         style="fill:#d45400;fill-opacity:1;stroke:#ff6e0b;stroke-width:0;stroke-linecap:butt;stroke-linejoin:round;stroke-miterlimit:4;stroke-dasharray:none;stroke-dashoffset:0;stroke-opacity:1" />
      <path
         inkscape:connector-curvature="0"
         id="path4429"
         d="m 175.54568,843.50927 c 0.0475,-0.0368 23.01607,-16.7415 23.26712,-16.92186 0.10547,-0.0758 0.10555,-0.0758 0.32869,-0.0695 l 0.2232,0.006 -4.27071,3.10457 c -2.34889,1.70751 -7.60665,5.52995 -11.68392,8.4943 -4.93747,3.58975 -7.43916,5.39577 -7.49091,5.40781 -0.0427,0.01 -0.1561,0.0183 -0.25193,0.0186 -0.17365,5.3e-4 -0.17406,3.9e-4 -0.12154,-0.0403 l 0,0 z"
         style="fill:#d45400;fill-opacity:1;stroke:#ff6e0b;stroke-width:0;stroke-linecap:butt;stroke-linejoin:round;stroke-miterlimit:4;stroke-dasharray:none;stroke-dashoffset:0;stroke-opacity:1" />
      <path
         inkscape:connector-curvature="0"
         id="path4431"
         d="m 198.9237,826.50524 c 0.005,-0.004 4.9015,-3.56671 10.88097,-7.91628 l 10.87177,-7.90832 0.25337,-0.007 c 0.25242,-0.007 0.25317,-0.007 0.19888,0.0349 -0.03,0.023 -1.84934,1.34465 -4.04303,2.93701 -2.19369,1.59237 -7.07497,5.13901 -10.84729,7.88142 l -6.85877,4.98621 -0.23256,0 c -0.1279,0 -0.22841,-0.004 -0.22334,-0.008 z"
         style="fill:#d45400;fill-opacity:1;stroke:#ff6e0b;stroke-width:0;stroke-linecap:butt;stroke-linejoin:round;stroke-miterlimit:4;stroke-dasharray:none;stroke-dashoffset:0;stroke-opacity:1" />
      <path
         inkscape:connector-curvature="0"
         id="path4433"
         d="m 220.75632,810.6288 c 0.029,-0.0224 5.58139,-4.06118 12.33868,-8.97498 6.75729,-4.91381 12.3183,-8.95863 12.3578,-8.98849 l 0.0718,-0.0543 0,0.19597 0,0.19597 -1.98203,1.43631 c -1.09018,0.78997 -6.56665,4.76485 -12.17,8.83306 l -10.18791,7.39675 -0.24052,2.5e-4 c -0.23812,2.5e-4 -0.24,-1.5e-4 -0.18783,-0.0405 l 0,0 z"
         style="fill:#d45400;fill-opacity:1;stroke:#ff6e0b;stroke-width:0;stroke-linecap:butt;stroke-linejoin:round;stroke-miterlimit:4;stroke-dasharray:none;stroke-dashoffset:0;stroke-opacity:1" />
      <path
         inkscape:connector-curvature="0"
         id="path4435"
         d="m 245.52925,792.80087 0.006,-0.19476 12.84529,-9.34199 c 7.06491,-5.13809 12.84965,-9.34198 12.85498,-9.34198 0.005,0 0.01,0.10853 0.01,0.24118 l 0,0.24119 -0.10496,0.0761 c -0.0577,0.0419 -2.07381,1.49636 -4.48018,3.23223 -4.57379,3.29934 -11.47962,8.29314 -17.52299,12.67137 -1.9567,1.41756 -3.57046,2.58504 -3.58614,2.59439 -0.0226,0.0135 -0.0272,-0.0234 -0.0221,-0.17774 z"
         style="fill:#d45400;fill-opacity:1;stroke:#ff6e0b;stroke-width:0;stroke-linecap:butt;stroke-linejoin:round;stroke-miterlimit:4;stroke-dasharray:none;stroke-dashoffset:0;stroke-opacity:1" />
      <path
         inkscape:connector-curvature="0"
         id="path4437"
         d="m 271.24562,774.14712 0,-0.23905 11.52739,-8.38434 c 6.34007,-4.61138 11.53564,-8.38764 11.54573,-8.3917 0.0101,-0.004 0.0182,0.18986 0.0181,0.4309 l -2.4e-4,0.43826 -1.04384,0.71765 c -3.32753,2.2877 -10.42983,7.33205 -18.95701,13.46404 -1.68515,1.21181 -3.06981,2.2033 -3.07702,2.2033 -0.007,0 -0.0131,-0.10758 -0.0131,-0.23906 z"
         style="fill:#d45400;fill-opacity:1;stroke:#ff6e0b;stroke-width:0;stroke-linecap:butt;stroke-linejoin:round;stroke-miterlimit:4;stroke-dasharray:none;stroke-dashoffset:0;stroke-opacity:1" />
      <path
         inkscape:connector-curvature="0"
         id="path4439"
         d="m 303.99608,770.78988 c -0.44135,-1.63767 -1.37866,-5.10056 -2.0829,-7.69531 -1.9158,-7.05874 -2.25469,-8.28258 -2.30225,-8.31433 -0.0942,-0.0629 -0.55675,0.15257 -1.32952,0.61933 -0.72512,0.43797 -2.48196,1.58957 -3.54503,2.32375 -0.18923,0.13069 -0.35649,0.24478 -0.37168,0.25352 -0.0217,0.0125 -0.0276,-0.0782 -0.0276,-0.42329 l 0,-0.43919 2.17837,-1.58438 2.17836,-1.58437 0.54251,0.006 0.54252,0.006 2.58236,9.62328 c 1.4203,5.29281 2.61623,9.75006 2.65762,9.90502 l 0.0752,0.28174 -0.14776,0 -0.14776,0 -0.80247,-2.97758 z"
         style="fill:#d45400;fill-opacity:1;stroke:#ff6e0b;stroke-width:0;stroke-linecap:butt;stroke-linejoin:round;stroke-miterlimit:4;stroke-dasharray:none;stroke-dashoffset:0;stroke-opacity:1" />
      <path
         inkscape:connector-curvature="0"
         id="path4441"
         d="m 298.78114,753.88361 c 0.3017,-0.2328 0.80155,-0.57813 0.81561,-0.56349 0.01,0.0102 0.0527,0.15034 0.0953,0.31137 l 0.0775,0.29278 -0.52057,0 c -0.50985,0 -0.51948,-8.3e-4 -0.46786,-0.0407 z"
         style="fill:#d45400;fill-opacity:1;stroke:#ff6e0b;stroke-width:0;stroke-linecap:butt;stroke-linejoin:round;stroke-miterlimit:4;stroke-dasharray:none;stroke-dashoffset:0;stroke-opacity:1" />
      <path
         inkscape:connector-curvature="0"
         id="path4443"
         d="m 309.6833,791.88155 c -0.0229,-0.0642 -4.8722,-18.0701 -4.8722,-18.09106 0,-0.0136 0.0579,-0.023 0.14087,-0.023 l 0.14088,0 0.0679,0.24859 c 0.0373,0.13673 1.12785,4.20121 2.42335,9.03218 1.2955,4.83098 2.36066,8.801 2.36702,8.82227 0.0101,0.0339 -0.005,0.0387 -0.12319,0.0387 -0.0878,0 -0.1382,-0.01 -0.14463,-0.0276 l 0,0 z"
         style="fill:#d45400;fill-opacity:1;stroke:#ff6e0b;stroke-width:0;stroke-linecap:butt;stroke-linejoin:round;stroke-miterlimit:4;stroke-dasharray:none;stroke-dashoffset:0;stroke-opacity:1" />
      <path
         inkscape:connector-curvature="0"
         id="path4445"
         d="m 315.14395,812.17772 c -0.006,-0.0213 -0.77706,-2.88754 -1.71268,-6.36949 -0.93563,-3.48194 -2.15914,-8.02959 -2.71893,-10.10587 -0.55978,-2.07628 -1.01779,-3.77914 -1.01779,-3.78413 0,-0.005 0.0594,-0.009 0.13197,-0.009 l 0.13196,0 0.0332,0.11601 c 0.0183,0.0638 1.23198,4.58569 2.69717,10.04865 1.4652,5.46295 2.6775,9.97987 2.694,10.0376 l 0.03,0.10496 -0.12867,0 c -0.10342,0 -0.13095,-0.008 -0.14024,-0.0387 l 0,0 z"
         style="fill:#d45400;fill-opacity:1;stroke:#ff6e0b;stroke-width:0;stroke-linecap:butt;stroke-linejoin:round;stroke-miterlimit:4;stroke-dasharray:none;stroke-dashoffset:0;stroke-opacity:1" />
      <path
         inkscape:connector-curvature="0"
         id="path4447"
         d="m 320.87004,833.47931 c -0.0192,-0.0699 -1.30965,-4.8697 -2.86759,-10.66627 -1.55793,-5.79657 -2.83756,-10.55214 -2.84362,-10.56793 -0.008,-0.0216 0.0219,-0.0287 0.12153,-0.0287 0.1262,0 0.13327,0.003 0.14765,0.0608 0.008,0.0334 1.29152,4.81882 2.85158,10.63422 1.56006,5.8154 2.84313,10.6008 2.85126,10.63422 0.0148,0.0607 0.0146,0.0608 -0.10552,0.0608 l -0.12031,0 -0.035,-0.12706 z"
         style="fill:#d45400;fill-opacity:1;stroke:#ff6e0b;stroke-width:0;stroke-linecap:butt;stroke-linejoin:round;stroke-miterlimit:4;stroke-dasharray:none;stroke-dashoffset:0;stroke-opacity:1" />
      <path
         inkscape:connector-curvature="0"
         id="path4449"
         d="m 326.48834,854.40932 c 0,-0.0142 -2.29655,-8.57282 -4.25987,-15.8753 l -1.32186,-4.9166 0.11962,-0.007 c 0.0658,-0.004 0.12168,-0.004 0.12419,0 0.003,0.004 1.25484,4.67029 2.78295,10.37023 1.52812,5.69995 2.78349,10.38094 2.78971,10.40221 0.01,0.0335 -0.005,0.0387 -0.11172,0.0387 -0.0677,0 -0.12302,-0.006 -0.12302,-0.0125 z"
         style="fill:#d45400;fill-opacity:1;stroke:#ff6e0b;stroke-width:0;stroke-linecap:butt;stroke-linejoin:round;stroke-miterlimit:4;stroke-dasharray:none;stroke-dashoffset:0;stroke-opacity:1" />
      <path
         inkscape:connector-curvature="0"
         id="path4451"
         d="m 330.72042,870.17152 c -0.005,-0.0152 -0.9448,-3.51785 -2.08833,-7.78369 -1.14353,-4.26585 -2.09273,-7.80378 -2.10933,-7.86208 l -0.0302,-0.106 0.12255,0.007 0.12256,0.007 2.08379,7.76713 c 1.14608,4.27192 2.09852,7.81933 2.11653,7.88314 l 0.0328,0.11601 -0.12058,0 c -0.0768,0 -0.12391,-0.01 -0.12975,-0.0276 z"
         style="fill:#d45400;fill-opacity:1;stroke:#ff6e0b;stroke-width:0;stroke-linecap:butt;stroke-linejoin:round;stroke-miterlimit:4;stroke-dasharray:none;stroke-dashoffset:0;stroke-opacity:1" />
      <path
         inkscape:connector-curvature="0"
         id="path4453"
         d="m 335.34927,887.42645 c 0,-0.005 -1.03884,-3.87963 -2.30854,-8.6111 -1.2697,-4.73148 -2.305,-8.60622 -2.30068,-8.61055 0.004,-0.004 0.0585,-10e-4 0.12032,0.007 0.0753,0.01 0.11612,0.0268 0.12355,0.0508 0.006,0.0197 1.04072,3.87417 2.29915,8.56538 1.25843,4.69121 2.2935,8.54688 2.30015,8.56814 0.0105,0.0336 -0.004,0.0387 -0.11093,0.0387 -0.0677,0 -0.12302,-0.004 -0.12302,-0.008 z"
         style="fill:#d45400;fill-opacity:1;stroke:#ff6e0b;stroke-width:0;stroke-linecap:butt;stroke-linejoin:round;stroke-miterlimit:4;stroke-dasharray:none;stroke-dashoffset:0;stroke-opacity:1" />
      <path
         inkscape:connector-curvature="0"
         id="path4455"
         d="m 340.54491,906.7864 c -0.0125,-0.0395 -0.67927,-2.52294 -1.48176,-5.51875 -0.80249,-2.99581 -1.96476,-7.33126 -2.58282,-9.63433 l -1.12374,-4.1874 0.10927,-0.007 c 0.0601,-0.004 0.11443,-0.002 0.12073,0.005 0.008,0.008 4.46828,16.60537 5.14134,19.13261 l 0.075,0.28174 -0.11768,0 c -0.11338,0 -0.11851,-0.003 -0.14038,-0.0718 z"
         style="fill:#d45400;fill-opacity:1;stroke:#ff6e0b;stroke-width:0;stroke-linecap:butt;stroke-linejoin:round;stroke-miterlimit:4;stroke-dasharray:none;stroke-dashoffset:0;stroke-opacity:1" />
      <path
         inkscape:connector-curvature="0"
         id="path4459"
         d="m 343.15141,916.51985 c -1.41484,-5.28352 -2.57683,-9.61882 -2.5822,-9.63402 -0.007,-0.02 0.0244,-0.0276 0.11329,-0.0276 l 0.12305,0 0.0218,0.0829 c 0.0839,0.31914 5.13211,19.13637 5.13967,19.15817 0.007,0.02 -0.0252,0.0275 -0.11678,0.0273 l -0.12637,-3.2e-4 -2.57244,-9.60639 z"
         style="fill:#d45400;fill-opacity:1;stroke:#ff6e0b;stroke-width:0;stroke-linecap:butt;stroke-linejoin:round;stroke-miterlimit:4;stroke-dasharray:none;stroke-dashoffset:0;stroke-opacity:1" />
      <path
         inkscape:connector-curvature="0"
         id="path4461"
         d="m 351.21683,946.6164 c -0.0121,-0.0456 -1.24483,-4.64702 -2.73945,-10.22543 -1.49462,-5.57841 -2.7242,-10.16991 -2.73238,-10.20333 -0.0149,-0.0607 -0.0148,-0.0608 0.10628,-0.0608 l 0.12118,0 0.0679,0.24859 c 0.1911,0.69986 5.42262,20.21115 5.43308,20.26303 0.0122,0.0605 0.0117,0.0608 -0.1112,0.0608 l -0.12344,0 -0.022,-0.0829 0,0 z"
         style="fill:#d45400;fill-opacity:1;stroke:#ff6e0b;stroke-width:0;stroke-linecap:butt;stroke-linejoin:round;stroke-miterlimit:4;stroke-dasharray:none;stroke-dashoffset:0;stroke-opacity:1" />
      <path
         inkscape:connector-curvature="0"
         id="path4463"
         d="m 357.89878,971.57506 c -0.006,-0.0152 -1.40153,-5.22817 -3.102,-11.5844 -1.70046,-6.35623 -3.19567,-11.94458 -3.32267,-12.41856 l -0.23092,-0.86179 0.12098,-0.007 c 0.0665,-0.004 0.12375,-0.004 0.12714,0 0.003,0.004 1.50518,5.59505 3.33732,12.42526 1.83215,6.83021 3.33578,12.43099 3.34142,12.44619 0.007,0.0202 -0.0262,0.0276 -0.1254,0.0276 -0.0883,0 -0.13921,-0.01 -0.14587,-0.0276 l 0,0 z"
         style="fill:#d45400;fill-opacity:1;stroke:#ff6e0b;stroke-width:0;stroke-linecap:butt;stroke-linejoin:round;stroke-miterlimit:4;stroke-dasharray:none;stroke-dashoffset:0;stroke-opacity:1" />
      <path
         inkscape:connector-curvature="0"
         id="path4465"
         d="m 360.3016,980.56828 c -1.30389,-4.87639 -2.37648,-8.88854 -2.38353,-8.91588 -0.0122,-0.0475 -0.007,-0.0497 0.12076,-0.0497 l 0.1336,0 0.0332,0.11601 c 0.0818,0.28568 4.74289,17.675 4.74289,17.69448 0,0.0121 -0.0616,0.0217 -0.1381,0.0216 l -0.13811,-2.9e-4 -2.37072,-8.86617 0,0 z"
         style="fill:#d45400;fill-opacity:1;stroke:#ff6e0b;stroke-width:0;stroke-linecap:butt;stroke-linejoin:round;stroke-miterlimit:4;stroke-dasharray:none;stroke-dashoffset:0;stroke-opacity:1" />
      <path
         inkscape:connector-curvature="0"
         id="path4467"
         d="m 367.40071,1007.1293 c -0.006,-0.015 -0.77502,-2.8964 -1.71,-6.4027 -0.93497,-3.50622 -1.98855,-7.45386 -2.34128,-8.77251 -0.35273,-1.31864 -0.64797,-2.42487 -0.65609,-2.4583 l -0.0148,-0.0608 0.1407,0 0.1407,0 2.34014,8.72282 c 1.28707,4.79759 2.35771,8.78499 2.3792,8.86099 l 0.0391,0.1381 -0.15381,0 c -0.10296,0 -0.15713,-0.01 -0.16386,-0.028 l 0,0 z"
         style="fill:#d45400;fill-opacity:1;stroke:#ff6e0b;stroke-width:0;stroke-linecap:butt;stroke-linejoin:round;stroke-miterlimit:4;stroke-dasharray:none;stroke-dashoffset:0;stroke-opacity:1" />
      <path
         inkscape:connector-curvature="0"
         id="path4469"
         d="m 372.65951,1026.8399 c -0.008,-0.022 -5.1905,-19.4409 -5.2395,-19.6333 -0.0122,-0.048 -0.007,-0.05 0.14442,-0.05 0.0864,0 0.15707,0.01 0.15707,0.012 0,0.011 5.24831,19.582 5.27233,19.6603 0.0106,0.034 -0.006,0.039 -0.15606,0.039 -0.11407,0 -0.17123,-0.01 -0.17826,-0.028 z"
         style="fill:#d45400;fill-opacity:1;stroke:#ff6e0b;stroke-width:0;stroke-linecap:butt;stroke-linejoin:round;stroke-miterlimit:4;stroke-dasharray:none;stroke-dashoffset:0;stroke-opacity:1" />
      <path
         inkscape:connector-curvature="0"
         id="path4471"
         d="m 362.0315,1044.4229 c 0.0122,0 0.41488,-0.089 0.89494,-0.1877 2.86359,-0.5884 6.97443,-1.5278 9.51279,-2.1736 1.14103,-0.2904 1.69102,-0.4453 2.2539,-0.6352 1.08396,-0.3655 1.47696,-0.6578 1.47546,-1.0976 -6.1e-4,-0.1771 -0.0645,-0.4431 -0.56609,-2.3575 -0.35686,-1.362 -2.80443,-10.6108 -2.88863,-10.9155 -0.0234,-0.085 -0.0426,-0.1614 -0.0426,-0.1701 0,-0.01 0.0745,-0.016 0.16547,-0.016 l 0.16547,0 0.0326,0.1148 c 0.0993,0.35 3.81549,14.2197 3.81931,14.2547 0.005,0.05 -0.3346,0.1422 -3.02273,0.8186 -3.34541,0.842 -6.75966,1.6406 -9.73982,2.2784 l -0.45904,0.098 -0.81154,0 c -0.44635,-9e-4 -0.8016,-0.01 -0.78945,-0.01 z"
         style="fill:#d45400;fill-opacity:1;stroke:#ff6e0b;stroke-width:0;stroke-linecap:butt;stroke-linejoin:round;stroke-miterlimit:4;stroke-dasharray:none;stroke-dashoffset:0;stroke-opacity:1" />
      <path
         inkscape:connector-curvature="0"
         id="path4473"
         d="m 330.09016,1049.4788 0,-0.175 0.39223,-0.038 c 0.85202,-0.083 3.7,-0.4019 5.16519,-0.5787 7.96449,-0.961 16.17576,-2.2567 23.94865,-3.7788 0.83607,-0.1637 1.7092,-0.3372 1.9403,-0.3856 l 0.42018,-0.088 0.82185,0 0.82184,0 -0.34251,0.076 c -0.67004,0.1478 -2.79351,0.585 -4.11006,0.8462 -7.70753,1.5292 -15.48652,2.7547 -23.29033,3.6692 -1.61119,0.1889 -3.98651,0.447 -5.09337,0.5535 -0.25523,0.025 -0.51128,0.051 -0.569,0.058 l -0.10497,0.013 0,-0.1749 z"
         style="fill:#d45400;fill-opacity:1;stroke:#ff6e0b;stroke-width:0;stroke-linecap:butt;stroke-linejoin:round;stroke-miterlimit:4;stroke-dasharray:none;stroke-dashoffset:0;stroke-opacity:1" />
      <path
         inkscape:connector-curvature="0"
         id="path4475"
         d="m 300.45797,1050.8981 0,-0.1879 0.5911,10e-5 c 0.90597,10e-5 4.90594,-0.081 7.64007,-0.1553 5.4062,-0.1465 10.05955,-0.3422 13.39083,-0.5633 1.87156,-0.1242 5.19155,-0.4032 7.18708,-0.604 l 0.82311,-0.083 0,0.1723 c 0,0.095 -0.007,0.1725 -0.0166,0.1726 -0.009,10e-5 -0.10109,0.01 -0.2044,0.021 -0.1033,0.012 -0.67506,0.066 -1.27058,0.121 -7.31681,0.6749 -14.358,1.0714 -21.79877,1.2277 -1.363,0.029 -4.44878,0.065 -5.5298,0.066 l -0.81207,3e-4 0,-0.1878 z"
         style="fill:#d45400;fill-opacity:1;stroke:#ff6e0b;stroke-width:0;stroke-linecap:butt;stroke-linejoin:round;stroke-miterlimit:4;stroke-dasharray:none;stroke-dashoffset:0;stroke-opacity:1" />
      <path
         inkscape:connector-curvature="0"
         id="path4477"
         d="m 297.13236,1051.0623 c -7.50333,-0.086 -15.14561,-0.4599 -22.59427,-1.1046 -1.51352,-0.131 -4.09474,-0.3734 -4.3476,-0.4083 l -0.0939,-0.013 0,-0.1644 c 0,-0.1087 0.009,-0.1644 0.0253,-0.1644 0.0139,0 0.40919,0.04 0.87836,0.088 6.84227,0.704 15.1824,1.2542 21.49173,1.418 1.13757,0.029 6.9766,0.037 7.58483,0.01 l 0.38117,-0.017 0,0.19 0,0.19 -0.9557,0 c -0.52563,0 -1.59209,-0.011 -2.36991,-0.02 z"
         style="fill:#d45400;fill-opacity:1;stroke:#ff6e0b;stroke-width:0;stroke-linecap:butt;stroke-linejoin:round;stroke-miterlimit:4;stroke-dasharray:none;stroke-dashoffset:0;stroke-opacity:1" />
      <path
         inkscape:connector-curvature="0"
         id="path4479"
         d="m 269.29003,1049.4603 c -1.80997,-0.1953 -2.43407,-0.2647 -3.57973,-0.3978 -6.92366,-0.8046 -13.9058,-1.8661 -20.71602,-3.1493 -1.49593,-0.2819 -3.7677,-0.7274 -4.10453,-0.805 -0.0471,-0.011 -0.0497,-0.022 -0.0497,-0.2123 0,-0.1972 9.1e-4,-0.2006 0.0497,-0.1886 0.0972,0.024 2.84728,0.568 3.64049,0.7202 8.02816,1.5398 16.61835,2.8219 24.58301,3.669 0.46183,0.049 0.87201,0.095 0.91151,0.1012 l 0.0718,0.012 0,0.1648 0,0.1647 -0.0608,0 c -0.0334,0 -0.36902,-0.036 -0.74578,-0.076 z"
         style="fill:#d45400;fill-opacity:1;stroke:#ff6e0b;stroke-width:0;stroke-linecap:butt;stroke-linejoin:round;stroke-miterlimit:4;stroke-dasharray:none;stroke-dashoffset:0;stroke-opacity:1" />
      <path
         inkscape:connector-curvature="0"
         id="path4481"
         d="m 239.88986,1044.908 c -7.80035,-1.623 -14.71516,-3.3316 -22.31241,-5.5133 l -0.95558,-0.2744 -1.2e-4,-0.2147 c -1e-4,-0.1623 0.007,-0.2124 0.0275,-0.2051 0.23341,0.082 3.85122,1.101 5.51875,1.5549 5.82433,1.5856 12.48966,3.1783 18.04227,4.3113 0.30384,0.062 0.56983,0.118 0.5911,0.1244 0.0331,0.01 0.0387,0.04 0.0387,0.2091 0,0.1441 -0.007,0.1969 -0.0276,0.1957 -0.0152,-10e-4 -0.43034,-0.086 -0.92255,-0.1879 l 0,0 z"
         style="fill:#d45400;fill-opacity:1;stroke:#ff6e0b;stroke-width:0;stroke-linecap:butt;stroke-linejoin:round;stroke-miterlimit:4;stroke-dasharray:none;stroke-dashoffset:0;stroke-opacity:1" />
      <path
         inkscape:connector-curvature="0"
         id="path4483"
         d="m 216.31226,1039.029 c -0.13976,-0.042 -0.75627,-0.226 -1.37002,-0.409 -6.72549,-2.0046 -13.51691,-4.3018 -20.24645,-6.8484 l -0.90046,-0.3407 0,-0.2169 c 0,-0.1193 0.008,-0.2122 0.017,-0.2065 0.009,0.01 0.46923,0.1815 1.02199,0.3905 5.92028,2.2383 12.06323,4.3383 18.11921,6.1944 1.16598,0.3573 2.12326,0.6443 3.51896,1.055 l 0.14915,0.044 0,0.209 c 0,0.1535 -0.007,0.2085 -0.0276,0.2071 -0.0152,0 -0.14197,-0.036 -0.28174,-0.078 l 0,0 z"
         style="fill:#d45400;fill-opacity:1;stroke:#ff6e0b;stroke-width:0;stroke-linecap:butt;stroke-linejoin:round;stroke-miterlimit:4;stroke-dasharray:none;stroke-dashoffset:0;stroke-opacity:1" />
      <path
         inkscape:connector-curvature="0"
         id="path4485"
         d="m 193.38654,1031.2731 c -6.88603,-2.6499 -13.42753,-5.4457 -20.19674,-8.6322 l -0.81759,-0.3848 -0.006,-0.2129 -0.006,-0.2129 0.26043,0.1233 c 6.73746,3.1903 13.83385,6.2321 20.58976,8.8255 0.29168,0.112 0.54276,0.2085 0.55795,0.2144 0.0304,0.012 0.0412,0.4267 0.0111,0.4251 -0.009,-5e-4 -0.18562,-0.066 -0.39222,-0.1455 z"
         style="fill:#d45400;fill-opacity:1;stroke:#ff6e0b;stroke-width:0;stroke-linecap:butt;stroke-linejoin:round;stroke-miterlimit:4;stroke-dasharray:none;stroke-dashoffset:0;stroke-opacity:1" />
      <path
         inkscape:connector-curvature="0"
         id="path4487"
         d="m 171.79768,1021.9797 c -4.69073,-2.2337 -10.35766,-5.1482 -15.23594,-7.8359 -1.39095,-0.7663 -4.29222,-2.3979 -4.94422,-2.7805 l -0.2044,-0.1199 0,-0.1981 c 0,-0.109 0.005,-0.1982 0.0114,-0.1982 0.006,0 0.42637,0.2372 0.9336,0.5272 3.96603,2.2671 7.6662,4.275 11.79401,6.4 1.96274,1.0104 6.13825,3.0767 7.82877,3.8742 0.25878,0.1221 0.36309,0.1822 0.37115,0.2141 0.006,0.024 0.008,0.1198 0.005,0.2122 l -0.007,0.1679 -0.55243,-0.263 z"
         style="fill:#d45400;fill-opacity:1;stroke:#ff6e0b;stroke-width:0;stroke-linecap:butt;stroke-linejoin:round;stroke-miterlimit:4;stroke-dasharray:none;stroke-dashoffset:0;stroke-opacity:1" />
      <path
         inkscape:connector-curvature="0"
         id="path4489"
         d="m 149.92157,1010.3758 c -9.2288,-5.4012 -18.11651,-11.25389 -26.62699,-17.53426 -1.1838,-0.8736 -2.95661,-2.19792 -3.0262,-2.26064 -0.0118,-0.0106 0.10487,-0.0187 0.26517,-0.0183 l 0.28615,6.3e-4 0.95546,0.71592 c 9.33307,6.99325 18.94396,13.34735 29.1463,19.26965 l 0.49166,0.2854 0,0.2053 c 0,0.113 -0.002,0.2048 -0.006,0.2041 -0.003,-7e-4 -0.67176,-0.3912 -1.48603,-0.8678 l 0,0 z"
         style="fill:#d45400;fill-opacity:1;stroke:#ff6e0b;stroke-width:0;stroke-linecap:butt;stroke-linejoin:round;stroke-miterlimit:4;stroke-dasharray:none;stroke-dashoffset:0;stroke-opacity:1" />
      <path
         inkscape:connector-curvature="0"
         id="path4491"
         d="m 119.49388,989.9927 c -2.99163,-2.26587 -7.13334,-5.57191 -10.44088,-8.33425 -4.25242,-3.55149 -9.074976,-7.81601 -12.757011,-11.28088 l -0.658861,-0.62 0.259456,-0.006 c 0.255863,-0.006 0.260452,-0.005 0.331437,0.0552 0.03959,0.0338 0.497745,0.45942 1.018123,0.94577 6.905866,6.45422 14.398896,12.79237 22.037816,18.64118 0.4679,0.35825 0.99492,0.75919 1.17114,0.89098 0.17623,0.13178 0.32986,0.24813 0.3414,0.25855 0.0118,0.0106 -0.10452,0.0189 -0.26516,0.0188 l -0.28616,-1.1e-4 -0.7513,-0.56904 0,-10e-6 z"
         style="fill:#d45400;fill-opacity:1;stroke:#ff6e0b;stroke-width:0;stroke-linecap:butt;stroke-linejoin:round;stroke-miterlimit:4;stroke-dasharray:none;stroke-dashoffset:0;stroke-opacity:1" />
      <path
         inkscape:connector-curvature="0"
         id="path4493"
         d="m 94.964589,969.12359 c -2.539169,-2.39153 -6.655704,-6.46734 -9.324624,-9.23237 -4.302665,-4.45761 -8.45426,-9.01722 -12.172444,-13.36874 -0.545189,-0.63805 -1.011511,-1.18247 -1.03627,-1.20981 l -0.04502,-0.0497 0.277489,0 0.27749,0 0.284073,0.33698 c 3.447975,4.09015 7.928022,9.05458 12.028929,13.32951 1.583165,1.65035 2.301854,2.38198 4.451561,4.53177 2.394622,2.39471 3.881328,3.84518 5.884848,5.74143 0.306725,0.2903 0.557682,0.53143 0.557682,0.53585 0,0.004 -0.117524,0.008 -0.261163,0.008 l -0.261164,0 -0.66139,-0.62293 z"
         style="fill:#d45400;fill-opacity:1;stroke:#ff6e0b;stroke-width:0;stroke-linecap:butt;stroke-linejoin:round;stroke-miterlimit:4;stroke-dasharray:none;stroke-dashoffset:0;stroke-opacity:1" />
      <path
         inkscape:connector-curvature="0"
         id="path4495"
         d="m 72.303915,945.16831 c -1.523237,-1.79739 -4.779104,-5.76988 -5.74959,-7.0151 -0.01695,-0.0217 0.03191,-0.0275 0.229771,-0.027 l 0.251298,6.4e-4 0.430893,0.5346 c 1.15046,1.42734 4.240108,5.15644 5.263882,6.35332 0.106754,0.12481 0.194098,0.2317 0.194098,0.23754 0,0.006 -0.12181,0.0103 -0.270689,0.01 l -0.270689,-7.3e-4 -0.07897,-0.0932 z"
         style="fill:#d45400;fill-opacity:1;stroke:#ff6e0b;stroke-width:0;stroke-linecap:butt;stroke-linejoin:round;stroke-miterlimit:4;stroke-dasharray:none;stroke-dashoffset:0;stroke-opacity:1" />
      <path
         inkscape:connector-curvature="0"
         id="path4497"
         d="m 377.93122,1039.6127 c -0.16651,-0.4622 -17.64991,-65.50203 -38.85199,-144.53291 L 300.53,751.38729 l 0,-149.18202 0,-149.18203 2.2981,0.28091 c 1.26395,0.1545 7.23016,0.44403 13.25825,0.64339 42.7565,1.41405 90.11647,14.96199 129.75409,37.11787 98.9545,55.31169 158.20754,161.48992 153.03556,274.23142 -1.9404,42.29774 -11.79007,80.77617 -30.36398,118.61908 -34.29176,69.86679 -96.41066,124.80519 -169.70725,150.09029 -14.7536,5.0895 -20.50341,6.6339 -20.87355,5.6065 l 0,0 z"
         style="fill:#628fca;fill-opacity:1;stroke:#ff6e0b;stroke-width:0;stroke-linecap:butt;stroke-linejoin:round;stroke-miterlimit:4;stroke-dasharray:none;stroke-dashoffset:0;stroke-opacity:1" />
      <path
         inkscape:connector-curvature="0"
         id="path4501"
         d="m 369.32363,1009.0976 c -4.70471,-17.54008 -8.56712,-31.92844 -8.58312,-31.97415 -0.0207,-0.0591 0.0216,-0.0772 0.14633,-0.0625 l 0.17543,0.0206 2.39901,8.9375 c 2.03231,7.5714 14.07073,52.26585 14.37434,53.36685 0.087,0.3157 0.13001,0.379 0.30757,0.4532 1.07643,0.4497 5.52825,-0.7116 15.39791,-4.0169 8.69611,-2.9122 14.4905,-5.0504 21.28125,-7.8529 12.05871,-4.9765 24.27349,-11.0276 35.57813,-17.6252 l 1.76562,-1.0304 -0.002,0.2902 -0.002,0.2902 -0.6387,0.3678 c -6.24578,3.5972 -9.86085,5.574 -15.01769,8.212 -18.0723,9.2452 -37.57999,16.8025 -56.90224,22.0442 -0.84218,0.2284 -1.57505,0.4278 -1.62859,0.4429 -0.0806,0.023 -1.56897,-5.4589 -8.65138,-31.8634 z"
         style="fill:#628fca;fill-opacity:1;stroke:#ff6e0b;stroke-width:0;stroke-linecap:butt;stroke-linejoin:round;stroke-miterlimit:4;stroke-dasharray:none;stroke-dashoffset:0;stroke-opacity:1" />
      <path
         inkscape:connector-curvature="0"
         id="path4505"
         d="m 360.69861,976.97218 c -0.0143,-0.043 -3.86796,-14.40781 -8.56361,-31.92187 -4.69565,-17.51407 -8.55212,-31.89297 -8.56994,-31.95313 -0.0248,-0.0836 0.004,-0.10937 0.12387,-0.10937 0.0941,0 0.16989,0.0435 0.19053,0.10937 0.0513,0.16359 17.16164,63.90208 17.16164,63.92951 0,0.064 -0.31993,0.0131 -0.34249,-0.0545 z"
         style="fill:#628fca;fill-opacity:1;stroke:#ff6e0b;stroke-width:0;stroke-linecap:butt;stroke-linejoin:round;stroke-miterlimit:4;stroke-dasharray:none;stroke-dashoffset:0;stroke-opacity:1" />
      <path
         inkscape:connector-curvature="0"
         id="path4507"
         d="M 343.51087,912.90968 C 343.47,912.78834 328.7911,858.0464 328.7911,858.01533 c 0,-0.0151 0.0692,-0.0275 0.15384,-0.0275 0.12509,0 0.16543,0.0438 0.21581,0.23437 0.3932,1.48711 14.61783,54.49122 14.66802,54.65625 0.0257,0.0846 -0.003,0.10938 -0.12917,0.10938 -0.0893,0 -0.17426,-0.0352 -0.18873,-0.0781 z"
         style="fill:#628fca;fill-opacity:1;stroke:#ff6e0b;stroke-width:0;stroke-linecap:butt;stroke-linejoin:round;stroke-miterlimit:4;stroke-dasharray:none;stroke-dashoffset:0;stroke-opacity:1" />
      <path
         inkscape:connector-curvature="0"
         id="path4509"
         d="m 328.75927,857.90968 c -0.028,-0.0784 -14.60967,-54.42718 -14.68931,-54.75 -0.0381,-0.15441 -0.0258,-0.17187 0.12062,-0.17187 0.0897,0 0.16302,0.0122 0.16302,0.0271 0,0.0188 13.94596,52.03194 14.68509,54.76977 0.051,0.18883 0.0441,0.20313 -0.0983,0.20313 -0.0842,0 -0.16573,-0.0352 -0.18108,-0.0781 z"
         style="fill:#628fca;fill-opacity:1;stroke:#ff6e0b;stroke-width:0;stroke-linecap:butt;stroke-linejoin:round;stroke-miterlimit:4;stroke-dasharray:none;stroke-dashoffset:0;stroke-opacity:1" />
      <path
         inkscape:connector-curvature="0"
         id="path4513"
         d="m 314.02042,802.94093 c -0.0315,-0.0525 -13.04182,-48.53478 -13.04182,-48.59943 0,-0.0227 0.0703,-0.0412 0.15625,-0.0412 0.0859,0 0.15625,0.0122 0.15625,0.027 0,0.0349 12.99346,48.47907 13.03054,48.58236 0.0303,0.0844 -0.25188,0.11368 -0.30122,0.0312 z"
         style="fill:#628fca;fill-opacity:1;stroke:#ff6e0b;stroke-width:0;stroke-linecap:butt;stroke-linejoin:round;stroke-miterlimit:4;stroke-dasharray:none;stroke-dashoffset:0;stroke-opacity:1" />
      <path
         inkscape:connector-curvature="0"
         id="path4515"
         d="m 300.9577,754.25343 c -0.0155,-0.0258 -0.15784,-0.53003 -0.31619,-1.12055 l -0.28791,-1.07367 0,-20.9732 c 0,-13.94047 0.021,-20.9732 0.0625,-20.9732 0.0415,0 0.0625,6.9095 0.0625,20.60351 l 0,20.60352 0.31703,1.19336 c 0.17436,0.65635 0.35566,1.32695 0.40288,1.49023 0.0854,0.29524 0.085,0.29688 -0.0633,0.29688 -0.0821,0 -0.16192,-0.0211 -0.17747,-0.0469 l 0,0 z"
         style="fill:#628fca;fill-opacity:1;stroke:#ff6e0b;stroke-width:0;stroke-linecap:butt;stroke-linejoin:round;stroke-miterlimit:4;stroke-dasharray:none;stroke-dashoffset:0;stroke-opacity:1" />
      <path
         inkscape:connector-curvature="0"
         id="path4517"
         d="m 300.29594,705.98575 0,-14.73876 0.11049,0 0.11048,0 0,14.73876 c 0,8.10632 -0.008,14.73876 -0.0188,14.73876 -0.0103,0 -0.0254,-2.30445 -0.0335,-5.121 -0.008,-2.81655 -0.0217,-5.20552 -0.0303,-5.30883 l -0.0155,-0.18782 -0.0166,0.13258 c -0.009,0.0729 -0.0233,2.46189 -0.0314,5.30882 -0.0124,4.34246 -0.0196,5.17625 -0.0448,5.17625 -0.0253,0 -0.0301,-2.32628 -0.0301,-14.73876 z"
         style="fill:#628fca;fill-opacity:1;stroke:#ff6e0b;stroke-width:0;stroke-linecap:butt;stroke-linejoin:round;stroke-miterlimit:4;stroke-dasharray:none;stroke-dashoffset:0;stroke-opacity:1" />
      <path
         inkscape:connector-curvature="0"
         id="path4519"
         d="m 300.29594,682.40816 0,-8.83884 0.11049,0 0.11048,0 0,8.83884 0,8.83883 -0.11048,0 -0.11049,0 0,-8.83883 z"
         style="fill:#628fca;fill-opacity:1;stroke:#ff6e0b;stroke-width:0;stroke-linecap:butt;stroke-linejoin:round;stroke-miterlimit:4;stroke-dasharray:none;stroke-dashoffset:0;stroke-opacity:1" />
      <path
         inkscape:connector-curvature="0"
         id="path4521"
         d="m 300.29594,662.96272 0,-10.6066 0.11049,0 0.11048,0 0,10.6066 0,10.6066 -0.11048,0 -0.11049,0 0,-10.6066 z"
         style="fill:#628fca;fill-opacity:1;stroke:#ff6e0b;stroke-width:0;stroke-linecap:butt;stroke-linejoin:round;stroke-miterlimit:4;stroke-dasharray:none;stroke-dashoffset:0;stroke-opacity:1" />
      <path
         inkscape:connector-curvature="0"
         id="path4523"
         d="m 300.29594,640.86563 0,-11.49048 0.11049,0 0.11048,0 0,11.49048 0,11.49049 -0.11048,0 -0.11049,0 0,-11.49049 z"
         style="fill:#628fca;fill-opacity:1;stroke:#ff6e0b;stroke-width:0;stroke-linecap:butt;stroke-linejoin:round;stroke-miterlimit:4;stroke-dasharray:none;stroke-dashoffset:0;stroke-opacity:1" />
      <path
         inkscape:connector-curvature="0"
         id="path4525"
         d="m 300.29594,617.88466 0,-11.49048 0.11049,0 0.11048,0 0,11.49048 0,11.49049 -0.11048,0 -0.11049,0 0,-11.49049 z"
         style="fill:#628fca;fill-opacity:1;stroke:#ff6e0b;stroke-width:0;stroke-linecap:butt;stroke-linejoin:round;stroke-miterlimit:4;stroke-dasharray:none;stroke-dashoffset:0;stroke-opacity:1" />
      <path
         inkscape:connector-curvature="0"
         id="path4527"
         d="m 300.29594,594.90369 0,-11.49048 0.11049,0 0.11048,0 0,11.49048 0,11.49049 -0.11048,0 -0.11049,0 0,-11.49049 z"
         style="fill:#628fca;fill-opacity:1;stroke:#ff6e0b;stroke-width:0;stroke-linecap:butt;stroke-linejoin:round;stroke-miterlimit:4;stroke-dasharray:none;stroke-dashoffset:0;stroke-opacity:1" />
      <path
         inkscape:connector-curvature="0"
         id="path4529"
         d="m 300.29594,570.15496 0,-13.25826 0.11049,0 0.11048,0 0,13.25826 0,13.25825 -0.11048,0 -0.11049,0 0,-13.25825 z"
         style="fill:#628fca;fill-opacity:1;stroke:#ff6e0b;stroke-width:0;stroke-linecap:butt;stroke-linejoin:round;stroke-miterlimit:4;stroke-dasharray:none;stroke-dashoffset:0;stroke-opacity:1" />
      <path
         inkscape:connector-curvature="0"
         id="path4531"
         d="m 300.29594,544.52234 0,-12.37437 0.11049,0 0.11048,0 0,12.37437 0,12.37436 -0.11048,0 -0.11049,0 0,-12.37436 z"
         style="fill:#628fca;fill-opacity:1;stroke:#ff6e0b;stroke-width:0;stroke-linecap:butt;stroke-linejoin:round;stroke-miterlimit:4;stroke-dasharray:none;stroke-dashoffset:0;stroke-opacity:1" />
      <path
         inkscape:connector-curvature="0"
         id="path4533"
         d="m 300.29594,519.7736 0,-12.37437 0.11049,0 0.11048,0 0,12.37437 0,12.37437 -0.11048,0 -0.11049,0 0,-12.37437 z"
         style="fill:#628fca;fill-opacity:1;stroke:#ff6e0b;stroke-width:0;stroke-linecap:butt;stroke-linejoin:round;stroke-miterlimit:4;stroke-dasharray:none;stroke-dashoffset:0;stroke-opacity:1" />
      <path
         inkscape:connector-curvature="0"
         id="path4535"
         d="m 300.29594,494.14098 0,-13.25825 0.11049,0 0.11048,0 0,13.25825 0,13.25825 -0.11048,0 -0.11049,0 0,-13.25825 z"
         style="fill:#628fca;fill-opacity:1;stroke:#ff6e0b;stroke-width:0;stroke-linecap:butt;stroke-linejoin:round;stroke-miterlimit:4;stroke-dasharray:none;stroke-dashoffset:0;stroke-opacity:1" />
      <path
         inkscape:connector-curvature="0"
         id="path4537"
         d="m 300.29594,467.62447 0,-13.25825 0.11049,0 0.11048,0 0,13.25825 0,13.25826 -0.11048,0 -0.11049,0 0,-13.25826 z"
         style="fill:#628fca;fill-opacity:1;stroke:#ff6e0b;stroke-width:0;stroke-linecap:butt;stroke-linejoin:round;stroke-miterlimit:4;stroke-dasharray:none;stroke-dashoffset:0;stroke-opacity:1" />
      <path
         inkscape:connector-curvature="0"
         id="path4539"
         d="m 325.34299,454.43104 c -3.15967,-0.23521 -5.46048,-0.35336 -10.51821,-0.54016 -3.6733,-0.13566 -6.56063,-0.26035 -8.69521,-0.37551 -2.45062,-0.1322 -2.752,-0.15663 -4.38037,-0.35507 -0.64088,-0.0781 -1.18032,-0.142 -1.19876,-0.142 -0.0292,0 -0.0335,0.0862 -0.0335,0.67396 l 0,0.67396 -0.11048,0 -0.11049,0 0,-0.71815 0,-0.71816 1.17667,1.5e-4 c 3.89826,5e-4 9.12391,0.12985 13.40741,0.33186 3.68839,0.17395 8.29754,0.4766 11.26951,0.73999 0.20053,0.0178 0.38201,0.0324 0.40328,0.0326 0.0345,2.5e-4 0.0387,0.0267 0.0387,0.24334 l 0,0.24307 -0.0608,-0.003 c -0.0334,-0.002 -0.5679,-0.0407 -1.18772,-0.0869 z"
         style="fill:#628fca;fill-opacity:1;stroke:#ff6e0b;stroke-width:0;stroke-linecap:butt;stroke-linejoin:round;stroke-miterlimit:4;stroke-dasharray:none;stroke-dashoffset:0;stroke-opacity:1" />
      <path
         inkscape:connector-curvature="0"
         id="path4541"
         d="m 351.4286,457.65931 c -0.37451,-0.0794 -3.89754,-0.65443 -5.62371,-0.91795 -6.14259,-0.93775 -12.75424,-1.71218 -18.38477,-2.15342 -0.31599,-0.0248 -0.6317,-0.051 -0.70159,-0.0582 l -0.12705,-0.0132 0,-0.23986 0,-0.23985 0.10496,0.0106 c 0.0577,0.006 0.71152,0.0653 1.45288,0.13215 6.36328,0.57375 12.89377,1.38416 19.41229,2.409 1.11989,0.17607 3.9627,0.64466 4.0272,0.66382 0.0333,0.01 0.0387,0.0405 0.0387,0.21992 l 0,0.20843 -0.0608,-0.003 c -0.0334,-10e-4 -0.0956,-0.01 -0.13811,-0.0189 z"
         style="fill:#628fca;fill-opacity:1;stroke:#ff6e0b;stroke-width:0;stroke-linecap:butt;stroke-linejoin:round;stroke-miterlimit:4;stroke-dasharray:none;stroke-dashoffset:0;stroke-opacity:1" />
      <path
         inkscape:connector-curvature="0"
         id="path4543"
         d="m 378.45334,463.69163 c -0.0304,-0.01 -0.54248,-0.14875 -1.138,-0.30872 -7.82634,-2.10237 -15.73708,-3.88471 -23.58864,-5.31469 -0.75959,-0.13834 -1.54265,-0.27891 -1.74015,-0.31237 l -0.35907,-0.0608 0,-0.21704 c 0,-0.11937 0.006,-0.21703 0.0132,-0.21703 0.0278,0 1.83506,0.32013 2.8815,0.51041 7.88459,1.43366 15.70773,3.1863 23.48921,5.26233 l 0.51928,0.13854 0.006,0.27053 c 0.003,0.1488 -0.002,0.26968 -0.0111,0.26864 -0.009,-0.001 -0.0421,-0.01 -0.0725,-0.0198 l 0,0 z"
         style="fill:#628fca;fill-opacity:1;stroke:#ff6e0b;stroke-width:0;stroke-linecap:butt;stroke-linejoin:round;stroke-miterlimit:4;stroke-dasharray:none;stroke-dashoffset:0;stroke-opacity:1" />
      <path
         inkscape:connector-curvature="0"
         id="path4545"
         d="m 408.00819,473.37816 c -8.97722,-3.47258 -19.51589,-6.94365 -28.70411,-9.45414 -0.3403,-0.093 -0.65104,-0.1792 -0.69054,-0.1916 l -0.0718,-0.0226 0,-0.26345 c 0,-0.1449 0.008,-0.26345 0.0176,-0.26345 0.0257,0 2.27783,0.61864 3.29692,0.90563 8.83975,2.48939 17.64828,5.41735 26.174,8.70025 l 0.90598,0.34886 0.006,0.29278 c 0.005,0.2269 -2.3e-4,0.29243 -0.0221,0.29119 -0.0156,-8.8e-4 -0.42601,-0.15546 -0.91215,-0.34351 z"
         style="fill:#628fca;fill-opacity:1;stroke:#ff6e0b;stroke-width:0;stroke-linecap:butt;stroke-linejoin:round;stroke-miterlimit:4;stroke-dasharray:none;stroke-dashoffset:0;stroke-opacity:1" />
      <path
         inkscape:connector-curvature="0"
         id="path4547"
         d="m 427.70775,481.7629 c -5.80657,-2.72187 -12.05707,-5.40457 -18.03675,-7.74134 l -0.72368,-0.2828 0,-0.29737 c 0,-0.22889 0.006,-0.2949 0.0276,-0.28664 5.24562,2.03875 10.34862,4.19193 15.60607,6.58487 1.33285,0.60665 3.98364,1.84166 4.01683,1.87145 0.009,0.009 0.0145,0.14056 0.011,0.29341 l -0.006,0.27792 -0.89493,-0.4195 z"
         style="fill:#628fca;fill-opacity:1;stroke:#ff6e0b;stroke-width:0;stroke-linecap:butt;stroke-linejoin:round;stroke-miterlimit:4;stroke-dasharray:none;stroke-dashoffset:0;stroke-opacity:1" />
      <path
         inkscape:connector-curvature="0"
         id="path4549"
         d="m 451.1638,494.10311 c -1.2094,-0.72122 -4.45909,-2.57505 -6.27557,-3.57999 -4.93671,-2.73115 -10.09503,-5.38608 -15.19175,-7.81903 l -1.07171,-0.51158 -0.006,-0.28915 -0.006,-0.28914 0.27132,0.12864 c 3.90467,1.85133 8.67125,4.26082 12.74513,6.44262 2.8891,1.54727 6.39906,3.50519 8.98247,5.01058 l 1.03856,0.60518 0.006,0.2914 c 0.003,0.16027 -0.002,0.29046 -0.011,0.2893 -0.009,-10e-4 -0.22604,-0.12663 -0.48126,-0.27883 z"
         style="fill:#628fca;fill-opacity:1;stroke:#ff6e0b;stroke-width:0;stroke-linecap:butt;stroke-linejoin:round;stroke-miterlimit:4;stroke-dasharray:none;stroke-dashoffset:0;stroke-opacity:1" />
      <path
         inkscape:connector-curvature="0"
         id="path4551"
         d="m 471.53686,507.16378 c -5.01718,-3.50832 -10.26323,-6.94336 -15.42331,-10.09896 -0.98923,-0.60495 -3.68214,-2.22259 -4.22567,-2.53837 l -0.2261,-0.13136 -4e-4,-0.29458 -3.9e-4,-0.29459 0.0718,0.0431 c 0.0395,0.0237 0.19611,0.11546 0.34803,0.20386 0.91958,0.53513 3.70018,2.21067 5.11548,3.08249 4.90016,3.01851 10.27698,6.54589 14.47911,9.4988 l 0.77893,0.54736 0,0.30772 c 0,0.16924 -0.003,0.30771 -0.006,0.30771 -0.003,0 -0.41346,-0.28494 -0.9115,-0.6332 z"
         style="fill:#628fca;fill-opacity:1;stroke:#ff6e0b;stroke-width:0;stroke-linecap:butt;stroke-linejoin:round;stroke-miterlimit:4;stroke-dasharray:none;stroke-dashoffset:0;stroke-opacity:1" />
      <path
         inkscape:connector-curvature="0"
         id="path4553"
         d="m 487.93336,519.49109 c -4.3574,-3.52939 -9.573,-7.48401 -14.35919,-10.88757 l -1.11865,-0.79549 -5.9e-4,-0.30384 c -3.2e-4,-0.16711 0.005,-0.30383 0.0127,-0.30383 0.0251,0 1.18969,0.82548 2.75986,1.95616 3.85189,2.77373 7.66703,5.66087 11.36895,8.60355 1.2044,0.95738 2.74485,2.197 2.84974,2.29321 0.0272,0.0249 -0.0328,0.0296 -0.37565,0.0291 l -0.40801,-6.2e-4 -0.7292,-0.59063 z"
         style="fill:#628fca;fill-opacity:1;stroke:#ff6e0b;stroke-width:0;stroke-linecap:butt;stroke-linejoin:round;stroke-miterlimit:4;stroke-dasharray:none;stroke-dashoffset:0;stroke-opacity:1" />
      <path
         inkscape:connector-curvature="0"
         id="path4555"
         d="m 510.26246,539.42467 c -6.89188,-6.78249 -13.42272,-12.65069 -20.85263,-18.73685 l -0.7384,-0.60486 0.40533,0 0.40533,0 0.73929,0.60276 c 1.12607,0.91813 3.30116,2.74245 4.82724,4.04877 5.46553,4.67848 11.00044,9.77598 15.98724,14.7238 l 1.22639,1.2168 -0.3646,0 -0.36461,0 -1.27058,-1.25042 z"
         style="fill:#628fca;fill-opacity:1;stroke:#ff6e0b;stroke-width:0;stroke-linecap:butt;stroke-linejoin:round;stroke-miterlimit:4;stroke-dasharray:none;stroke-dashoffset:0;stroke-opacity:1" />
      <path
         inkscape:connector-curvature="0"
         id="path4557"
         d="m 527.0871,557.45466 c -4.5325,-5.28256 -9.21906,-10.36216 -14.47952,-15.69386 l -1.06888,-1.08336 0.36505,0 0.36505,0 1.32416,1.3424 c 4.82022,4.88663 9.64401,10.12509 13.98917,15.19175 l 0.86699,1.01094 -0.35159,0 -0.35158,0 -0.65885,-0.76787 z"
         style="fill:#628fca;fill-opacity:1;stroke:#ff6e0b;stroke-width:0;stroke-linecap:butt;stroke-linejoin:round;stroke-miterlimit:4;stroke-dasharray:none;stroke-dashoffset:0;stroke-opacity:1" />
      <path
         inkscape:connector-curvature="0"
         id="path4559"
         d="m 541.09976,575.06586 c -0.48887,-0.66911 -2.01617,-2.70999 -2.78214,-3.71766 -3.11436,-4.09715 -6.36017,-8.14429 -9.73898,-12.14334 -0.43173,-0.51098 -0.79238,-0.94104 -0.80143,-0.95569 -0.0126,-0.0204 0.0645,-0.0266 0.32622,-0.0266 l 0.34268,0 0.38289,0.44747 c 0.72701,0.84962 2.61881,3.12544 3.69663,4.44703 2.21961,2.72161 4.56889,5.71139 6.71957,8.55158 0.89864,1.18674 2.73133,3.6485 2.8007,3.76203 0.0132,0.0216 -0.0565,0.0276 -0.32141,0.0274 l -0.33828,-1.8e-4 -0.28645,-0.39205 z"
         style="fill:#628fca;fill-opacity:1;stroke:#ff6e0b;stroke-width:0;stroke-linecap:butt;stroke-linejoin:round;stroke-miterlimit:4;stroke-dasharray:none;stroke-dashoffset:0;stroke-opacity:1" />
      <path
         inkscape:connector-curvature="0"
         id="path4561"
         d="m 555.36403,596.29009 c -1.24417,-2.05549 -3.60756,-5.77815 -5.3483,-8.42432 -2.5076,-3.81189 -5.66609,-8.36508 -8.22372,-11.85509 -0.2004,-0.27345 -0.37179,-0.50961 -0.38086,-0.5248 -0.0129,-0.0216 0.0573,-0.0276 0.32276,-0.0276 l 0.33927,0 0.14139,0.19335 c 4.51475,6.17362 9.1432,13.05711 13.12708,19.52277 l 0.92244,1.49708 -0.33473,-2e-4 -0.33472,-2e-4 -0.23061,-0.38097 0,0 z"
         style="fill:#628fca;fill-opacity:1;stroke:#ff6e0b;stroke-width:0;stroke-linecap:butt;stroke-linejoin:round;stroke-miterlimit:4;stroke-dasharray:none;stroke-dashoffset:0;stroke-opacity:1" />
      <path
         inkscape:connector-curvature="0"
         id="path4563"
         d="m 566.60887,616.36549 c -3.15578,-6.1982 -7.2093,-13.46588 -10.68087,-19.15007 -0.17727,-0.29025 -0.32232,-0.53139 -0.32232,-0.53585 0,-0.004 0.14864,-0.008 0.33031,-0.008 l 0.3303,0 1.03694,1.7291 c 2.54101,4.23714 4.87628,8.35507 7.19606,12.68925 1.07463,2.0078 3.1714,6.03777 3.1714,6.09539 0,0.008 -0.14335,0.0145 -0.31855,0.0145 l -0.31855,0 -0.42472,-0.83416 0,0 z"
         style="fill:#628fca;fill-opacity:1;stroke:#ff6e0b;stroke-width:0;stroke-linecap:butt;stroke-linejoin:round;stroke-miterlimit:4;stroke-dasharray:none;stroke-dashoffset:0;stroke-opacity:1" />
      <path
         inkscape:connector-curvature="0"
         id="path4565"
         d="m 576.06112,636.72795 c -0.13814,-0.34458 -1.11268,-2.62347 -1.61824,-3.78412 -2.10316,-4.82837 -4.552,-10.06414 -6.79791,-14.53436 l -0.60783,-1.20982 0.32276,0 0.32276,0 0.77702,1.55232 c 2.7663,5.52648 5.79631,12.12846 8.04987,17.53957 0.124,0.29776 0.23001,0.54883 0.23556,0.55795 0.006,0.009 -0.13362,0.0166 -0.30927,0.0166 l -0.31936,0 -0.0554,-0.13811 z"
         style="fill:#628fca;fill-opacity:1;stroke:#ff6e0b;stroke-width:0;stroke-linecap:butt;stroke-linejoin:round;stroke-miterlimit:4;stroke-dasharray:none;stroke-dashoffset:0;stroke-opacity:1" />
      <path
         inkscape:connector-curvature="0"
         id="path4567"
         d="m 584.78767,660.2724 c -2.43947,-7.52899 -5.32246,-15.35814 -8.2285,-22.34568 -0.22492,-0.54082 -0.41386,-1.001 -0.41986,-1.02261 -0.0102,-0.0365 0.0112,-0.0389 0.30319,-0.0331 l 0.31411,0.006 0.32009,0.7734 c 3.06462,7.40479 5.81947,14.90003 8.2809,22.53025 0.1043,0.32332 0.18964,0.59428 0.18964,0.60215 0,0.008 -0.13265,0.0143 -0.29476,0.0143 l -0.29477,0 -0.17004,-0.52481 z"
         style="fill:#628fca;fill-opacity:1;stroke:#ff6e0b;stroke-width:0;stroke-linecap:butt;stroke-linejoin:round;stroke-miterlimit:4;stroke-dasharray:none;stroke-dashoffset:0;stroke-opacity:1" />
      <path
         inkscape:connector-curvature="0"
         id="path4569"
         d="m 590.28908,679.4744 c -1.22771,-4.91954 -2.72072,-10.26643 -4.28045,-15.32948 -0.31347,-1.01754 -0.85588,-2.74259 -1.00227,-3.18751 l -0.0527,-0.1602 0.30527,0 c 0.29866,0 0.30549,0.001 0.31598,0.0497 0.006,0.0273 0.13702,0.44746 0.2914,0.9336 1.44358,4.54586 2.91487,9.64667 4.18004,14.4917 0.28238,1.08141 1.11356,4.37374 1.11356,4.41087 0,0.0155 -0.0966,0.0235 -0.28174,0.0232 l -0.28174,-3.7e-4 -0.30734,-1.23154 0,0 z"
         style="fill:#628fca;fill-opacity:1;stroke:#ff6e0b;stroke-width:0;stroke-linecap:butt;stroke-linejoin:round;stroke-miterlimit:4;stroke-dasharray:none;stroke-dashoffset:0;stroke-opacity:1" />
      <path
         inkscape:connector-curvature="0"
         id="path4571"
         d="m 594.35426,698.22415 c -0.005,-0.0152 -0.12447,-0.6491 -0.26642,-1.40869 -0.90854,-4.86165 -2.0942,-10.37639 -3.25808,-15.15406 -0.12226,-0.50186 -0.22229,-0.92228 -0.22229,-0.93426 0,-0.0135 0.10702,-0.0194 0.28124,-0.0156 l 0.28125,0.006 0.16088,0.66291 c 1.14942,4.73636 2.25376,9.86473 3.18811,14.80505 0.14443,0.7637 0.37535,2.02334 0.37535,2.0475 0,0.0318 -0.53041,0.0229 -0.54004,-0.009 z"
         style="fill:#628fca;fill-opacity:1;stroke:#ff6e0b;stroke-width:0;stroke-linecap:butt;stroke-linejoin:round;stroke-miterlimit:4;stroke-dasharray:none;stroke-dashoffset:0;stroke-opacity:1" />
      <path
         inkscape:connector-curvature="0"
         id="path4573"
         d="m 597.2489,717.66958 c -0.005,-0.0152 -0.0446,-0.34582 -0.0889,-0.73472 -0.59025,-5.18448 -1.63271,-12.20938 -2.62905,-17.71669 -0.0918,-0.5076 -0.16697,-0.93628 -0.16697,-0.95264 0,-0.0188 0.0183,-0.0264 0.0497,-0.0206 0.0274,0.005 0.14861,0.0111 0.26948,0.0135 l 0.21976,0.004 0.0622,0.3425 c 0.80264,4.4189 1.62005,9.68524 2.22593,14.34101 0.20469,1.57297 0.57586,4.61591 0.57586,4.72112 0,0.0414 -0.50544,0.0435 -0.51803,0.002 l 0,0 z"
         style="fill:#628fca;fill-opacity:1;stroke:#ff6e0b;stroke-width:0;stroke-linecap:butt;stroke-linejoin:round;stroke-miterlimit:4;stroke-dasharray:none;stroke-dashoffset:0;stroke-opacity:1" />
      <path
         inkscape:connector-curvature="0"
         id="path4575"
         d="m 598.84183,737.04873 c -0.006,-0.0516 -0.0469,-0.78003 -0.0912,-1.61861 -0.27064,-5.11406 -0.71923,-10.60968 -1.30501,-15.98724 -0.0788,-0.72313 -0.15304,-1.39407 -0.16505,-1.49098 -0.0342,-0.2758 -0.0582,-0.24987 0.23234,-0.25045 0.24297,-4.8e-4 0.25461,0.002 0.26432,0.0473 0.006,0.0263 0.0553,0.46052 0.11043,0.96488 0.64529,5.90186 1.09795,11.42007 1.39209,16.97056 0.0299,0.56514 0.0606,1.12447 0.0681,1.24297 l 0.0136,0.21544 -0.25454,0 -0.25453,0 -0.0106,-0.0939 z"
         style="fill:#628fca;fill-opacity:1;stroke:#ff6e0b;stroke-width:0;stroke-linecap:butt;stroke-linejoin:round;stroke-miterlimit:4;stroke-dasharray:none;stroke-dashoffset:0;stroke-opacity:1" />
      <path
         inkscape:connector-curvature="0"
         id="path4577"
         d="m 599.16652,755.80916 c 0.0939,-5.08841 -0.026,-12.61809 -0.28362,-17.81578 -0.0181,-0.3646 -0.0329,-0.70517 -0.033,-0.75683 l -1.8e-4,-0.0939 0.25412,0 c 0.24876,0 0.25412,10e-4 0.25423,0.0497 6e-5,0.0273 0.01,0.23368 0.0219,0.45851 0.12784,2.39497 0.25597,6.57849 0.30963,10.10942 0.0245,1.61555 0.0291,6.5884 0.007,7.92924 l -0.0146,0.89855 -0.26502,0 -0.26502,0 0.0144,-0.77892 0,0 z"
         style="fill:#628fca;fill-opacity:1;stroke:#ff6e0b;stroke-width:0;stroke-linecap:butt;stroke-linejoin:round;stroke-miterlimit:4;stroke-dasharray:none;stroke-dashoffset:0;stroke-opacity:1" />
      <path
         inkscape:connector-curvature="0"
         id="path4579"
         d="m 598.3785,773.89625 c 0.33556,-4.46733 0.6336,-10.64824 0.7355,-15.25314 0.0122,-0.55298 0.0285,-1.24158 0.0362,-1.53023 l 0.014,-0.5248 0.26375,0 0.26375,0 -0.0126,0.49166 c -0.007,0.27041 -0.0227,0.98387 -0.0351,1.58546 -0.10009,4.87849 -0.33775,9.95417 -0.71238,15.21385 l -0.0267,0.37565 -0.27714,0.006 -0.27714,0.006 0.0279,-0.37075 z"
         style="fill:#628fca;fill-opacity:1;stroke:#ff6e0b;stroke-width:0;stroke-linecap:butt;stroke-linejoin:round;stroke-miterlimit:4;stroke-dasharray:none;stroke-dashoffset:0;stroke-opacity:1" />
      <path
         inkscape:connector-curvature="0"
         id="path4581"
         d="m 595.8079,797.197 c 0.0377,-0.15099 0.54534,-3.77083 0.77615,-5.53418 0.70459,-5.383 1.38773,-12.06898 1.73861,-17.0159 l 0.027,-0.38117 0.27209,0 0.27209,0 -1.6e-4,0.0718 c -3e-4,0.13813 -0.14756,2.00859 -0.27703,3.51896 -0.5482,6.39532 -1.24079,12.27211 -2.24546,19.05322 l -0.0499,0.33698 -0.2629,0 c -0.26158,0 -0.26284,-2.4e-4 -0.2505,-0.0497 l 0,0 z"
         style="fill:#628fca;fill-opacity:1;stroke:#ff6e0b;stroke-width:0;stroke-linecap:butt;stroke-linejoin:round;stroke-miterlimit:4;stroke-dasharray:none;stroke-dashoffset:0;stroke-opacity:1" />
      <path
         inkscape:connector-curvature="0"
         id="path4583"
         d="m 591.42506,820.21826 c 0,-0.005 0.0651,-0.29106 0.14472,-0.63529 1.61791,-6.99677 3.03939,-14.45965 4.15252,-21.80094 0.0429,-0.28287 0.078,-0.51903 0.078,-0.52481 0,-0.006 0.11435,-0.0105 0.25411,-0.0105 0.23367,0 0.25412,0.003 0.25412,0.0414 0,0.0533 -0.24101,1.60176 -0.45443,2.91961 -1.03814,6.41047 -2.31766,12.9366 -3.77893,19.27418 l -0.17196,0.74578 -0.23907,0 c -0.13149,0 -0.23907,-0.004 -0.23907,-0.009 z"
         style="fill:#628fca;fill-opacity:1;stroke:#ff6e0b;stroke-width:0;stroke-linecap:butt;stroke-linejoin:round;stroke-miterlimit:4;stroke-dasharray:none;stroke-dashoffset:0;stroke-opacity:1" />
      <path
         inkscape:connector-curvature="0"
         id="path4585"
         d="m 585.90085,840.54116 c 4e-5,-0.01 0.0803,-0.27583 0.17829,-0.59182 1.84281,-5.94053 3.67233,-12.64295 5.06966,-18.5726 0.14177,-0.6016 0.26161,-1.10624 0.26632,-1.12143 0.0126,-0.0407 0.47398,-0.0392 0.47398,0.002 0,0.016 -0.0739,0.34168 -0.16418,0.72367 -1.51584,6.41256 -3.30399,12.99827 -5.18942,19.11246 l -0.13969,0.45299 -0.24751,0.006 c -0.13613,0.003 -0.24748,-0.002 -0.24745,-0.011 l 0,0 z"
         style="fill:#628fca;fill-opacity:1;stroke:#ff6e0b;stroke-width:0;stroke-linecap:butt;stroke-linejoin:round;stroke-miterlimit:4;stroke-dasharray:none;stroke-dashoffset:0;stroke-opacity:1" />
      <path
         inkscape:connector-curvature="0"
         id="path4587"
         d="m 577.66561,863.51036 c 0.006,-0.0152 0.23493,-0.58447 0.50769,-1.26506 2.72051,-6.78834 5.28102,-13.94576 7.40894,-20.71023 l 0.3075,-0.97752 0.25008,-2.7e-4 c 0.22773,-2.5e-4 0.2491,0.003 0.23903,0.0384 -0.006,0.0213 -0.17184,0.55077 -0.36836,1.17667 -2.18623,6.96322 -4.64693,13.88654 -7.36097,20.71049 l -0.41966,1.05514 -0.288,0 c -0.22195,0 -0.28531,-0.006 -0.27625,-0.0276 l 0,0 z"
         style="fill:#628fca;fill-opacity:1;stroke:#ff6e0b;stroke-width:0;stroke-linecap:butt;stroke-linejoin:round;stroke-miterlimit:4;stroke-dasharray:none;stroke-dashoffset:0;stroke-opacity:1" />
      <path
         inkscape:connector-curvature="0"
         id="path4589"
         d="m 568.55458,883.86013 c 0,-0.005 0.16509,-0.34549 0.36688,-0.75745 2.77971,-5.67506 5.71272,-12.20587 8.17626,-18.20573 0.28444,-0.69274 0.52679,-1.28191 0.53854,-1.30925 0.0206,-0.0479 0.0318,-0.0497 0.30755,-0.0497 l 0.28618,0 -0.17733,0.43642 c -2.75732,6.78604 -5.42486,12.77631 -8.45511,18.98692 l -0.43665,0.89493 -0.30316,0.006 c -0.16674,0.003 -0.30316,0.002 -0.30316,-0.002 z"
         style="fill:#628fca;fill-opacity:1;stroke:#ff6e0b;stroke-width:0;stroke-linecap:butt;stroke-linejoin:round;stroke-miterlimit:4;stroke-dasharray:none;stroke-dashoffset:0;stroke-opacity:1" />
      <path
         inkscape:connector-curvature="0"
         id="path4591"
         d="m 560.35656,899.36768 c 0,-0.006 0.098,-0.18297 0.21776,-0.39222 2.04898,-3.5798 4.62726,-8.41939 6.90987,-12.97027 l 1.07232,-2.13789 0.29569,0 0.29568,0 -0.19996,0.41432 c -0.393,0.8143 -1.78557,3.55973 -2.676,5.27568 -1.52294,2.93486 -3.36066,6.3363 -4.79621,8.87732 l -0.53358,0.94446 -0.29279,1.8e-4 c -0.16103,1.1e-4 -0.29278,-0.005 -0.29278,-0.0116 z"
         style="fill:#628fca;fill-opacity:1;stroke:#ff6e0b;stroke-width:0;stroke-linecap:butt;stroke-linejoin:round;stroke-miterlimit:4;stroke-dasharray:none;stroke-dashoffset:0;stroke-opacity:1" />
      <path
         inkscape:connector-curvature="0"
         id="path4593"
         d="m 551.42933,914.06536 c 0,-0.005 0.17559,-0.28069 0.39019,-0.61319 2.73766,-4.24168 5.56081,-8.88394 8.03051,-13.205 l 0.49548,-0.86691 0.29279,-4e-4 c 0.16103,-2.3e-4 0.29278,0.003 0.29278,0.008 0,0.057 -2.36461,4.11848 -3.52,6.046 -1.53835,2.56637 -3.95457,6.45808 -5.15492,8.3028 l -0.21916,0.33681 -0.30383,1.7e-4 c -0.16711,1e-4 -0.30384,-0.004 -0.30384,-0.008 z"
         style="fill:#628fca;fill-opacity:1;stroke:#ff6e0b;stroke-width:0;stroke-linecap:butt;stroke-linejoin:round;stroke-miterlimit:4;stroke-dasharray:none;stroke-dashoffset:0;stroke-opacity:1" />
      <path
         inkscape:connector-curvature="0"
         id="path4595"
         d="m 536.00557,935.67413 c 0,-0.006 0.43055,-0.56529 0.95679,-1.24296 3.7404,-4.81677 7.36279,-9.8027 10.9209,-15.03176 0.70319,-1.03342 2.42261,-3.61503 3.05,-4.57938 l 0.48503,-0.74555 0.30601,-2.3e-4 0.30602,-2.3e-4 -0.043,0.0718 c -0.13925,0.23226 -1.47363,2.26364 -2.36963,3.60735 -3.81874,5.72691 -8.11823,11.71196 -12.16332,16.93179 l -0.77479,0.9998 -0.33698,1.1e-4 c -0.18534,4e-5 -0.33698,-0.005 -0.33698,-0.0108 z"
         style="fill:#628fca;fill-opacity:1;stroke:#ff6e0b;stroke-width:0;stroke-linecap:butt;stroke-linejoin:round;stroke-miterlimit:4;stroke-dasharray:none;stroke-dashoffset:0;stroke-opacity:1" />
      <path
         inkscape:connector-curvature="0"
         id="path4597"
         d="m 518.91785,955.62206 c 0.68555,-0.72596 2.72007,-2.94629 3.84204,-4.19292 4.02272,-4.46966 8.00464,-9.17137 11.73382,-13.85487 0.61933,-0.77782 1.20933,-1.52111 1.31112,-1.65176 l 0.18506,-0.23754 0.3406,0 c 0.26676,0 0.33694,0.006 0.3237,0.0276 -0.0381,0.0622 -0.7013,0.90517 -1.7951,2.28152 -4.45493,5.60574 -9.25554,11.21564 -14.06674,16.43809 -0.69309,0.75234 -1.28823,1.40116 -1.32254,1.44184 l -0.0624,0.074 -0.39869,0 -0.39868,0 0.30778,-0.32594 z"
         style="fill:#628fca;fill-opacity:1;stroke:#ff6e0b;stroke-width:0;stroke-linecap:butt;stroke-linejoin:round;stroke-miterlimit:4;stroke-dasharray:none;stroke-dashoffset:0;stroke-opacity:1" />
      <path
         inkscape:connector-curvature="0"
         id="path4599"
         d="m 496.71774,977.065 c 0.0178,-0.0165 0.3953,-0.34682 0.8389,-0.73415 2.91413,-2.54445 6.87563,-6.18495 9.99893,-9.1887 3.34726,-3.21914 7.16757,-7.07066 10.06649,-10.14872 l 0.98205,-1.04274 0.39706,-10e-4 0.39705,-10e-4 -0.123,0.12705 c -0.0676,0.0699 -0.60927,0.64383 -1.2036,1.27544 -5.94534,6.3183 -13.26141,13.38825 -19.72985,19.06615 l -0.7727,0.67827 -0.44185,0 c -0.37273,0 -0.43678,-0.005 -0.40948,-0.0299 z"
         style="fill:#628fca;fill-opacity:1;stroke:#ff6e0b;stroke-width:0;stroke-linecap:butt;stroke-linejoin:round;stroke-miterlimit:4;stroke-dasharray:none;stroke-dashoffset:0;stroke-opacity:1" />
      <path
         inkscape:connector-curvature="0"
         id="path4601"
         d="m 469.60321,998.1357 c 0.0301,-0.0206 0.746,-0.5205 1.59099,-1.11083 6.86789,-4.79801 13.61817,-9.95022 20.13106,-15.36521 1.36359,-1.13372 3.86247,-3.25611 4.85031,-4.11953 l 0.50823,-0.44423 0.18783,0.002 c 0.1033,10e-4 0.29422,0.009 0.42425,0.0161 l 0.23643,0.0138 -0.63418,0.55378 c -7.96534,6.95555 -17.21614,14.15274 -26.11884,20.32064 l -0.24979,0.17306 -0.49046,-0.001 c -0.46824,-10e-4 -0.48799,-0.003 -0.43583,-0.0387 l 0,0 z"
         style="fill:#628fca;fill-opacity:1;stroke:#ff6e0b;stroke-width:0;stroke-linecap:butt;stroke-linejoin:round;stroke-miterlimit:4;stroke-dasharray:none;stroke-dashoffset:0;stroke-opacity:1" />
      <path
         inkscape:connector-curvature="0"
         id="path4603"
         d="m 452.16922,1009.6117 c 0,-0.1625 -0.008,-0.2989 -0.0185,-0.3029 -0.0102,0 0.52424,-0.3306 1.18759,-0.7255 4.6546,-2.7716 10.00414,-6.1863 14.71926,-9.39557 l 1.49211,-1.01558 0.4735,0.003 c 0.26043,10e-4 0.47623,0.005 0.47956,0.009 0.0119,0.0119 -2.83584,1.94815 -4.27978,2.91005 -4.36277,2.9063 -9.48565,6.1235 -13.74991,8.635 l -0.30384,0.179 0,-0.2956 z"
         style="fill:#628fca;fill-opacity:1;stroke:#ff6e0b;stroke-width:0;stroke-linecap:butt;stroke-linejoin:round;stroke-miterlimit:4;stroke-dasharray:none;stroke-dashoffset:0;stroke-opacity:1" />
    </g>
  </g>
</svg>
