<?xml version="1.0" encoding="UTF-8" standalone="no"?>
<!-- Generator: Adobe Illustrator 16.0.0, SVG Export Plug-In . SVG Version: 6.00 Build 0)  -->

<svg
   xmlns:dc="http://purl.org/dc/elements/1.1/"
   xmlns:cc="http://creativecommons.org/ns#"
   xmlns:rdf="http://www.w3.org/1999/02/22-rdf-syntax-ns#"
   xmlns:svg="http://www.w3.org/2000/svg"
   xmlns="http://www.w3.org/2000/svg"
   xmlns:xlink="http://www.w3.org/1999/xlink"
   xmlns:sodipodi="http://sodipodi.sourceforge.net/DTD/sodipodi-0.dtd"
   xmlns:inkscape="http://www.inkscape.org/namespaces/inkscape"
   version="1.1"
   id="Layer_1"
   x="0px"
   y="0px"
   width="48px"
   height="48px"
   viewBox="0 0 48 48"
   enable-background="new 0 0 48 48"
   xml:space="preserve"
   inkscape:version="0.48.4 r9939"
   sodipodi:docname="budget-48.svg"><metadata
     id="metadata3219"><rdf:RDF><cc:Work
         rdf:about=""><dc:format>image/svg+xml</dc:format><dc:type
           rdf:resource="http://purl.org/dc/dcmitype/StillImage" /></cc:Work></rdf:RDF></metadata><defs
     id="defs3217"><radialGradient
       cx="32"
       cy="41.5"
       r="21"
       fx="32"
       fy="41.5"
       id="radialGradient3831"
       xlink:href="#linearGradient5060"
       gradientUnits="userSpaceOnUse"
       gradientTransform="matrix(1,0,0,0.35714286,0,26.678571)" /><linearGradient
       id="linearGradient5060"><stop
         id="stop5062"
         style="stop-color:#000000;stop-opacity:1"
         offset="0" /><stop
         id="stop5064"
         style="stop-color:#000000;stop-opacity:0"
         offset="1" /></linearGradient><radialGradient
       r="21"
       fy="41.5"
       fx="32"
       cy="41.5"
       cx="32"
       gradientTransform="matrix(0.53115063,0,0,0.2452008,5.8753976,24.68814)"
       gradientUnits="userSpaceOnUse"
       id="radialGradient8133"
       xlink:href="#linearGradient5060"
       inkscape:collect="always" /><radialGradient
       r="21"
       fy="41.5"
       fx="32"
       cy="41.5"
       cx="32"
       gradientTransform="matrix(0.53115063,0,0,0.2452008,5.796255,23.993993)"
       gradientUnits="userSpaceOnUse"
       id="radialGradient8133-7"
       xlink:href="#linearGradient5060-2"
       inkscape:collect="always" /><linearGradient
       id="linearGradient5060-2"><stop
         id="stop5062-4"
         style="stop-color:#000000;stop-opacity:1"
         offset="0" /><stop
         id="stop5064-2"
         style="stop-color:#000000;stop-opacity:0"
         offset="1" /></linearGradient><radialGradient
       r="21"
       fy="41.5"
       fx="32"
       cy="41.5"
       cx="32"
       gradientTransform="matrix(0.31821929,0,0,0.15286774,21.751031,33.425155)"
       gradientUnits="userSpaceOnUse"
       id="radialGradient8677"
       xlink:href="#linearGradient5060-2"
       inkscape:collect="always" /><radialGradient
       r="21"
       fy="41.5"
       fx="32"
       cy="41.5"
       cx="32"
       gradientTransform="matrix(0.31821929,0,0,0.15286774,21.751031,33.425155)"
       gradientUnits="userSpaceOnUse"
       id="radialGradient8677-8"
       xlink:href="#linearGradient5060-2-2"
       inkscape:collect="always" /><linearGradient
       id="linearGradient5060-2-2"><stop
         id="stop5062-4-3"
         style="stop-color:#000000;stop-opacity:1"
         offset="0" /><stop
         id="stop5064-2-8"
         style="stop-color:#000000;stop-opacity:0"
         offset="1" /></linearGradient><radialGradient
       r="21"
       fy="41.5"
       fx="32"
       cy="41.5"
       cx="32"
       gradientTransform="matrix(0.26168885,0,0,0.12271817,4.1700629,35.072075)"
       gradientUnits="userSpaceOnUse"
       id="radialGradient8711"
       xlink:href="#linearGradient5060-2-2"
       inkscape:collect="always" /><radialGradient
       r="21"
       fy="41.5"
       fx="32"
       cy="41.5"
       cx="32"
       gradientTransform="matrix(0.26168885,0,0,0.12271817,4.1700629,35.072075)"
       gradientUnits="userSpaceOnUse"
       id="radialGradient8711-3"
       xlink:href="#linearGradient5060-2-2-8"
       inkscape:collect="always" /><linearGradient
       id="linearGradient5060-2-2-8"><stop
         id="stop5062-4-3-2"
         style="stop-color:#000000;stop-opacity:1"
         offset="0" /><stop
         id="stop5064-2-8-3"
         style="stop-color:#000000;stop-opacity:0"
         offset="1" /></linearGradient><radialGradient
       r="21"
       fy="41.5"
       fx="32"
       cy="41.5"
       cx="32"
       gradientTransform="matrix(0.26168885,0,0,0.12271817,23.480863,35.072075)"
       gradientUnits="userSpaceOnUse"
       id="radialGradient8745"
       xlink:href="#linearGradient5060-2-2-8"
       inkscape:collect="always" /></defs><sodipodi:namedview
     pagecolor="#ffffff"
     bordercolor="#666666"
     borderopacity="1"
     objecttolerance="10"
     gridtolerance="10"
     guidetolerance="10"
     inkscape:pageopacity="0"
     inkscape:pageshadow="2"
     inkscape:window-width="2560"
     inkscape:window-height="1385"
     id="namedview3215"
     showgrid="false"
     inkscape:zoom="1"
     inkscape:cx="24"
     inkscape:cy="24"
     inkscape:window-x="0"
     inkscape:window-y="30"
     inkscape:window-maximized="1"
     inkscape:current-layer="Layer_1"><inkscape:grid
       type="xygrid"
       id="grid8152" /></sodipodi:namedview><path
     d="m 37.350372,40.16488 a 5.495466,2.5770818 0 0 1 -10.990932,0 5.495466,2.5770818 0 1 1 10.990932,0 z"
     inkscape:connector-curvature="0"
     id="path3823-5-0-1"
     style="opacity:0.33333333;fill:url(#radialGradient8745);fill-opacity:1;stroke:none" /><path
     d="m 18.039572,40.16488 a 5.495466,2.5770818 0 0 1 -10.990932,0 5.495466,2.5770818 0 1 1 10.990932,0 z"
     inkscape:connector-curvature="0"
     id="path3823-5-0"
     style="opacity:0.33333333;fill:url(#radialGradient8711);fill-opacity:1;stroke:none" /><path
     d="m 34.026381,34.863974 a 11.154163,5.1492168 0 0 1 -22.308326,0 11.154163,5.1492168 0 1 1 22.308326,0 z"
     inkscape:connector-curvature="0"
     id="path3823"
     style="opacity:0.33333333;fill:url(#radialGradient8133);fill-opacity:1;stroke:none" /><g
     id="g3142"><path
       fill="#FF5662"
       stroke="#EF2929"
       stroke-miterlimit="10"
       stroke-opacity="0.5"
       d="M45.748,21.852   c-0.275,0-0.92-0.308-1.602-0.731c0.064-0.452,0.102-0.955,0.102-1.519c0-3.062-2.18-3.07-3-2.25   c-0.877,0.876-0.873,3.163,1.093,4.409c-0.565,0.9-1.608,1.478-3.343,0.84v1.5c0,0,0.141,0.75,1.5,0.75   c1.018,0,2.611-0.355,3.35-2.467c0.551,0.135,1.176,0.217,1.9,0.217C47.553,22.602,46.498,21.852,45.748,21.852z M41.998,18.852   c0.594-0.877,1.012,0.125,0.868,1.348C42.233,19.666,41.805,19.139,41.998,18.852z"
       id="path3144" /><radialGradient
       id="SVGID_1_"
       cx="20.4683"
       cy="24.5898"
       r="17.3381"
       gradientTransform="matrix(-4.371139e-008 1 -1.8 -7.868050e-008 64.73 4.1216)"
       gradientUnits="userSpaceOnUse"><stop
         offset="0.26"
         style="stop-color:#FF7D96"
         id="stop3147" /><stop
         offset="0.66"
         style="stop-color:#FF667C"
         id="stop3149" /><stop
         offset="1"
         style="stop-color:#FF5662"
         id="stop3151" /></radialGradient><path
       fill="url(#SVGID_1_)"
       stroke="#EF2929"
       stroke-miterlimit="10"
       stroke-opacity="0.5"
       d="M13.5,11.352c0,0-3.908-4.342-6-2.25   c0,0,3.118,4.282,0.75,6c-2.368,1.718-3,6-3,6s-2.228,0.728-3,1.5c-0.772,0.772,0.047,5.297,0.75,6s3.75,0,3.75,0   c0,1.814,2.392,3.808,3.75,4.5v6.749c0,0,0.804,0.933,2.25,0.751l3.75-5.25c3.282,1.171,9.458,0.994,12,0l3.749,5.25   c0,0,1.163,0.326,2.25-0.751v-6.749c0,0,4.5-2.396,4.5-9.75C38.998,5.346,13.5,11.352,13.5,11.352z"
       id="path3153" /><g
       id="g3155"><defs
         id="defs3157"><path
           id="SVGID_2_"
           d="M32.535,40.142c0.295,0.024,0.888-0.019,1.463-0.51v-6.829l0.264-0.143     c0.174-0.094,4.236-2.372,4.236-9.309c0-10.299-8.709-12.461-16.017-12.461c-4.786,0-8.827,0.939-8.867,0.949l-0.288,0.068     l-0.198-0.22c-0.666-0.738-2.727-2.654-4.247-2.654c-0.264,0-0.498,0.058-0.707,0.176c0.544,0.85,1.689,2.881,1.423,4.565     c-0.115,0.726-0.469,1.309-1.054,1.733c-2.172,1.576-2.792,5.627-2.798,5.667L5.7,21.48l-0.294,0.096     c-0.588,0.192-2.239,0.815-2.802,1.378c-0.471,0.505,0.118,4.661,0.75,5.293c0.007,0.007,0.175,0.166,0.931,0.166     c1.042,0,2.34-0.297,2.353-0.3l0.612-0.142v0.629c0,1.469,2.056,3.33,3.477,4.055L11,32.795v6.843     c0.218,0.183,0.714,0.521,1.478,0.485l3.835-5.369l0.355,0.127c1.397,0.498,3.522,0.783,5.832,0.783     c2.36,0,4.588-0.298,5.817-0.779l0.363-0.141L32.535,40.142z" /></defs><clipPath
         id="SVGID_3_"><use
           xlink:href="#SVGID_2_"
           overflow="visible"
           id="use3161" /></clipPath><linearGradient
         id="SVGID_4_"
         gradientUnits="userSpaceOnUse"
         x1="20.4658"
         y1="8.0322"
         x2="20.4658"
         y2="41.147"><stop
           offset="0"
           style="stop-color:#FFFFFF"
           id="stop3164" /><stop
           offset="0.3333"
           style="stop-color:#FFFFFF;stop-opacity:0.2353"
           id="stop3166" /><stop
           offset="0.9506"
           style="stop-color:#FFFFFF;stop-opacity:0.1569"
           id="stop3168" /><stop
           offset="1"
           style="stop-color:#FFFFFF;stop-opacity:0.3922"
           id="stop3170" /></linearGradient><path
         opacity="0.5"
         clip-path="url(#SVGID_3_)"
         fill="none"
         stroke="url(#SVGID_4_)"
         stroke-width="2"
         stroke-miterlimit="10"
         stroke-opacity="0.8"
         d="    M32.535,40.142c0.295,0.024,0.888-0.019,1.463-0.51v-6.829l0.264-0.143c0.174-0.094,4.236-2.372,4.236-9.309    c0-10.299-8.709-12.461-16.017-12.461c-4.786,0-8.827,0.939-8.867,0.949l-0.288,0.068l-0.198-0.22    c-0.666-0.738-2.727-2.654-4.247-2.654c-0.264,0-0.498,0.058-0.707,0.176c0.544,0.85,1.689,2.881,1.423,4.565    c-0.115,0.726-0.469,1.309-1.054,1.733c-2.172,1.576-2.792,5.627-2.798,5.667L5.7,21.48l-0.294,0.096    c-0.588,0.192-2.239,0.815-2.802,1.378c-0.471,0.505,0.118,4.661,0.75,5.293c0.007,0.007,0.175,0.166,0.931,0.166    c1.042,0,2.34-0.297,2.353-0.3l0.612-0.142v0.629c0,1.469,2.056,3.33,3.477,4.055L11,32.795v6.843    c0.218,0.183,0.714,0.521,1.478,0.485l3.835-5.369l0.355,0.127c1.397,0.498,3.522,0.783,5.832,0.783    c2.36,0,4.588-0.298,5.817-0.779l0.363-0.141L32.535,40.142z"
         id="path3172" /></g><radialGradient
       id="SVGID_5_"
       cx="23.249"
       cy="9.4146"
       r="4.6937"
       gradientUnits="userSpaceOnUse"><stop
         offset="0"
         style="stop-color:#EDD400"
         id="stop3175" /><stop
         offset="0.703"
         style="stop-color:#DBBA16"
         id="stop3177" /><stop
         offset="1"
         style="stop-color:#CCAB09"
         id="stop3179" /></radialGradient><path
       fill="url(#SVGID_5_)"
       stroke="#C4A000"
       stroke-miterlimit="10"
       stroke-opacity="0.5"
       d="M23.249,12.852   c2.044,0,3.452,0.296,4.39,0.625c0.543-0.826,0.86-1.813,0.86-2.874c0-2.9-2.351-5.25-5.25-5.25s-5.25,2.35-5.25,5.25   c0,1.062,0.318,2.048,0.86,2.874C19.797,13.148,21.206,12.852,23.249,12.852z"
       id="path3181" /><path
       fill="none"
       stroke="#EF2929"
       stroke-miterlimit="10"
       stroke-opacity="0.8"
       d="M29.248,14.352c0,0-1.396-1.5-5.999-1.5   c-4.603,0-6,1.5-6,1.5"
       id="path3183" /><linearGradient
       id="SVGID_6_"
       gradientUnits="userSpaceOnUse"
       x1="23.249"
       y1="13.3521"
       x2="23.249"
       y2="15.3965"><stop
         offset="0"
         style="stop-color:#FFFFFF"
         id="stop3186" /><stop
         offset="0.3333"
         style="stop-color:#FFFFFF;stop-opacity:0.2353"
         id="stop3188" /><stop
         offset="0.9506"
         style="stop-color:#FFFFFF;stop-opacity:0.1569"
         id="stop3190" /><stop
         offset="1"
         style="stop-color:#FFFFFF;stop-opacity:0.3922"
         id="stop3192" /></linearGradient><path
       opacity="0.5"
       fill="none"
       stroke="url(#SVGID_6_)"
       stroke-miterlimit="10"
       stroke-opacity="0.8"
       d="M28.451,15.04   c0,0-1.211-1.188-5.202-1.188c-3.992,0-5.203,1.188-5.203,1.188"
       id="path3194" /><g
       id="g3196"><defs
         id="defs3198"><path
           id="SVGID_7_"
           d="M23.249,12.352c1.604,0,3.003,0.177,4.167,0.526c0.383-0.697,0.583-1.477,0.583-2.276     c0-2.619-2.131-4.75-4.75-4.75s-4.75,2.131-4.75,4.75c0,0.799,0.201,1.579,0.583,2.276     C20.246,12.529,21.645,12.352,23.249,12.352z" /></defs><clipPath
         id="SVGID_8_"><use
           xlink:href="#SVGID_7_"
           overflow="visible"
           id="use3202" /></clipPath><linearGradient
         id="SVGID_9_"
         gradientUnits="userSpaceOnUse"
         x1="23.2485"
         y1="4.8525"
         x2="23.2485"
         y2="14.0688"><stop
           offset="0"
           style="stop-color:#FFFFFF"
           id="stop3205" /><stop
           offset="0.3333"
           style="stop-color:#FFFFFF;stop-opacity:0.2353"
           id="stop3207" /><stop
           offset="0.9506"
           style="stop-color:#FFFFFF;stop-opacity:0.1569"
           id="stop3209" /><stop
           offset="1"
           style="stop-color:#FFFFFF;stop-opacity:0.3922"
           id="stop3211" /></linearGradient><path
         opacity="0.5"
         clip-path="url(#SVGID_8_)"
         fill="none"
         stroke="url(#SVGID_9_)"
         stroke-width="2"
         stroke-miterlimit="10"
         stroke-opacity="0.8"
         d="    M23.249,12.352c1.604,0,3.003,0.177,4.167,0.526c0.383-0.697,0.583-1.477,0.583-2.276c0-2.619-2.131-4.75-4.75-4.75    s-4.75,2.131-4.75,4.75c0,0.799,0.201,1.579,0.583,2.276C20.246,12.529,21.645,12.352,23.249,12.352z"
         id="path3213" /></g></g></svg>