<?xml version="1.0" encoding="UTF-8" standalone="no"?>
<!-- Generator: Adobe Illustrator 16.0.0, SVG Export Plug-In . SVG Version: 6.00 Build 0)  -->

<svg
   xmlns:dc="http://purl.org/dc/elements/1.1/"
   xmlns:cc="http://creativecommons.org/ns#"
   xmlns:rdf="http://www.w3.org/1999/02/22-rdf-syntax-ns#"
   xmlns:svg="http://www.w3.org/2000/svg"
   xmlns="http://www.w3.org/2000/svg"
   xmlns:xlink="http://www.w3.org/1999/xlink"
   xmlns:sodipodi="http://sodipodi.sourceforge.net/DTD/sodipodi-0.dtd"
   xmlns:inkscape="http://www.inkscape.org/namespaces/inkscape"
   version="1.1"
   id="Layer_1"
   x="0px"
   y="0px"
   width="128px"
   height="128px"
   viewBox="0 0 128 128"
   enable-background="new 0 0 128 128"
   xml:space="preserve"
   inkscape:version="0.48.4 r9939"
   sodipodi:docname="budget-128.svg"><metadata
     id="metadata80"><rdf:RDF><cc:Work
         rdf:about=""><dc:format>image/svg+xml</dc:format><dc:type
           rdf:resource="http://purl.org/dc/dcmitype/StillImage" /></cc:Work></rdf:RDF></metadata><defs
     id="defs78"><radialGradient
       cx="23.334524"
       cy="41.63604"
       r="22.627417"
       fx="23.334524"
       fy="41.63604"
       id="radialGradient2584"
       xlink:href="#linearGradient23419"
       gradientUnits="userSpaceOnUse"
       gradientTransform="matrix(2.6516504,0,0,0.7954211,2.1249955,72.881817)" /><linearGradient
       id="linearGradient23419"><stop
         id="stop23421"
         style="stop-color:#000000;stop-opacity:1"
         offset="0" /><stop
         id="stop23423"
         style="stop-color:#000000;stop-opacity:0"
         offset="1" /></linearGradient><radialGradient
       r="22.627417"
       fy="41.63604"
       fx="23.334524"
       cy="41.63604"
       cx="23.334524"
       gradientTransform="matrix(1.7235727,0,0,0.7954211,17.517201,54.879027)"
       gradientUnits="userSpaceOnUse"
       id="radialGradient3120"
       xlink:href="#linearGradient23419"
       inkscape:collect="always" /><radialGradient
       r="22.627417"
       fy="41.63604"
       fx="23.334524"
       cy="41.63604"
       cx="23.334524"
       gradientTransform="matrix(1.7235727,0,0,0.7954211,16.461966,57.939208)"
       gradientUnits="userSpaceOnUse"
       id="radialGradient3120-2"
       xlink:href="#linearGradient23419-1"
       inkscape:collect="always" /><linearGradient
       id="linearGradient23419-1"><stop
         id="stop23421-2"
         style="stop-color:#000000;stop-opacity:1"
         offset="0" /><stop
         id="stop23423-7"
         style="stop-color:#000000;stop-opacity:0"
         offset="1" /></linearGradient><radialGradient
       r="22.627417"
       fy="41.63604"
       fx="23.334524"
       cy="41.63604"
       cx="23.334524"
       gradientTransform="matrix(0.50172953,0,0,0.24284485,21.215709,97.470108)"
       gradientUnits="userSpaceOnUse"
       id="radialGradient9443"
       xlink:href="#linearGradient23419-1"
       inkscape:collect="always" /><radialGradient
       r="22.627417"
       fy="41.63604"
       fx="23.334524"
       cy="41.63604"
       cx="23.334524"
       gradientTransform="matrix(0.5646871,0,0,0.24284485,21.171191,97.470108)"
       gradientUnits="userSpaceOnUse"
       id="radialGradient9443-7"
       xlink:href="#linearGradient23419-1-6"
       inkscape:collect="always" /><linearGradient
       id="linearGradient23419-1-6"><stop
         id="stop23421-2-3"
         style="stop-color:#000000;stop-opacity:1"
         offset="0" /><stop
         id="stop23423-7-5"
         style="stop-color:#000000;stop-opacity:0"
         offset="1" /></linearGradient><radialGradient
       r="22.627417"
       fy="41.63604"
       fx="23.334524"
       cy="41.63604"
       cx="23.334524"
       gradientTransform="matrix(0.52737891,0,0,0.24284485,75.542172,97.681155)"
       gradientUnits="userSpaceOnUse"
       id="radialGradient9477"
       xlink:href="#linearGradient23419-1-6"
       inkscape:collect="always" /></defs><sodipodi:namedview
     pagecolor="#ffffff"
     bordercolor="#666666"
     borderopacity="1"
     objecttolerance="10"
     gridtolerance="10"
     guidetolerance="10"
     inkscape:pageopacity="0"
     inkscape:pageshadow="2"
     inkscape:window-width="2560"
     inkscape:window-height="1385"
     id="namedview76"
     showgrid="false"
     inkscape:zoom="1"
     inkscape:cx="64"
     inkscape:cy="64"
     inkscape:window-x="0"
     inkscape:window-y="30"
     inkscape:window-maximized="1"
     inkscape:current-layer="Layer_1" /><path
     d="m 99.781533,107.79226 c 6.12e-4,3.03497 -5.34225,5.49546 -11.933223,5.49546 -6.590971,0 -11.933838,-2.46049 -11.933223,-5.49546 -5.81e-4,-3.03498 5.342252,-5.49547 11.933223,-5.49547 6.590973,0 11.933838,2.46049 11.933223,5.49547 l 0,0 z"
     inkscape:connector-curvature="0"
     id="path23417-9-4"
     style="opacity:0.1372549;fill:url(#radialGradient9477);fill-opacity:1;fill-rule:evenodd;stroke:none;stroke-width:2;marker:none;visibility:visible;display:inline;overflow:visible" /><path
     d="m 44.276175,107.58121 c 5.82e-4,3.03497 -5.082427,5.49546 -11.352844,5.49546 -6.270416,0 -11.353429,-2.46049 -11.352844,-5.49546 -5.53e-4,-3.03498 5.082428,-5.49547 11.352844,-5.49547 6.270417,0 11.353428,2.46049 11.352844,5.49547 l 0,0 z"
     inkscape:connector-curvature="0"
     id="path23417-9"
     style="opacity:0.1372549;fill:url(#radialGradient9443);fill-opacity:1;fill-rule:evenodd;stroke:none;stroke-width:2;marker:none;visibility:visible;display:inline;overflow:visible" /><path
     d="m 96.735954,87.997197 c 0.0018,9.940842 -17.459472,18.000003 -38.999997,18.000003 -21.540525,0 -39.002009,-8.059161 -39,-18.000003 -0.0019,-9.94084 17.459475,-17.99999 39,-17.99999 21.540525,0 39.002009,8.05915 38.999997,17.99999 l 0,0 z"
     inkscape:connector-curvature="0"
     id="path23417"
     style="opacity:0.16176471;fill:url(#radialGradient3120);fill-opacity:1;fill-rule:evenodd;stroke:none;stroke-width:2;marker:none;visibility:visible;display:inline;overflow:visible" /><g
     id="g3"><path
       stroke-miterlimit="10"
       d="M122.5,58.938   c-0.734,0-2.453-0.82-4.271-1.949c0.174-1.204,0.271-2.546,0.271-4.051c0-8.164-5.813-8.187-8-6   c-2.338,2.338-2.33,8.436,2.914,11.758c-1.508,2.4-4.291,3.941-8.914,2.242v4c0,0,0.375,2,4,2c2.713,0,6.963-0.947,8.932-6.58   c1.469,0.36,3.137,0.58,5.068,0.58C127.313,60.938,124.5,58.938,122.5,58.938z M112.5,50.938c1.586-2.34,2.697,0.333,2.314,3.594   C113.127,53.108,111.982,51.702,112.5,50.938z"
       id="path5"
       stroke-opacity="0.5"
       stroke="#EF2929"
       fill="#FF5662" /><radialGradient
       id="SVGID_1_"
       cx="-68.7139"
       cy="-23.1367"
       r="23.1184"
       gradientTransform="matrix(-8.742278e-008 2 -3.6 -1.573610e-007 -28.2083 203.668)"
       gradientUnits="userSpaceOnUse"><stop
         offset="0.26"
         style="stop-color:#FF7D96"
         id="stop8" /><stop
         offset="0.66"
         style="stop-color:#FF667C"
         id="stop10" /><stop
         offset="1"
         style="stop-color:#FF5662"
         id="stop12" /></radialGradient><path
       stroke-miterlimit="10"
       d="M36.5,30.938   c0,0-10.422-11.579-16-6.001c0,0,8.314,11.419,2,16.001s-8,15.999-8,15.999s-5.94,1.94-8,4s0.125,14.126,2,16.001s10,0,10,0   c0,4.841,6.379,10.154,10,12.001v17.998c0,0,2.144,2.485,6,2.001l10-14c8.753,3.123,25.224,2.651,32,0l10,14c0,0,3.1,0.871,6-2.001   V88.938c0,0,12-6.39,12-26.001C104.5,14.919,36.5,30.938,36.5,30.938z"
       id="path14"
       stroke-opacity="0.5"
       stroke="#EF2929"
       fill="url(#SVGID_1_)" /><g
       id="g16"
       opacity="0.5"><defs
         id="defs18"><path
           id="SVGID_2_"
           d="M86.795,108.49c0.17,0.031,0.469,0.071,0.854,0.071c1.106,0,2.746-0.323,4.352-1.837V88.639     l0.266-0.143C92.383,88.434,104,81.989,104,62.937c0-28.155-23.68-34.064-43.545-34.064c-12.858,0-23.731,2.526-23.84,2.552     l-0.288,0.068l-0.198-0.22c-0.066-0.073-6.685-7.354-11.944-7.354c-1.175,0-2.168,0.357-3.024,1.089     c1.051,1.537,4.862,7.508,4.111,12.259c-0.27,1.708-1.104,3.08-2.477,4.077c-6.074,4.407-7.782,15.555-7.799,15.667l-0.045,0.306     l-0.294,0.096c-0.058,0.019-5.851,1.927-7.802,3.878c-0.767,0.767-0.901,3.839-0.334,7.643c0.531,3.562,1.535,6.852,2.334,7.651     c0.313,0.313,1.101,0.688,3.072,0.688c2.873,0,6.426-0.813,6.462-0.821L19,76.309v0.629c0,4.66,6.335,9.826,9.727,11.556     L29,88.633v18.102c0.475,0.461,2.307,2.014,5.223,1.73l10.09-14.125l0.355,0.127c3.812,1.359,9.583,2.14,15.833,2.14     c6.391,0,12.451-0.817,15.816-2.135l0.363-0.142L86.795,108.49z"
           opacity="0.5" /></defs><clipPath
         id="SVGID_3_"><use
           xlink:href="#SVGID_2_"
           overflow="visible"
           id="use22" /></clipPath><linearGradient
         id="SVGID_4_"
         gradientUnits="userSpaceOnUse"
         x1="55.0854"
         y1="22.9175"
         x2="55.0854"
         y2="109.562"><stop
           offset="0"
           style="stop-color:#FFFFFF"
           id="stop25" /><stop
           offset="0.3333"
           style="stop-color:#FFFFFF;stop-opacity:0.2353"
           id="stop27" /><stop
           offset="0.9506"
           style="stop-color:#FFFFFF;stop-opacity:0.1569"
           id="stop29" /><stop
           offset="1"
           style="stop-color:#FFFFFF;stop-opacity:0.3922"
           id="stop31" /></linearGradient><path
         clip-path="url(#SVGID_3_)"
         d="M86.795,108.49    c0.17,0.031,0.469,0.071,0.854,0.071c1.106,0,2.746-0.323,4.352-1.837V88.639l0.266-0.143C92.383,88.434,104,81.989,104,62.937    c0-28.155-23.68-34.064-43.545-34.064c-12.858,0-23.731,2.526-23.84,2.552l-0.288,0.068l-0.198-0.22    c-0.066-0.073-6.685-7.354-11.944-7.354c-1.175,0-2.168,0.357-3.024,1.089c1.051,1.537,4.862,7.508,4.111,12.259    c-0.27,1.708-1.104,3.08-2.477,4.077c-6.074,4.407-7.782,15.555-7.799,15.667l-0.045,0.306l-0.294,0.096    c-0.058,0.019-5.851,1.927-7.802,3.878c-0.767,0.767-0.901,3.839-0.334,7.643c0.531,3.562,1.535,6.852,2.334,7.651    c0.313,0.313,1.101,0.688,3.072,0.688c2.873,0,6.426-0.813,6.462-0.821L19,76.309v0.629c0,4.66,6.335,9.826,9.727,11.556    L29,88.633v18.102c0.475,0.461,2.307,2.014,5.223,1.73l10.09-14.125l0.355,0.127c3.812,1.359,9.583,2.14,15.833,2.14    c6.391,0,12.451-0.817,15.816-2.135l0.363-0.142L86.795,108.49z"
         id="path33"
         stroke-width="2"
         stroke="url(#SVGID_4_)"
         fill="none"
         opacity="0.5" /></g><radialGradient
       id="SVGID_5_"
       cx="-65.0059"
       cy="-43.3721"
       r="6.2583"
       gradientTransform="matrix(2 0 0 2 192.5117 112.5137)"
       gradientUnits="userSpaceOnUse"><stop
         offset="0"
         style="stop-color:#EDD400"
         id="stop36" /><stop
         offset="0.703"
         style="stop-color:#DBBA16"
         id="stop38" /><stop
         offset="1"
         style="stop-color:#CCAB09"
         id="stop40" /></radialGradient><path
       stroke-miterlimit="10"
       d="M62.5,34.938   c5.449,0,9.207,0.788,11.708,1.665c1.445-2.203,2.291-4.833,2.291-7.665c0-7.732-6.268-14-14-14c-7.732,0-14,6.268-14,14   c0,2.832,0.847,5.462,2.292,7.665C53.294,35.726,57.051,34.938,62.5,34.938z"
       id="path42"
       stroke-opacity="0.5"
       stroke="#C4A000"
       fill="url(#SVGID_5_)" /><path
       stroke-miterlimit="10"
       d="M78.5,38.938c0,0-3.725-4-16-4   c-12.275,0-16,4-16,4"
       id="path44"
       stroke-opacity="0.8"
       stroke="#EF2929"
       fill="none" /><g
       id="g46"><defs
         id="defs48"><path
           id="SVGID_6_"
           d="M62.5,34.438c4.492,0,8.357,0.526,11.498,1.565C75.309,33.875,76,31.44,76,28.938     c0-7.444-6.056-13.5-13.5-13.5S49,21.494,49,28.938c0,2.502,0.691,4.937,2.003,7.065C54.143,34.964,58.008,34.438,62.5,34.438z" /></defs><clipPath
         id="SVGID_7_"><use
           xlink:href="#SVGID_6_"
           overflow="visible"
           id="use52" /></clipPath><linearGradient
         id="SVGID_8_"
         gradientUnits="userSpaceOnUse"
         x1="62.5"
         y1="14.4375"
         x2="62.5"
         y2="37.2002"><stop
           offset="0"
           style="stop-color:#FFFFFF"
           id="stop55" /><stop
           offset="0.3333"
           style="stop-color:#FFFFFF;stop-opacity:0.2353"
           id="stop57" /><stop
           offset="0.9506"
           style="stop-color:#FFFFFF;stop-opacity:0.1569"
           id="stop59" /><stop
           offset="1"
           style="stop-color:#FFFFFF;stop-opacity:0.3922"
           id="stop61" /></linearGradient><path
         clip-path="url(#SVGID_7_)"
         d="M62.5,34.438    c4.492,0,8.357,0.526,11.498,1.565C75.309,33.875,76,31.44,76,28.938c0-7.444-6.056-13.5-13.5-13.5S49,21.494,49,28.938    c0,2.502,0.691,4.937,2.003,7.065C54.143,34.964,58.008,34.438,62.5,34.438z"
         id="path63"
         stroke-width="2"
         stroke="url(#SVGID_8_)"
         fill="none"
         opacity="0.5" /></g><linearGradient
       id="SVGID_9_"
       gradientUnits="userSpaceOnUse"
       x1="62.5796"
       y1="35.5024"
       x2="62.5796"
       y2="40.0273"><stop
         offset="0"
         style="stop-color:#FFFFFF"
         id="stop66" /><stop
         offset="0.3333"
         style="stop-color:#FFFFFF;stop-opacity:0.2353"
         id="stop68" /><stop
         offset="0.9506"
         style="stop-color:#FFFFFF;stop-opacity:0.1569"
         id="stop70" /><stop
         offset="1"
         style="stop-color:#FFFFFF;stop-opacity:0.3922"
         id="stop72" /></linearGradient><path
       stroke-miterlimit="10"
       d="M77.762,39.702   c0,0-3.172-3.7-15.447-3.7c-12.275,0-14.893,3.599-14.893,3.599"
       id="path74"
       stroke-opacity="0.8"
       stroke="url(#SVGID_9_)"
       fill="none"
       opacity="0.5" /></g></svg>