<?xml version="1.0" encoding="UTF-8" standalone="no"?>
<!-- Generator: Adobe Illustrator 16.0.0, SVG Export Plug-In . SVG Version: 6.00 Build 0)  -->

<svg
   xmlns:dc="http://purl.org/dc/elements/1.1/"
   xmlns:cc="http://creativecommons.org/ns#"
   xmlns:rdf="http://www.w3.org/1999/02/22-rdf-syntax-ns#"
   xmlns:svg="http://www.w3.org/2000/svg"
   xmlns="http://www.w3.org/2000/svg"
   xmlns:sodipodi="http://sodipodi.sourceforge.net/DTD/sodipodi-0.dtd"
   xmlns:inkscape="http://www.inkscape.org/namespaces/inkscape"
   version="1.1"
   id="Layer_1"
   x="0px"
   y="0px"
   width="154.18201"
   height="152.395"
   viewBox="0 0 154.182 152.395"
   enable-background="new 0 0 219.182 152.395"
   xml:space="preserve"
   inkscape:version="0.91 r13725"
   sodipodi:docname="Piggy-bw-color.svg"><metadata
     id="metadata21"><rdf:RDF><cc:Work
         rdf:about=""><dc:format>image/svg+xml</dc:format><dc:type
           rdf:resource="http://purl.org/dc/dcmitype/StillImage" /><dc:title></dc:title></cc:Work></rdf:RDF></metadata><defs
     id="defs19" /><sodipodi:namedview
     pagecolor="#ffffff"
     bordercolor="#666666"
     borderopacity="1"
     objecttolerance="10"
     gridtolerance="10"
     guidetolerance="10"
     inkscape:pageopacity="0"
     inkscape:pageshadow="2"
     inkscape:window-width="1920"
     inkscape:window-height="1016"
     id="namedview17"
     showgrid="false"
     inkscape:zoom="2.7922"
     inkscape:cx="32.617809"
     inkscape:cy="87.170774"
     inkscape:window-x="0"
     inkscape:window-y="27"
     inkscape:window-maximized="1"
     inkscape:current-layer="layer2" /><g
     inkscape:groupmode="layer"
     id="layer1"
     inkscape:label="Background"><ellipse
       style="opacity:1;fill:#f2f2f2;fill-opacity:1;stroke:#ff6e0b;stroke-width:0;stroke-linecap:butt;stroke-linejoin:round;stroke-miterlimit:4;stroke-dasharray:none;stroke-dashoffset:0;stroke-opacity:1"
       id="path3349"
       cx="77.321274"
       cy="76.678505"
       inkscape:export-xdpi="211.32841"
       inkscape:export-ydpi="211.32841"
       rx="76.283936"
       ry="75.925797" /></g><g
     inkscape:groupmode="layer"
     id="layer2"
     inkscape:label="Foreground"><g
       id="g3"
       transform="matrix(0.71717173,0,0,0.71380473,0.780473,20.049285)"
       inkscape:export-xdpi="27.213318"
       inkscape:export-ydpi="27.213318"><g
         id="g5"><path
           d="m 203.609,69.745 c 0,0 -0.247,-0.064 -0.71,-0.188 -0.466,-0.11 -1.133,-0.335 -1.965,-0.646 -0.351,-0.136 -0.735,-0.301 -1.14,-0.486 0.268,-0.835 0.507,-1.682 0.688,-2.553 0.261,-1.205 0.404,-2.455 0.447,-3.737 0.04,-1.28 -0.034,-2.604 -0.354,-3.975 -0.32,-1.355 -0.875,-2.808 -1.976,-4.087 -1.072,-1.296 -2.803,-2.186 -4.381,-2.358 -0.384,-0.028 -0.769,-0.051 -1.151,-0.064 -0.373,10e-4 -0.722,0.043 -1.08,0.071 -0.353,0.025 -0.746,0.133 -1.112,0.208 -0.367,0.077 -0.819,0.272 -1.209,0.429 -1.609,0.721 -2.762,2.202 -3.15,3.834 -0.086,0.402 -0.151,0.839 -0.176,1.225 0.003,0.361 -0.017,0.743 0.028,1.08 0.065,0.691 0.21,1.325 0.39,1.923 0.362,1.195 0.899,2.211 1.476,3.14 1.16,1.854 2.563,3.291 3.958,4.459 0.35,0.291 0.698,0.563 1.045,0.818 -0.147,0.263 -0.293,0.527 -0.451,0.773 -0.923,1.478 -2.053,2.646 -3.144,3.357 -0.552,0.326 -1.079,0.566 -1.571,0.684 -0.247,0.041 -0.482,0.1 -0.716,0.099 -0.117,-0.001 -0.23,10e-4 -0.344,0.008 -0.117,0.007 -0.331,-0.031 -0.489,-0.045 -2.783,-0.135 -4.767,-0.995 -5.885,-1.748 -0.756,-0.506 -1.142,-0.921 -1.264,-1.07 l -5.833,4.375 c 0.183,0.238 1.219,1.52 3.396,2.78 2.151,1.277 5.539,2.374 9.403,2.33 0.255,0.002 0.459,0.03 0.763,0.012 0.309,-0.026 0.619,-0.053 0.934,-0.079 0.623,-0.063 1.248,-0.227 1.86,-0.398 1.227,-0.384 2.354,-0.998 3.381,-1.72 2.004,-1.494 3.538,-3.424 4.698,-5.521 0.176,-0.314 0.33,-0.643 0.491,-0.967 0.466,0.183 0.912,0.343 1.314,0.475 0.995,0.31 1.786,0.521 2.333,0.623 0.546,0.11 0.836,0.17 0.836,0.17 2.774,0.572 5.046,-0.263 5.009,-1.143 -0.027,-0.939 -2.015,-1.597 -4.349,-2.088 z m -8.832,-4.671 c -1.084,-1.015 -2.144,-2.251 -2.916,-3.671 -0.384,-0.702 -0.719,-1.452 -0.886,-2.181 -0.084,-0.362 -0.139,-0.718 -0.148,-1.042 -0.018,-0.168 0.021,-0.3 0.016,-0.45 0.013,-0.124 0.039,-0.199 0.063,-0.298 0.125,-0.366 0.418,-0.669 0.775,-0.786 0.246,-0.1 1.255,-0.196 1.792,-0.068 0.58,0.128 0.901,0.357 1.215,0.776 0.312,0.418 0.572,1.09 0.704,1.884 0.274,1.603 0.049,3.555 -0.43,5.354 -0.046,0.172 -0.105,0.338 -0.156,0.508 -0.01,-0.01 -0.019,-0.017 -0.029,-0.026 z"
           id="path7"
           inkscape:connector-curvature="0" /><path
           d="m 179.373,70.893 0.002,-0.001 c -0.063,-0.087 -0.064,-0.075 -0.002,0.001 z"
           id="path9"
           inkscape:connector-curvature="0" /></g><path
         d="m 105.788,11.705 c -9.881,0 -17.919,8.038 -17.919,17.918 0,2.719 0.626,5.287 1.714,7.597 9.439,-2.349 22.896,-2.625 32.503,-0.19 1.031,-2.261 1.62,-4.763 1.62,-7.405 0,-9.882 -8.037,-17.92 -17.918,-17.92 z"
         id="path11"
         inkscape:connector-curvature="0"
         style="fill:#fbb040" /><g
         id="g13"><path
           d="m 179.957,71.58 c 0,-27.374 -20.371,-40.053 -51.553,-43.777 0.049,0.602 0.08,1.207 0.08,1.82 0,3.161 -0.651,6.171 -1.824,8.908 2.048,0.862 3.769,1.901 5.008,3.141 l -3.378,3.379 c -0.958,-0.959 -2.305,-1.759 -3.933,-2.417 -1.441,-0.583 -3.114,-1.048 -4.933,-1.415 -8.052,-1.629 -19.077,-1.245 -26.979,0.324 -1.894,0.377 -3.607,0.818 -5.057,1.319 -1.863,0.645 -3.295,1.381 -4.103,2.188 l -3.379,-3.379 c 1.146,-1.146 2.902,-2.151 5.071,-3.009 -1.21,-2.771 -1.89,-5.827 -1.89,-9.04 0,-0.662 0.035,-1.314 0.09,-1.962 -3.045,0.31 -5.955,0.675 -8.698,1.105 l 0.007,-0.002 c 0,0 -7.94,-5.995 -12.397,-10.451 -2.668,-2.669 -11.345,-5.982 -16.635,-5.982 -5.94,0 0.229,25.18 0.23,25.185 -16.279,8.577 -20.23,20.465 -20.23,29.065 0,1.805 -11.187,3.314 -13,5.129 -1.814,1.815 1.5,23.871 4,23.871 2.5,0 13.5,-2.5 13.5,-2.5 0,3.161 3.668,9.516 14.393,15.208 l -0.001,0 0,24.292 c 0,3.5 6.108,5.5 8.108,5.5 2,0 16.435,-21.662 16.435,-21.662 l -0.006,-0.002 c 9.904,1.939 22.11,3.164 37.072,3.164 12.582,0 23.125,-0.629 31.941,-1.924 l -0.005,10e-4 11.563,21.923 c 0,0 11.5,3 11.5,-1.5 l -1.227,-26.478 -0.007,0.002 c 15.679,-7.52 20.237,-20.566 20.237,-40.024 z"
           id="path15"
           inkscape:connector-curvature="0" /></g></g></g></svg>