<?xml version="1.0" encoding="UTF-8" standalone="no"?>
<!-- Generator: Adobe Illustrator 16.0.0, SVG Export Plug-In . SVG Version: 6.00 Build 0)  -->

<svg
   xmlns:dc="http://purl.org/dc/elements/1.1/"
   xmlns:cc="http://creativecommons.org/ns#"
   xmlns:rdf="http://www.w3.org/1999/02/22-rdf-syntax-ns#"
   xmlns:svg="http://www.w3.org/2000/svg"
   xmlns="http://www.w3.org/2000/svg"
   xmlns:xlink="http://www.w3.org/1999/xlink"
   xmlns:sodipodi="http://sodipodi.sourceforge.net/DTD/sodipodi-0.dtd"
   xmlns:inkscape="http://www.inkscape.org/namespaces/inkscape"
   version="1.1"
   id="Layer_1"
   x="0px"
   y="0px"
   width="64px"
   height="64px"
   viewBox="0 0 64 64"
   enable-background="new 0 0 64 64"
   xml:space="preserve"
   inkscape:version="0.48.4 r9939"
   sodipodi:docname="budget-64.svg"><metadata
     id="metadata3139"><rdf:RDF><cc:Work
         rdf:about=""><dc:format>image/svg+xml</dc:format><dc:type
           rdf:resource="http://purl.org/dc/dcmitype/StillImage" /></cc:Work></rdf:RDF></metadata><defs
     id="defs3137"><radialGradient
       r="21"
       fy="41.5"
       fx="32"
       cy="41.5"
       cx="32"
       gradientTransform="matrix(0.26168885,0,0,0.12271817,4.1700629,35.072075)"
       gradientUnits="userSpaceOnUse"
       id="radialGradient8711"
       xlink:href="#linearGradient5060-2-2"
       inkscape:collect="always" /><linearGradient
       id="linearGradient5060-2-2"><stop
         id="stop5062-4-3"
         style="stop-color:#000000;stop-opacity:1"
         offset="0" /><stop
         id="stop5064-2-8"
         style="stop-color:#000000;stop-opacity:0"
         offset="1" /></linearGradient><radialGradient
       r="21"
       fy="41.5"
       fx="32"
       cy="41.5"
       cx="32"
       gradientTransform="matrix(0.82196836,0,0,0.32748398,4.1933045,30.22927)"
       gradientUnits="userSpaceOnUse"
       id="radialGradient8745"
       xlink:href="#linearGradient5060-2-2"
       inkscape:collect="always" /><radialGradient
       r="21"
       fy="41.5"
       fx="32"
       cy="41.5"
       cx="32"
       gradientTransform="matrix(0.26168885,0,0,0.12271817,4.1700629,35.072075)"
       gradientUnits="userSpaceOnUse"
       id="radialGradient8711-2"
       xlink:href="#linearGradient5060-2-2-5"
       inkscape:collect="always" /><linearGradient
       id="linearGradient5060-2-2-5"><stop
         id="stop5062-4-3-3"
         style="stop-color:#000000;stop-opacity:1"
         offset="0" /><stop
         id="stop5064-2-8-8"
         style="stop-color:#000000;stop-opacity:0"
         offset="1" /></linearGradient><radialGradient
       r="21"
       fy="41.5"
       fx="32"
       cy="41.5"
       cx="32"
       gradientTransform="matrix(0.26168885,0,0,0.12271817,-4.4696738,9.3111521)"
       gradientUnits="userSpaceOnUse"
       id="radialGradient8745-3"
       xlink:href="#linearGradient5060-2-2-5"
       inkscape:collect="always" /><radialGradient
       r="21"
       fy="41.5"
       fx="32"
       cy="41.5"
       cx="32"
       gradientTransform="matrix(0.58328426,0,0,0.29733441,12.833668,33.115912)"
       gradientUnits="userSpaceOnUse"
       id="radialGradient8745-4"
       xlink:href="#linearGradient5060-2-2-1"
       inkscape:collect="always" /><linearGradient
       id="linearGradient5060-2-2-1"><stop
         id="stop5062-4-3-4"
         style="stop-color:#000000;stop-opacity:1"
         offset="0" /><stop
         id="stop5064-2-8-3"
         style="stop-color:#000000;stop-opacity:0"
         offset="1" /></linearGradient><radialGradient
       r="21"
       fy="41.5"
       fx="32"
       cy="41.5"
       cx="32"
       gradientTransform="matrix(0.31068191,0,0,0.12020571,7.8125077,47.536287)"
       gradientUnits="userSpaceOnUse"
       id="radialGradient8815"
       xlink:href="#linearGradient5060-2-2-1"
       inkscape:collect="always" /><radialGradient
       r="21"
       fy="41.5"
       fx="32"
       cy="41.5"
       cx="32"
       gradientTransform="matrix(0.58328426,0,0,0.29733441,12.833668,33.115912)"
       gradientUnits="userSpaceOnUse"
       id="radialGradient8745-1"
       xlink:href="#linearGradient5060-2-2-8"
       inkscape:collect="always" /><linearGradient
       id="linearGradient5060-2-2-8"><stop
         id="stop5062-4-3-0"
         style="stop-color:#000000;stop-opacity:1"
         offset="0" /><stop
         id="stop5064-2-8-1"
         style="stop-color:#000000;stop-opacity:0"
         offset="1" /></linearGradient><radialGradient
       r="21"
       fy="41.5"
       fx="32"
       cy="41.5"
       cx="32"
       gradientTransform="matrix(0.58328426,0,0,0.29733441,12.833668,33.116313)"
       gradientUnits="userSpaceOnUse"
       id="radialGradient8815-2"
       xlink:href="#linearGradient5060-2-2-8"
       inkscape:collect="always" /><radialGradient
       inkscape:collect="always"
       xlink:href="#linearGradient5060-2-2-8"
       id="radialGradient9375"
       gradientUnits="userSpaceOnUse"
       gradientTransform="matrix(0.58328426,0,0,0.29733441,15.577279,40.344672)"
       cx="32"
       cy="41.5"
       fx="32"
       fy="41.5"
       r="21" /><radialGradient
       r="21"
       fy="41.5"
       fx="32"
       cy="41.5"
       cx="32"
       gradientTransform="matrix(0.31068191,0,0,0.12020571,7.8125077,47.536287)"
       gradientUnits="userSpaceOnUse"
       id="radialGradient8815-4"
       xlink:href="#linearGradient5060-2-2-1-1"
       inkscape:collect="always" /><linearGradient
       id="linearGradient5060-2-2-1-1"><stop
         id="stop5062-4-3-4-8"
         style="stop-color:#000000;stop-opacity:1"
         offset="0" /><stop
         id="stop5064-2-8-3-7"
         style="stop-color:#000000;stop-opacity:0"
         offset="1" /></linearGradient><radialGradient
       r="21"
       fy="41.5"
       fx="32"
       cy="41.5"
       cx="32"
       gradientTransform="matrix(0.31068191,0,0,0.12020571,32.821576,47.483488)"
       gradientUnits="userSpaceOnUse"
       id="radialGradient9392"
       xlink:href="#linearGradient5060-2-2-1-1"
       inkscape:collect="always" /></defs><sodipodi:namedview
     pagecolor="#ffffff"
     bordercolor="#666666"
     borderopacity="1"
     objecttolerance="10"
     gridtolerance="10"
     guidetolerance="10"
     inkscape:pageopacity="0"
     inkscape:pageshadow="2"
     inkscape:window-width="2560"
     inkscape:window-height="1385"
     id="namedview3135"
     showgrid="false"
     inkscape:zoom="1"
     inkscape:cx="32"
     inkscape:cy="32"
     inkscape:window-x="0"
     inkscape:window-y="30"
     inkscape:window-maximized="1"
     inkscape:current-layer="Layer_1"><inkscape:grid
       type="xygrid"
       id="grid8764" /></sodipodi:namedview><path
     d="m 49.287715,52.472025 a 6.5243204,2.5243201 0 0 1 -13.048639,0 6.5243204,2.5243201 0 1 1 13.048639,0 z"
     inkscape:connector-curvature="0"
     id="path3823-5-0-5-4"
     style="opacity:0.24019608;fill:url(#radialGradient9392);fill-opacity:1;stroke:none" /><path
     d="m 24.278647,52.524824 a 6.5243204,2.5243201 0 0 1 -13.048639,0 6.5243204,2.5243201 0 1 1 13.048639,0 z"
     inkscape:connector-curvature="0"
     id="path3823-5-0-5"
     style="opacity:0.24019608;fill:url(#radialGradient8815);fill-opacity:1;stroke:none" /><path
     d="m 47.757625,43.819858 a 17.261335,6.8771643 0 0 1 -34.522669,0 17.261335,6.8771643 0 1 1 34.522669,0 z"
     inkscape:connector-curvature="0"
     id="path3823-5-0"
     style="opacity:0.33333333;fill:url(#radialGradient8745);fill-opacity:1;stroke:none" /><g
     id="g3058"><path
       fill="#FF5662"
       stroke="#EF2929"
       stroke-miterlimit="10"
       stroke-opacity="0.5"
       d="M61.5,28c-0.367,0-1.227-0.41-2.136-0.975   C59.451,26.423,59.5,25.752,59.5,25c0-4.082-2.906-4.093-4-3c-1.169,1.169-1.165,4.218,1.457,5.879   c-0.754,1.2-2.146,1.971-4.457,1.121v2c0,0,0.188,1,2,1c1.355,0,3.481-0.474,4.466-3.29C59.7,28.89,60.534,29,61.5,29   C63.906,29,62.5,28,61.5,28z M56.5,24c0.793-1.17,1.349,0.167,1.157,1.797C56.813,25.085,56.241,24.382,56.5,24z"
       id="path3060" /><radialGradient
       id="SVGID_1_"
       cx="27.792"
       cy="31.6509"
       r="23.1184"
       gradientTransform="matrix(-4.371139e-008 1 -1.8 -7.868050e-008 84.7636 3.8589)"
       gradientUnits="userSpaceOnUse"><stop
         offset="0.26"
         style="stop-color:#FF7D96"
         id="stop3063" /><stop
         offset="0.66"
         style="stop-color:#FF667C"
         id="stop3065" /><stop
         offset="1"
         style="stop-color:#FF5662"
         id="stop3067" /></radialGradient><path
       fill="url(#SVGID_1_)"
       stroke="#EF2929"
       stroke-miterlimit="10"
       stroke-opacity="0.5"
       d="M18.5,14c0,0-5.211-5.79-8-3   c0,0,4.157,5.709,1,8s-4,8-4,8s-2.97,0.97-4,2s0.063,7.063,1,8s5,0,5,0c0,2.42,3.189,5.077,5,6v9c0,0,1.072,1.242,3,1l5-7   c4.376,1.562,12.611,1.326,16,0l5,7c0,0,1.55,0.436,3-1v-9c0,0,6-3.195,6-13C52.5,5.991,18.5,14,18.5,14z"
       id="path3069" /><g
       id="g3071"><defs
         id="defs3073"><path
           id="SVGID_2_"
           d="M43.789,52.545c0.385,0.049,1.325,0.027,2.211-0.762v-9.082l0.264-0.143C46.321,42.528,52,39.359,52,30     c0-13.871-11.704-16.782-21.522-16.782c-6.394,0-11.809,1.257-11.863,1.27l-0.288,0.067l-0.198-0.22     c-0.032-0.036-3.269-3.595-5.786-3.595c-0.446,0-0.833,0.115-1.175,0.35c0.667,1.015,2.327,3.821,1.965,6.113     c-0.146,0.922-0.596,1.663-1.339,2.202c-2.947,2.139-3.791,7.613-3.799,7.668l-0.045,0.306l-0.294,0.096     c-0.795,0.26-3.027,1.104-3.802,1.878c-0.222,0.222-0.431,1.366-0.097,3.608c0.28,1.879,0.788,3.377,1.097,3.686     c0.063,0.063,0.349,0.27,1.359,0.27c1.405,0,3.157-0.399,3.175-0.403L10,36.371V37c0,2.024,2.795,4.57,4.727,5.555L15,42.694     v9.097c0.282,0.253,1.045,0.807,2.226,0.732l5.087-7.121l0.355,0.127c1.88,0.67,4.735,1.055,7.833,1.055     c3.167,0,6.162-0.402,7.818-1.05l0.362-0.142L43.789,52.545z" /></defs><clipPath
         id="SVGID_3_"><use
           xlink:href="#SVGID_2_"
           overflow="visible"
           id="use3077" /></clipPath><linearGradient
         id="SVGID_4_"
         gradientUnits="userSpaceOnUse"
         x1="27.7905"
         y1="9.7397"
         x2="27.7905"
         y2="53.561"><stop
           offset="0"
           style="stop-color:#FFFFFF"
           id="stop3080" /><stop
           offset="0.3333"
           style="stop-color:#FFFFFF;stop-opacity:0.2353"
           id="stop3082" /><stop
           offset="0.9506"
           style="stop-color:#FFFFFF;stop-opacity:0.1569"
           id="stop3084" /><stop
           offset="1"
           style="stop-color:#FFFFFF;stop-opacity:0.3922"
           id="stop3086" /></linearGradient><path
         opacity="0.5"
         clip-path="url(#SVGID_3_)"
         fill="none"
         stroke="url(#SVGID_4_)"
         stroke-width="2"
         d="M43.789,52.545    c0.385,0.049,1.325,0.027,2.211-0.762v-9.082l0.264-0.143C46.321,42.528,52,39.359,52,30c0-13.871-11.704-16.782-21.522-16.782    c-6.394,0-11.809,1.257-11.863,1.27l-0.288,0.067l-0.198-0.22c-0.032-0.036-3.269-3.595-5.786-3.595    c-0.446,0-0.833,0.115-1.175,0.35c0.667,1.015,2.327,3.821,1.965,6.113c-0.146,0.922-0.596,1.663-1.339,2.202    c-2.947,2.139-3.791,7.613-3.799,7.668l-0.045,0.306l-0.294,0.096c-0.795,0.26-3.027,1.104-3.802,1.878    c-0.222,0.222-0.431,1.366-0.097,3.608c0.28,1.879,0.788,3.377,1.097,3.686c0.063,0.063,0.349,0.27,1.359,0.27    c1.405,0,3.157-0.399,3.175-0.403L10,36.371V37c0,2.024,2.795,4.57,4.727,5.555L15,42.694v9.097    c0.282,0.253,1.045,0.807,2.226,0.732l5.087-7.121l0.355,0.127c1.88,0.67,4.735,1.055,7.833,1.055c3.167,0,6.162-0.402,7.818-1.05    l0.362-0.142L43.789,52.545z"
         id="path3088" /></g><radialGradient
       id="SVGID_5_"
       cx="31.5"
       cy="11.416"
       r="6.2585"
       gradientUnits="userSpaceOnUse"><stop
         offset="0"
         style="stop-color:#EDD400"
         id="stop3091" /><stop
         offset="0.703"
         style="stop-color:#DBBA16"
         id="stop3093" /><stop
         offset="1"
         style="stop-color:#CCAB09"
         id="stop3095" /></radialGradient><path
       fill="url(#SVGID_5_)"
       stroke="#C4A000"
       stroke-miterlimit="10"
       stroke-opacity="0.5"
       d="M31.5,16   c2.725,0,4.604,0.394,5.854,0.833C38.076,15.731,38.5,14.416,38.5,13c0-3.866-3.134-7-7-7s-7,3.134-7,7   c0,1.416,0.423,2.731,1.146,3.833C26.897,16.394,28.775,16,31.5,16z"
       id="path3097" /><g
       id="g3099"><defs
         id="defs3101"><path
           id="SVGID_6_"
           d="M31.5,15.5c2.183,0,4.076,0.247,5.636,0.734C37.702,15.25,38,14.14,38,13c0-3.584-2.916-6.5-6.5-6.5     S25,9.416,25,13c0,1.14,0.298,2.25,0.864,3.234C27.424,15.747,29.317,15.5,31.5,15.5z" /></defs><clipPath
         id="SVGID_7_"><use
           xlink:href="#SVGID_6_"
           overflow="visible"
           id="use3105" /></clipPath><g
         clip-path="url(#SVGID_7_)"
         id="g3107"><g
           id="g3109"><linearGradient
             id="SVGID_8_"
             gradientUnits="userSpaceOnUse"
             x1="31.4995"
             y1="5.5"
             x2="31.4995"
             y2="17.4272"><stop
               offset="0"
               style="stop-color:#FFFFFF"
               id="stop3112" /><stop
               offset="0.3333"
               style="stop-color:#FFFFFF;stop-opacity:0.2353"
               id="stop3114" /><stop
               offset="0.9506"
               style="stop-color:#FFFFFF;stop-opacity:0.1569"
               id="stop3116" /><stop
               offset="1"
               style="stop-color:#FFFFFF;stop-opacity:0.3922"
               id="stop3118" /></linearGradient><path
             opacity="0.5"
             fill="none"
             stroke="url(#SVGID_8_)"
             stroke-width="2"
             d="M31.5,15.5c2.183,0,4.076,0.247,5.636,0.734      C37.702,15.25,38,14.14,38,13c0-3.584-2.916-6.5-6.5-6.5S25,9.416,25,13c0,1.14,0.298,2.25,0.864,3.234      C27.424,15.747,29.317,15.5,31.5,15.5z"
             id="path3120" /></g></g></g><path
       fill="none"
       stroke="#EF2929"
       stroke-miterlimit="10"
       stroke-opacity="0.8"
       d="M39.5,18c0,0-1.862-2-8-2s-8,2-8,2"
       id="path3122" /><linearGradient
       id="SVGID_9_"
       gradientUnits="userSpaceOnUse"
       x1="31.5"
       y1="16.5"
       x2="31.5"
       y2="19.0269"><stop
         offset="0"
         style="stop-color:#FFFFFF"
         id="stop3125" /><stop
         offset="0.3333"
         style="stop-color:#FFFFFF;stop-opacity:0.2353"
         id="stop3127" /><stop
         offset="0.9506"
         style="stop-color:#FFFFFF;stop-opacity:0.1569"
         id="stop3129" /><stop
         offset="1"
         style="stop-color:#FFFFFF;stop-opacity:0.3922"
         id="stop3131" /></linearGradient><path
       opacity="0.5"
       fill="none"
       stroke="url(#SVGID_9_)"
       stroke-miterlimit="10"
       stroke-opacity="0.8"
       d="M38.734,18.672   c0,0-1.684-1.672-7.234-1.672c-5.55,0-7.234,1.672-7.234,1.672"
       id="path3133" /></g></svg>