<?xml version="1.0" encoding="UTF-8" standalone="no"?>
<!-- Generator: Adobe Illustrator 16.0.0, SVG Export Plug-In . SVG Version: 6.00 Build 0)  -->

<svg
   xmlns:dc="http://purl.org/dc/elements/1.1/"
   xmlns:cc="http://creativecommons.org/ns#"
   xmlns:rdf="http://www.w3.org/1999/02/22-rdf-syntax-ns#"
   xmlns:svg="http://www.w3.org/2000/svg"
   xmlns="http://www.w3.org/2000/svg"
   xmlns:xlink="http://www.w3.org/1999/xlink"
   xmlns:sodipodi="http://sodipodi.sourceforge.net/DTD/sodipodi-0.dtd"
   xmlns:inkscape="http://www.inkscape.org/namespaces/inkscape"
   version="1.1"
   id="Layer_1"
   x="0px"
   y="0px"
   width="24px"
   height="24px"
   viewBox="0 0 24 24"
   enable-background="new 0 0 24 24"
   xml:space="preserve"
   inkscape:version="0.48.4 r9939"
   sodipodi:docname="budget-24.svg"><metadata
     id="metadata6211"><rdf:RDF><cc:Work
         rdf:about=""><dc:format>image/svg+xml</dc:format><dc:type
           rdf:resource="http://purl.org/dc/dcmitype/StillImage" /></cc:Work></rdf:RDF></metadata><defs
     id="defs6209"><radialGradient
       cx="32"
       cy="41.5"
       r="21"
       fx="32"
       fy="41.5"
       id="radialGradient2944"
       xlink:href="#linearGradient5060"
       gradientUnits="userSpaceOnUse"
       gradientTransform="matrix(0.45238095,0,0,0.14285715,2.1594027,35.003632)" /><linearGradient
       id="linearGradient5060"><stop
         id="stop5062"
         style="stop-color:#000000;stop-opacity:1"
         offset="0" /><stop
         id="stop5064"
         style="stop-color:#000000;stop-opacity:0"
         offset="1" /></linearGradient><radialGradient
       r="21"
       fy="41.5"
       fx="32"
       cy="41.5"
       cx="32"
       gradientTransform="matrix(0.45238095,0,0,0.14285715,-3.5608592,12.289782)"
       gradientUnits="userSpaceOnUse"
       id="radialGradient3047-3"
       xlink:href="#linearGradient5060-5"
       inkscape:collect="always" /><linearGradient
       id="linearGradient5060-5"><stop
         id="stop5062-0"
         style="stop-color:#000000;stop-opacity:1"
         offset="0" /><stop
         id="stop5064-1"
         style="stop-color:#000000;stop-opacity:0"
         offset="1" /></linearGradient><radialGradient
       r="21"
       fy="41.5"
       fx="32"
       cy="41.5"
       cx="32"
       gradientTransform="matrix(0.45238095,0,0,0.14285715,-4.9761902,-2.9278828)"
       gradientUnits="userSpaceOnUse"
       id="radialGradient7061"
       xlink:href="#linearGradient5060-5"
       inkscape:collect="always" /><radialGradient
       r="21"
       fy="41.5"
       fx="32"
       cy="41.5"
       cx="32"
       gradientTransform="matrix(0.45238095,0,0,0.14285715,-3.5608592,12.289782)"
       gradientUnits="userSpaceOnUse"
       id="radialGradient3047"
       xlink:href="#linearGradient5060-0"
       inkscape:collect="always" /><linearGradient
       id="linearGradient5060-0"><stop
         id="stop5062-2"
         style="stop-color:#000000;stop-opacity:1"
         offset="0" /><stop
         id="stop5064-2"
         style="stop-color:#000000;stop-opacity:0"
         offset="1" /></linearGradient><radialGradient
       r="21"
       fy="41.5"
       fx="32"
       cy="41.5"
       cx="32"
       gradientTransform="matrix(0.16596004,0,0,-0.06889648,1.6079075,23.48109)"
       gradientUnits="userSpaceOnUse"
       id="radialGradient7061-8"
       xlink:href="#linearGradient5060-0"
       inkscape:collect="always" /><radialGradient
       r="21"
       fy="41.5"
       fx="32"
       cy="41.5"
       cx="32"
       gradientTransform="matrix(0.22814353,0,0,0.06889648,-1.3712469,17.742898)"
       gradientUnits="userSpaceOnUse"
       id="radialGradient7061-8-6"
       xlink:href="#linearGradient5060-0-1"
       inkscape:collect="always" /><linearGradient
       id="linearGradient5060-0-1"><stop
         id="stop5062-2-5"
         style="stop-color:#000000;stop-opacity:1"
         offset="0" /><stop
         id="stop5064-2-0"
         style="stop-color:#000000;stop-opacity:0"
         offset="1" /></linearGradient><radialGradient
       r="21"
       fy="41.5"
       fx="32"
       cy="41.5"
       cx="32"
       gradientTransform="matrix(0.22814353,0,0,0.06889648,9.0557935,17.742945)"
       gradientUnits="userSpaceOnUse"
       id="radialGradient7111"
       xlink:href="#linearGradient5060-0-1"
       inkscape:collect="always" /><radialGradient
       r="21"
       fy="41.5"
       fx="32"
       cy="41.5"
       cx="32"
       gradientTransform="matrix(0.22814353,0,0,0.06889648,-1.3712469,17.742898)"
       gradientUnits="userSpaceOnUse"
       id="radialGradient7061-8-60"
       xlink:href="#linearGradient5060-0-8"
       inkscape:collect="always" /><linearGradient
       id="linearGradient5060-0-8"><stop
         id="stop5062-2-0"
         style="stop-color:#000000;stop-opacity:1"
         offset="0" /><stop
         id="stop5064-2-8"
         style="stop-color:#000000;stop-opacity:0"
         offset="1" /></linearGradient><radialGradient
       r="21"
       fy="41.5"
       fx="32"
       cy="41.5"
       cx="32"
       gradientTransform="matrix(0.27525223,0,0,0.08302909,2.2853306,14.881176)"
       gradientUnits="userSpaceOnUse"
       id="radialGradient7111-3"
       xlink:href="#linearGradient5060-0-8"
       inkscape:collect="always" /><radialGradient
       r="21"
       fy="41.5"
       fx="32"
       cy="41.5"
       cx="32"
       gradientTransform="matrix(0.16596004,0,0,0.06889648,0.55926779,17.762684)"
       gradientUnits="userSpaceOnUse"
       id="radialGradient7061-8-0"
       xlink:href="#linearGradient5060-0-9"
       inkscape:collect="always" /><linearGradient
       id="linearGradient5060-0-9"><stop
         id="stop5062-2-4"
         style="stop-color:#000000;stop-opacity:1"
         offset="0" /><stop
         id="stop5064-2-7"
         style="stop-color:#000000;stop-opacity:0"
         offset="1" /></linearGradient><radialGradient
       r="21"
       fy="41.5"
       fx="32"
       cy="41.5"
       cx="32"
       gradientTransform="matrix(0.16596004,0,0,0.06889648,10.88738,17.762684)"
       gradientUnits="userSpaceOnUse"
       id="radialGradient7178"
       xlink:href="#linearGradient5060-0-9"
       inkscape:collect="always" /></defs><sodipodi:namedview
     pagecolor="#ffffff"
     bordercolor="#666666"
     borderopacity="1"
     objecttolerance="10"
     gridtolerance="10"
     guidetolerance="10"
     inkscape:pageopacity="0"
     inkscape:pageshadow="2"
     inkscape:window-width="2560"
     inkscape:window-height="1385"
     id="namedview6207"
     showgrid="false"
     inkscape:zoom="1"
     inkscape:cx="12"
     inkscape:cy="12"
     inkscape:window-x="0"
     inkscape:window-y="30"
     inkscape:window-maximized="1"
     inkscape:current-layer="Layer_1"><inkscape:grid
       type="xygrid"
       id="grid6213" /></sodipodi:namedview><path
     d="m 19.683262,20.621887 a 3.4851608,1.4468261 0 0 1 -6.970322,0 3.4851608,1.4468261 0 1 1 6.970322,0 z"
     inkscape:connector-curvature="0"
     id="path3823-4-4"
     style="opacity:0.34000017;fill:url(#radialGradient7178);fill-opacity:1;stroke:none" /><path
     d="m 16.873699,18.326883 a 5.7802969,1.7436109 0 0 1 -11.5605938,0 5.7802969,1.7436109 0 1 1 11.5605938,0 z"
     inkscape:connector-curvature="0"
     id="path3823-4-9"
     style="opacity:0.45;fill:url(#radialGradient7111-3);fill-opacity:1;stroke:none" /><path
     d="m 10.40379,20.621887 a 3.4851608,1.4468261 0 1 0 -6.9703221,0 3.4851608,1.4468261 0 0 0 6.9703221,0 z"
     inkscape:connector-curvature="0"
     id="path3823-4"
     style="opacity:0.34000017;fill:url(#radialGradient7061-8);fill-opacity:1;stroke:none" /><g
     id="g6134"
     transform="matrix(0.97801995,0,0,1,0.54075231,0)"><path
       stroke-miterlimit="10"
       d="m 22.704,11.426 c -0.138,0 -0.46,-0.154 -0.801,-0.366 0.032,-0.226 0.051,-0.478 0.051,-0.76 0,-1.531 -1.09,-1.535 -1.5,-1.125 -0.438,0.438 -0.438,1.582 0.547,2.205 -0.283,0.45 -0.806,0.738 -1.672,0.42 v 0.75 c 0,0 0.07,0.375 0.75,0.375 0.509,0 1.306,-0.178 1.675,-1.234 0.275,0.068 0.588,0.109 0.95,0.109 0.902,10e-4 0.375,-0.374 0,-0.374 z m -1.875,-1.5 c 0.297,-0.438 0.506,0.063 0.434,0.674 -0.317,-0.267 -0.531,-0.531 -0.434,-0.674 z"
       id="path6136"
       inkscape:connector-curvature="0"
       style="fill:#ff5662;stroke:#ef2929;stroke-width:1.01117456;stroke-miterlimit:10;stroke-opacity:0.5" /><radialGradient
       id="SVGID_1_"
       cx="10.0635"
       cy="12.7949"
       r="8.6695004"
       gradientTransform="matrix(-4.371139e-8,1,-1.8,-7.86805e-8,33.0943,2.7314)"
       gradientUnits="userSpaceOnUse"><stop
         offset="0.26"
         style="stop-color:#FF7D96"
         id="stop6139" /><stop
         offset="0.66"
         style="stop-color:#FF667C"
         id="stop6141" /><stop
         offset="1"
         style="stop-color:#FF5662"
         id="stop6143" /></radialGradient><path
       stroke-miterlimit="10"
       d="m 6.579,6.176 c 0,0 -1.954,-2.171 -3,-1.125 0,0 1.559,2.141 0.375,3 -1.184,0.859 -1.5,3 -1.5,3 0,0 -1.113,0.364 -1.5,0.75 -0.387,0.386 0.023,2.648 0.375,3 0.352,0.352 1.875,0 1.875,0 0,0.908 1.195,1.904 1.875,2.25 v 3.375 c 0,0 0.401,0.466 1.125,0.375 l 1.875,-2.625 c 1.641,0.586 4.729,0.497 6,0 l 1.875,2.625 c 0,0 0.582,0.164 1.125,-0.375 v -3.375 c 0,0 2.25,-1.197 2.25,-4.875 0,-9.004 -12.75,-6 -12.75,-6 z"
       id="path6145"
       inkscape:connector-curvature="0"
       style="fill:url(#SVGID_1_);stroke:#ef2929;stroke-width:1.01117456;stroke-miterlimit:10;stroke-opacity:0.5" /><g
       id="g6147"><defs
         id="defs6149"><path
           id="SVGID_2_"
           d="m 14.26,17.568 1.967,2.754 c 0.098,-0.009 0.222,-0.041 0.353,-0.129 V 16.75 l 0.265,-0.141 c 0.078,-0.043 1.985,-1.131 1.985,-4.434 0,-3.969 -2.61,-5.981 -7.759,-5.981 -2.364,0 -4.356,0.463 -4.377,0.468 L 6.406,6.73 6.208,6.511 C 5.782,6.04 4.901,5.298 4.309,5.267 4.612,5.802 4.996,6.66 4.875,7.426 4.808,7.85 4.591,8.206 4.248,8.455 3.416,9.059 3.028,10.586 2.949,11.123 L 2.903,11.43 2.609,11.526 c -0.416,0.136 -1.095,0.421 -1.302,0.629 -0.129,0.301 0.148,1.943 0.375,2.289 0.012,-0.004 0.101,0.014 0.289,0.014 0.49,0 1.114,-0.143 1.12,-0.144 l 0.612,-0.141 v 0.628 c 0,0.604 0.949,1.472 1.603,1.805 l 0.272,0.14 v 3.446 c 0.082,0.05 0.204,0.104 0.361,0.117 l 1.951,-2.73 0.355,0.127 c 0.672,0.24 1.704,0.377 2.831,0.377 1.151,0 2.231,-0.143 2.818,-0.372 l 0.366,-0.143 z"
           inkscape:connector-curvature="0" /></defs><clipPath
         id="SVGID_3_"><use
           xlink:href="#SVGID_2_"
           overflow="visible"
           id="use6153"
           style="overflow:visible"
           x="0"
           y="0"
           width="24"
           height="24" /></clipPath><linearGradient
         id="SVGID_4_"
         gradientUnits="userSpaceOnUse"
         x1="10.0518"
         y1="4.1724"
         x2="10.0518"
         y2="21.366699"><stop
           offset="0"
           style="stop-color:#FFFFFF"
           id="stop6156" /><stop
           offset="0.3333"
           style="stop-color:#FFFFFF;stop-opacity:0.2353"
           id="stop6158" /><stop
           offset="0.9506"
           style="stop-color:#FFFFFF;stop-opacity:0.1569"
           id="stop6160" /><stop
           offset="1"
           style="stop-color:#FFFFFF;stop-opacity:0.3922"
           id="stop6162" /></linearGradient><path
         clip-path="url(#SVGID_3_)"
         stroke-miterlimit="10"
         d="m 14.26,17.568 1.967,2.754 c 0.098,-0.009 0.222,-0.041 0.353,-0.129 V 16.75 l 0.265,-0.141 c 0.078,-0.043 1.985,-1.131 1.985,-4.434 0,-3.969 -2.61,-5.981 -7.759,-5.981 -2.364,0 -4.356,0.463 -4.377,0.468 L 6.406,6.73 6.208,6.511 C 5.782,6.04 4.901,5.298 4.309,5.267 4.612,5.802 4.996,6.66 4.875,7.426 4.808,7.85 4.591,8.206 4.248,8.455 3.416,9.059 3.028,10.586 2.949,11.123 L 2.903,11.43 2.609,11.526 c -0.416,0.136 -1.095,0.421 -1.302,0.629 -0.129,0.301 0.148,1.943 0.375,2.289 0.012,-0.004 0.101,0.014 0.289,0.014 0.49,0 1.114,-0.143 1.12,-0.144 l 0.612,-0.141 v 0.628 c 0,0.604 0.949,1.472 1.603,1.805 l 0.272,0.14 v 3.446 c 0.082,0.05 0.204,0.104 0.361,0.117 l 1.951,-2.73 0.355,0.127 c 0.672,0.24 1.704,0.377 2.831,0.377 1.151,0 2.231,-0.143 2.818,-0.372 l 0.366,-0.143 z"
         id="path6164"
         inkscape:connector-curvature="0"
         style="opacity:0.5;fill:none;stroke:url(#SVGID_4_);stroke-width:2.02234912;stroke-miterlimit:10;stroke-opacity:0.8" /></g><radialGradient
       id="SVGID_5_"
       cx="11.4541"
       cy="5.2069998"
       r="2.3469999"
       gradientUnits="userSpaceOnUse"><stop
         offset="0"
         style="stop-color:#EDD400"
         id="stop6167" /><stop
         offset="0.703"
         style="stop-color:#DBBA16"
         id="stop6169" /><stop
         offset="1"
         style="stop-color:#CCAB09"
         id="stop6171" /></radialGradient><path
       stroke-miterlimit="10"
       d="m 11.454,6.926 c 1.022,0 1.726,0.148 2.195,0.313 0.271,-0.413 0.43,-0.906 0.43,-1.437 0,-1.45 -1.175,-2.625 -2.625,-2.625 -1.45,0 -2.625,1.174 -2.625,2.624 0,0.531 0.158,1.024 0.43,1.437 0.47,-0.164 1.173,-0.312 2.195,-0.312 z"
       id="path6173"
       inkscape:connector-curvature="0"
       style="fill:url(#SVGID_5_);stroke:#c4a000;stroke-width:1.01117456;stroke-miterlimit:10;stroke-opacity:0.5" /><path
       stroke-miterlimit="10"
       d="m 14.454,7.676 c 0,0 -0.698,-0.75 -3,-0.75 -2.302,0 -3,0.75 -3,0.75"
       id="path6175"
       inkscape:connector-curvature="0"
       style="fill:none;stroke:#ef2929;stroke-width:1.01117456;stroke-miterlimit:10;stroke-opacity:0.8" /><linearGradient
       id="SVGID_6_"
       gradientUnits="userSpaceOnUse"
       x1="11.4541"
       y1="7.4257998"
       x2="11.4541"
       y2="8.8671999"><stop
         offset="0"
         style="stop-color:#FFFFFF"
         id="stop6178" /><stop
         offset="0.3333"
         style="stop-color:#FFFFFF;stop-opacity:0.2353"
         id="stop6180" /><stop
         offset="0.9506"
         style="stop-color:#FFFFFF;stop-opacity:0.1569"
         id="stop6182" /><stop
         offset="1"
         style="stop-color:#FFFFFF;stop-opacity:0.3922"
         id="stop6184" /></linearGradient><path
       stroke-miterlimit="10"
       d="m 13.825,8.53 c 0,0 -0.552,-0.604 -2.371,-0.604 -1.819,0 -2.371,0.604 -2.371,0.604"
       id="path6186"
       inkscape:connector-curvature="0"
       style="opacity:0.5;fill:none;stroke:url(#SVGID_6_);stroke-width:1.01117456;stroke-miterlimit:10;stroke-opacity:0.8" /><g
       id="g6188"><defs
         id="defs6190"><path
           id="SVGID_7_"
           d="m 11.454,6.426 c 0.734,0 1.389,0.073 1.951,0.217 0.114,-0.264 0.174,-0.55 0.174,-0.842 0,-1.172 -0.953,-2.125 -2.125,-2.125 -1.172,0 -2.125,0.953 -2.125,2.125 0,0.292 0.06,0.578 0.174,0.842 0.562,-0.144 1.217,-0.217 1.951,-0.217 z"
           inkscape:connector-curvature="0" /></defs><clipPath
         id="SVGID_8_"><use
           xlink:href="#SVGID_7_"
           overflow="visible"
           id="use6194"
           style="overflow:visible"
           x="0"
           y="0"
           width="24"
           height="24" /></clipPath><linearGradient
         id="SVGID_9_"
         gradientUnits="userSpaceOnUse"
         x1="11.4536"
         y1="2.6758001"
         x2="11.4536"
         y2="7.8242002"><stop
           offset="0"
           style="stop-color:#FFFFFF"
           id="stop6197" /><stop
           offset="0.3333"
           style="stop-color:#FFFFFF;stop-opacity:0.2353"
           id="stop6199" /><stop
           offset="0.9506"
           style="stop-color:#FFFFFF;stop-opacity:0.1569"
           id="stop6201" /><stop
           offset="1"
           style="stop-color:#FFFFFF;stop-opacity:0.3922"
           id="stop6203" /></linearGradient><path
         clip-path="url(#SVGID_8_)"
         stroke-miterlimit="10"
         d="m 11.454,6.426 c 0.734,0 1.389,0.073 1.951,0.217 0.114,-0.264 0.174,-0.55 0.174,-0.842 0,-1.172 -0.953,-2.125 -2.125,-2.125 -1.172,0 -2.125,0.953 -2.125,2.125 0,0.292 0.06,0.578 0.174,0.842 0.562,-0.144 1.217,-0.217 1.951,-0.217 z"
         id="path6205"
         inkscape:connector-curvature="0"
         style="opacity:0.5;fill:none;stroke:url(#SVGID_9_);stroke-width:2.02234912;stroke-miterlimit:10" /></g></g></svg>