<?xml version="1.0" encoding="UTF-8" standalone="no"?>
<!-- Generator: Adobe Illustrator 16.0.0, SVG Export Plug-In . SVG Version: 6.00 Build 0)  -->

<svg
   xmlns:dc="http://purl.org/dc/elements/1.1/"
   xmlns:cc="http://creativecommons.org/ns#"
   xmlns:rdf="http://www.w3.org/1999/02/22-rdf-syntax-ns#"
   xmlns:svg="http://www.w3.org/2000/svg"
   xmlns="http://www.w3.org/2000/svg"
   xmlns:xlink="http://www.w3.org/1999/xlink"
   xmlns:sodipodi="http://sodipodi.sourceforge.net/DTD/sodipodi-0.dtd"
   xmlns:inkscape="http://www.inkscape.org/namespaces/inkscape"
   version="1.1"
   id="Layer_1"
   x="0px"
   y="0px"
   width="32px"
   height="32px"
   viewBox="0 0 32 32"
   enable-background="new 0 0 32 32"
   xml:space="preserve"
   inkscape:version="0.48.4 r9939"
   sodipodi:docname="budget-32.svg"><metadata
     id="metadata3299"><rdf:RDF><cc:Work
         rdf:about=""><dc:format>image/svg+xml</dc:format><dc:type
           rdf:resource="http://purl.org/dc/dcmitype/StillImage" /></cc:Work></rdf:RDF></metadata><defs
     id="defs3297"><radialGradient
       cx="24.999998"
       cy="28.659998"
       r="16"
       fx="24.999998"
       fy="28.659998"
       id="radialGradient2945"
       xlink:href="#linearGradient6954"
       gradientUnits="userSpaceOnUse"
       gradientTransform="matrix(0.88911393,0,0,0.26439791,-5.6149485,12.359857)" /><linearGradient
       id="linearGradient6954"><stop
         id="stop6960"
         style="stop-color:#f5f5f5;stop-opacity:1"
         offset="0" /><stop
         id="stop6962"
         style="stop-color:#d2d2d2;stop-opacity:1"
         offset="1" /></linearGradient><linearGradient
       x1="30"
       y1="25.084745"
       x2="30"
       y2="45"
       id="linearGradient2947"
       xlink:href="#linearGradient3785"
       gradientUnits="userSpaceOnUse"
       gradientTransform="matrix(0.67742015,0,0,0.70833449,-0.32260348,-2.0208703)" /><linearGradient
       id="linearGradient3785"><stop
         id="stop3787"
         style="stop-color:#b8b8b8;stop-opacity:1"
         offset="0" /><stop
         id="stop3789"
         style="stop-color:#878787;stop-opacity:1"
         offset="1" /></linearGradient><radialGradient
       r="16"
       fy="28.659998"
       fx="24.999998"
       cy="28.659998"
       cx="24.999998"
       gradientTransform="matrix(0.88911393,0,0,0.26439791,-16.566309,-4.6830117)"
       gradientUnits="userSpaceOnUse"
       id="radialGradient7270"
       xlink:href="#linearGradient6954"
       inkscape:collect="always" /><linearGradient
       y2="45"
       x2="30"
       y1="25.084745"
       x1="30"
       gradientTransform="matrix(0.67742015,0,0,0.70833449,-11.273964,-19.063739)"
       gradientUnits="userSpaceOnUse"
       id="linearGradient7272"
       xlink:href="#linearGradient3785"
       inkscape:collect="always" /><radialGradient
       cx="32"
       cy="41.5"
       r="21"
       fx="32"
       fy="41.5"
       id="radialGradient2950"
       xlink:href="#linearGradient5060"
       gradientUnits="userSpaceOnUse"
       gradientTransform="matrix(0.57142856,0,0,0.16666666,1.7142828,20.583334)" /><linearGradient
       id="linearGradient5060"><stop
         id="stop5062"
         style="stop-color:#000000;stop-opacity:1"
         offset="0" /><stop
         id="stop5064"
         style="stop-color:#000000;stop-opacity:0"
         offset="1" /></linearGradient><radialGradient
       r="21"
       fy="41.5"
       fx="32"
       cy="41.5"
       cx="32"
       gradientTransform="matrix(0.38927491,0,0,0.17169159,2.870488,16.934179)"
       gradientUnits="userSpaceOnUse"
       id="radialGradient7316"
       xlink:href="#linearGradient5060"
       inkscape:collect="always" /><radialGradient
       r="21"
       fy="41.5"
       fx="32"
       cy="41.5"
       cx="32"
       gradientTransform="matrix(0.32143838,0,0,0.16666666,5.0412574,17.037167)"
       gradientUnits="userSpaceOnUse"
       id="radialGradient7316-4"
       xlink:href="#linearGradient5060-1"
       inkscape:collect="always" /><linearGradient
       id="linearGradient5060-1"><stop
         id="stop5062-7"
         style="stop-color:#000000;stop-opacity:1"
         offset="0" /><stop
         id="stop5064-9"
         style="stop-color:#000000;stop-opacity:0"
         offset="1" /></linearGradient><radialGradient
       r="21"
       fy="41.5"
       fx="32"
       cy="41.5"
       cx="32"
       gradientTransform="matrix(0.1807404,0,0,0.09380521,2.7373281,23.674508)"
       gradientUnits="userSpaceOnUse"
       id="radialGradient7858"
       xlink:href="#linearGradient5060-1"
       inkscape:collect="always" /><radialGradient
       r="21"
       fy="41.5"
       fx="32"
       cy="41.5"
       cx="32"
       gradientTransform="matrix(0.1807404,0,0,0.09380521,2.341615,23.700889)"
       gradientUnits="userSpaceOnUse"
       id="radialGradient7858-6"
       xlink:href="#linearGradient5060-1-6"
       inkscape:collect="always" /><linearGradient
       id="linearGradient5060-1-6"><stop
         id="stop5062-7-1"
         style="stop-color:#000000;stop-opacity:1"
         offset="0" /><stop
         id="stop5064-9-6"
         style="stop-color:#000000;stop-opacity:0"
         offset="1" /></linearGradient><radialGradient
       r="21"
       fy="41.5"
       fx="32"
       cy="41.5"
       cx="32"
       gradientTransform="matrix(0.1807404,0,0,0.09380521,16.323478,23.674538)"
       gradientUnits="userSpaceOnUse"
       id="radialGradient7892"
       xlink:href="#linearGradient5060-1-6"
       inkscape:collect="always" /></defs><sodipodi:namedview
     pagecolor="#ffffff"
     bordercolor="#666666"
     borderopacity="1"
     objecttolerance="10"
     gridtolerance="10"
     guidetolerance="10"
     inkscape:pageopacity="0"
     inkscape:pageshadow="2"
     inkscape:window-width="2560"
     inkscape:window-height="1385"
     id="namedview3295"
     showgrid="false"
     inkscape:zoom="1"
     inkscape:cx="16"
     inkscape:cy="16"
     inkscape:window-x="0"
     inkscape:window-y="30"
     inkscape:window-maximized="1"
     inkscape:current-layer="Layer_1"><inkscape:grid
       type="xygrid"
       id="grid7984" /></sodipodi:namedview><path
     d="m 25.90272,27.567454 a 3.7955486,1.9699095 0 0 1 -7.591096,0 3.7955486,1.9699095 0 1 1 7.591096,0 z"
     inkscape:connector-curvature="0"
     id="path3823-4-3"
     style="opacity:0.26300001;fill:url(#radialGradient7892);fill-opacity:1;stroke:none" /><path
     d="m 12.31657,27.567424 a 3.7955486,1.9699095 0 0 1 -7.5910964,0 3.7955486,1.9699095 0 1 1 7.5910964,0 z"
     inkscape:connector-curvature="0"
     id="path3823-4"
     style="opacity:0.26300001;fill:url(#radialGradient7858);fill-opacity:1;stroke:none" /><path
     d="m 23.502061,24.05938 a 8.1747735,3.6055236 0 0 1 -16.3495466,0 8.1747735,3.6055236 0 1 1 16.3495466,0 z"
     inkscape:connector-curvature="0"
     id="path3823"
     style="opacity:0.37254902;fill:url(#radialGradient7316);fill-opacity:1;stroke:none" /><g
     id="g3222"
     transform="matrix(0.98632761,0,0,1,0.48722737,0)"><path
       stroke-miterlimit="10"
       d="m 30.613,15.235 c -0.184,0 -0.613,-0.205 -1.068,-0.487 0.043,-0.301 0.068,-0.637 0.068,-1.013 0,-2.041 -1.453,-2.046 -2,-1.5 -0.585,0.584 -0.583,2.109 0.729,2.94 -0.377,0.6 -1.073,0.985 -2.229,0.56 v 1 c 0,0 0.094,0.5 1,0.5 0.678,0 1.74,-0.236 2.232,-1.645 0.367,0.09 0.784,0.145 1.268,0.145 1.203,-10e-4 0.5,-0.5 0,-0.5 z m -2.5,-2.001 c 0.396,-0.585 0.674,0.083 0.578,0.899 -0.421,-0.356 -0.707,-0.707 -0.578,-0.899 z"
       id="path3224"
       inkscape:connector-curvature="0"
       style="fill:#ff5662;stroke:#ef2929;stroke-width:1.00690711;stroke-miterlimit:10;stroke-opacity:0.5" /><radialGradient
       id="SVGID_1_"
       cx="13.7588"
       cy="17.060499"
       r="11.5595"
       gradientTransform="matrix(-4.371139e-8,1,-1.8,-7.86805e-8,44.4678,3.3018)"
       gradientUnits="userSpaceOnUse"><stop
         offset="0.26"
         style="stop-color:#FF7D96"
         id="stop3227" /><stop
         offset="0.66"
         style="stop-color:#FF667C"
         id="stop3229" /><stop
         offset="1"
         style="stop-color:#FF5662"
         id="stop3231" /></radialGradient><path
       stroke-miterlimit="10"
       d="m 9.113,8.234 c 0,0 -2.605,-2.895 -4,-1.5 0,0 2.079,2.854 0.5,4 -1.579,1.146 -2,4 -2,4 0,0 -1.485,0.485 -2,1 -0.515,0.515 0.031,3.531 0.5,4 0.469,0.469 2.5,0 2.5,0 0,1.211 1.594,2.539 2.5,3 v 4.5 c 0,0 0.536,0.621 1.5,0.5 l 2.5,-3.5 c 2.188,0.781 6.306,0.663 8,0 l 2.5,3.5 c 0,0 0.775,0.219 1.5,-0.5 v -4.5 c 0,0 3,-1.598 3,-6.5 0,-12.004 -17,-8 -17,-8 z"
       id="path3233"
       inkscape:connector-curvature="0"
       style="fill:url(#SVGID_1_);stroke:#ef2929;stroke-width:1.00690711;stroke-miterlimit:10;stroke-opacity:0.5" /><g
       id="g3235"><defs
         id="defs3237"><path
           id="SVGID_2_"
           d="m 21.893,27.266 c 0.191,0.033 0.445,-0.045 0.721,-0.256 v -4.576 l 0.265,-0.141 c 0.109,-0.06 2.735,-1.545 2.735,-6.059 0,-6.729 -5.717,-8.141 -10.512,-8.141 -3.171,0 -5.847,0.622 -5.874,0.628 L 8.94,8.789 8.741,8.569 C 8.275,8.052 6.71,6.639 5.81,6.883 6.212,7.54 6.848,8.788 6.676,9.875 c -0.084,0.529 -0.343,0.954 -0.77,1.264 -1.155,0.838 -1.69,2.932 -1.798,3.668 l -0.045,0.306 -0.294,0.096 c -0.531,0.174 -1.49,0.566 -1.802,0.878 -0.256,0.428 0.173,2.908 0.502,3.295 -0.004,0 0.104,0.061 0.5,0.061 0.676,0 1.523,-0.194 1.532,-0.196 l 0.612,-0.142 v 0.629 c 0,0.879 1.297,2.08 2.227,2.555 l 0.273,0.14 v 4.582 c 0.137,0.099 0.385,0.233 0.731,0.239 l 2.582,-3.613 0.355,0.127 c 0.914,0.326 2.311,0.514 3.832,0.514 1.554,0 3.018,-0.195 3.818,-0.509 l 0.362,-0.142 2.6,3.639 z"
           inkscape:connector-curvature="0" /></defs><clipPath
         id="SVGID_3_"><use
           xlink:href="#SVGID_2_"
           overflow="visible"
           id="use3241"
           style="overflow:visible"
           x="0"
           y="0"
           width="32"
           height="32" /></clipPath><linearGradient
         id="SVGID_4_"
         gradientUnits="userSpaceOnUse"
         x1="13.7505"
         y1="5.855"
         x2="13.7505"
         y2="28.2729"><stop
           offset="0"
           style="stop-color:#FFFFFF"
           id="stop3244" /><stop
           offset="0.3333"
           style="stop-color:#FFFFFF;stop-opacity:0.2353"
           id="stop3246" /><stop
           offset="0.9506"
           style="stop-color:#FFFFFF;stop-opacity:0.1569"
           id="stop3248" /><stop
           offset="1"
           style="stop-color:#FFFFFF;stop-opacity:0.3922"
           id="stop3250" /></linearGradient><path
         clip-path="url(#SVGID_3_)"
         stroke-miterlimit="10"
         d="m 21.893,27.266 c 0.191,0.033 0.445,-0.045 0.721,-0.256 v -4.576 l 0.265,-0.141 c 0.109,-0.06 2.735,-1.545 2.735,-6.059 0,-6.729 -5.717,-8.141 -10.512,-8.141 -3.171,0 -5.847,0.622 -5.874,0.628 L 8.94,8.789 8.741,8.569 C 8.275,8.052 6.71,6.639 5.81,6.883 6.212,7.54 6.848,8.788 6.676,9.875 c -0.084,0.529 -0.343,0.954 -0.77,1.264 -1.155,0.838 -1.69,2.932 -1.798,3.668 l -0.045,0.306 -0.294,0.096 c -0.531,0.174 -1.49,0.566 -1.802,0.878 -0.256,0.428 0.173,2.908 0.502,3.295 -0.004,0 0.104,0.061 0.5,0.061 0.676,0 1.523,-0.194 1.532,-0.196 l 0.612,-0.142 v 0.629 c 0,0.879 1.297,2.08 2.227,2.555 l 0.273,0.14 v 4.582 c 0.137,0.099 0.385,0.233 0.731,0.239 l 2.582,-3.613 0.355,0.127 c 0.914,0.326 2.311,0.514 3.832,0.514 1.554,0 3.018,-0.195 3.818,-0.509 l 0.362,-0.142 2.6,3.639 z"
         id="path3252"
         inkscape:connector-curvature="0"
         style="opacity:0.5;fill:none;stroke:url(#SVGID_4_);stroke-width:2.01381421;stroke-miterlimit:10;stroke-opacity:0.8" /></g><radialGradient
       id="SVGID_5_"
       cx="15.6133"
       cy="6.9424"
       r="3.1294"
       gradientUnits="userSpaceOnUse"><stop
         offset="0"
         style="stop-color:#EDD400"
         id="stop3255" /><stop
         offset="0.703"
         style="stop-color:#DBBA16"
         id="stop3257" /><stop
         offset="1"
         style="stop-color:#CCAB09"
         id="stop3259" /></radialGradient><path
       stroke-miterlimit="10"
       d="m 15.613,9.234 c 1.363,0 2.301,0.197 2.927,0.417 0.361,-0.551 0.573,-1.208 0.573,-1.916 0,-1.934 -1.567,-3.5 -3.5,-3.5 -1.933,0 -3.5,1.567 -3.5,3.5 0,0.708 0.212,1.365 0.573,1.916 0.626,-0.219 1.564,-0.417 2.927,-0.417 z"
       id="path3261"
       inkscape:connector-curvature="0"
       style="fill:url(#SVGID_5_);stroke:#c4a000;stroke-width:1.00690711;stroke-miterlimit:10;stroke-opacity:0.5" /><path
       stroke-miterlimit="10"
       d="m 19.613,10.234 c 0,0 -0.932,-1 -4,-1 -3.068,0 -4,1 -4,1"
       id="path3263"
       inkscape:connector-curvature="0"
       style="fill:none;stroke:#ef2929;stroke-width:1.00690711;stroke-miterlimit:10;stroke-opacity:0.8" /><linearGradient
       id="SVGID_6_"
       gradientUnits="userSpaceOnUse"
       x1="15.6128"
       y1="9.7343998"
       x2="15.6128"
       y2="11.3262"><stop
         offset="0"
         style="stop-color:#FFFFFF"
         id="stop3266" /><stop
         offset="0.3333"
         style="stop-color:#FFFFFF;stop-opacity:0.2353"
         id="stop3268" /><stop
         offset="0.9506"
         style="stop-color:#FFFFFF;stop-opacity:0.1569"
         id="stop3270" /><stop
         offset="1"
         style="stop-color:#FFFFFF;stop-opacity:0.3922"
         id="stop3272" /></linearGradient><path
       stroke-miterlimit="10"
       d="m 18.912,10.964 c 0,0 -0.768,-0.729 -3.299,-0.729 -2.531,0 -3.299,0.729 -3.299,0.729"
       id="path3274"
       inkscape:connector-curvature="0"
       style="opacity:0.5;fill:none;stroke:url(#SVGID_6_);stroke-width:1.00690711;stroke-miterlimit:10;stroke-opacity:0.8" /><g
       id="g3276"><defs
         id="defs3278"><path
           id="SVGID_7_"
           d="m 15.613,8.734 c 1.026,0 1.929,0.107 2.694,0.32 0.201,-0.41 0.307,-0.859 0.307,-1.319 0,-1.654 -1.346,-3 -3,-3 -1.654,0 -3,1.346 -3,3 0,0.46 0.105,0.91 0.307,1.319 0.763,-0.212 1.666,-0.32 2.692,-0.32 z"
           inkscape:connector-curvature="0" /></defs><clipPath
         id="SVGID_8_"><use
           xlink:href="#SVGID_7_"
           overflow="visible"
           id="use3282"
           style="overflow:visible"
           x="0"
           y="0"
           width="32"
           height="32" /></clipPath><linearGradient
         id="SVGID_9_"
         gradientUnits="userSpaceOnUse"
         x1="15.6128"
         y1="3.7344"
         x2="15.6128"
         y2="10.2397"><stop
           offset="0"
           style="stop-color:#FFFFFF"
           id="stop3285" /><stop
           offset="0.3333"
           style="stop-color:#FFFFFF;stop-opacity:0.2353"
           id="stop3287" /><stop
           offset="0.9506"
           style="stop-color:#FFFFFF;stop-opacity:0.1569"
           id="stop3289" /><stop
           offset="1"
           style="stop-color:#FFFFFF;stop-opacity:0.3922"
           id="stop3291" /></linearGradient><path
         clip-path="url(#SVGID_8_)"
         stroke-miterlimit="10"
         d="m 15.613,8.734 c 1.026,0 1.929,0.107 2.694,0.32 0.201,-0.41 0.307,-0.859 0.307,-1.319 0,-1.654 -1.346,-3 -3,-3 -1.654,0 -3,1.346 -3,3 0,0.46 0.105,0.91 0.307,1.319 0.763,-0.212 1.666,-0.32 2.692,-0.32 z"
         id="path3293"
         inkscape:connector-curvature="0"
         style="opacity:0.5;fill:none;stroke:url(#SVGID_9_);stroke-width:2.01381421;stroke-miterlimit:10" /></g></g></svg>